STARTFONT 2.1
FONT -baekmuk-gulim-bold-r-normal--10-100-75-75-m-100-ksx1001.1997-0
SIZE 10 75 75
FONTBOUNDINGBOX 10 10 0 -2
STARTPROPERTIES 18
FOUNDRY "baekmuk"
FAMILY_NAME "gulim"
WEIGHT_NAME "bold"
SLANT "r"
SETWIDTH_NAME "normal"
ADD_STYLE_NAME ""
PIXEL_SIZE 10
POINT_SIZE 100
RESOLUTION_X 75
RESOLUTION_Y 75
SPACING "m"
AVERAGE_WIDTH 100
CHARSET_REGISTRY "ksx1001.1997"
CHARSET_ENCODING "0"
DEFAULT_CHAR 8481
FONT_ASCENT 8
FONT_DESCENT 2
COPYRIGHT "(c)Hwan Design Inc. and Mizi Research Inc."
ENDPROPERTIES
CHARS 8544
STARTCHAR C020440
ENCODING 8480
SWIDTH 1000 0
DWIDTH 10 0
BBX 0 0 0 0
BITMAP
ENDCHAR
STARTCHAR C020441
ENCODING 8481
SWIDTH 1000 0
DWIDTH 10 0
BBX 0 0 0 0
BITMAP
ENDCHAR
STARTCHAR C020442
ENCODING 8482
SWIDTH 1000 0
DWIDTH 10 0
BBX 2 1 7 6
BITMAP
C0
ENDCHAR
STARTCHAR C020443
ENCODING 8483
SWIDTH 1000 0
DWIDTH 10 0
BBX 3 2 6 6
BITMAP
E0
E0
ENDCHAR
STARTCHAR C020444
ENCODING 8484
SWIDTH 1000 0
DWIDTH 10 0
BBX 2 2 4 2
BITMAP
C0
C0
ENDCHAR
STARTCHAR C020445
ENCODING 8485
SWIDTH 1000 0
DWIDTH 10 0
BBX 2 1 2 3
BITMAP
C0
ENDCHAR
STARTCHAR C020446
ENCODING 8486
SWIDTH 1000 0
DWIDTH 10 0
BBX 7 2 2 2
BITMAP
F6
F6
ENDCHAR
STARTCHAR C020447
ENCODING 8487
SWIDTH 1000 0
DWIDTH 10 0
BBX 5 1 3 6
BITMAP
D8
ENDCHAR
STARTCHAR C020450
ENCODING 8488
SWIDTH 1000 0
DWIDTH 10 0
BBX 5 3 3 2
BITMAP
78
78
F0
ENDCHAR
STARTCHAR C020451
ENCODING 8489
SWIDTH 1000 0
DWIDTH 10 0
BBX 3 1 4 2
BITMAP
E0
ENDCHAR
STARTCHAR C020452
ENCODING 8490
SWIDTH 1000 0
DWIDTH 10 0
BBX 7 1 2 2
BITMAP
FE
ENDCHAR
STARTCHAR C020453
ENCODING 8491
SWIDTH 1000 0
DWIDTH 10 0
BBX 3 7 4 0
BITMAP
E0
E0
E0
E0
E0
E0
E0
ENDCHAR
STARTCHAR C020454
ENCODING 8492
SWIDTH 1000 0
DWIDTH 10 0
BBX 8 8 1 -1
BITMAP
C0
60
30
18
0C
06
06
03
ENDCHAR
STARTCHAR C020455
ENCODING 8493
SWIDTH 1000 0
DWIDTH 10 0
BBX 6 2 3 2
BITMAP
EC
38
ENDCHAR
STARTCHAR C020456
ENCODING 8494
SWIDTH 1000 0
DWIDTH 10 0
BBX 2 2 6 5
BITMAP
C0
C0
ENDCHAR
STARTCHAR C020457
ENCODING 8495
SWIDTH 1000 0
DWIDTH 10 0
BBX 2 2 2 6
BITMAP
C0
C0
ENDCHAR
STARTCHAR C020460
ENCODING 8496
SWIDTH 1000 0
DWIDTH 10 0
BBX 2 1 7 5
BITMAP
C0
ENDCHAR
STARTCHAR C020461
ENCODING 8497
SWIDTH 1000 0
DWIDTH 10 0
BBX 4 2 1 6
BITMAP
F0
C0
ENDCHAR
STARTCHAR C020462
ENCODING 8498
SWIDTH 1000 0
DWIDTH 10 0
BBX 4 10 7 -2
BITMAP
60
C0
C0
C0
C0
C0
C0
C0
C0
60
ENDCHAR
STARTCHAR C020463
ENCODING 8499
SWIDTH 1000 0
DWIDTH 10 0
BBX 3 10 1 -2
BITMAP
C0
60
60
60
60
60
60
60
60
C0
ENDCHAR
STARTCHAR C020464
ENCODING 8500
SWIDTH 1000 0
DWIDTH 10 0
BBX 3 6 6 0
BITMAP
60
C0
00
00
C0
60
ENDCHAR
STARTCHAR C020465
ENCODING 8501
SWIDTH 1000 0
DWIDTH 10 0
BBX 4 8 1 -1
BITMAP
C0
60
60
30
30
60
60
C0
ENDCHAR
STARTCHAR C020466
ENCODING 8502
SWIDTH 1000 0
DWIDTH 10 0
BBX 5 8 5 -1
BITMAP
18
70
F0
E0
E0
E0
70
18
ENDCHAR
STARTCHAR C020467
ENCODING 8503
SWIDTH 1000 0
DWIDTH 10 0
BBX 4 8 1 -1
BITMAP
E0
E0
70
70
70
70
E0
E0
ENDCHAR
STARTCHAR C020470
ENCODING 8504
SWIDTH 1000 0
DWIDTH 10 0
BBX 4 5 6 3
BITMAP
F0
C0
C0
C0
C0
ENDCHAR
STARTCHAR C020471
ENCODING 8505
SWIDTH 1000 0
DWIDTH 10 0
BBX 11 10 0 -2
BITMAP
0020
0020
0020
0020
0020
1800
1800
1800
1800
F800
ENDCHAR
STARTCHAR C020472
ENCODING 8506
SWIDTH 1000 0
DWIDTH 10 0
BBX 4 5 6 3
BITMAP
F0
F0
E0
E0
E0
ENDCHAR
STARTCHAR C020473
ENCODING 8507
SWIDTH 1000 0
DWIDTH 10 0
BBX 11 10 0 -2
BITMAP
0020
0020
0020
0020
0020
3820
3820
3820
7820
D800
ENDCHAR
STARTCHAR C020474
ENCODING 8508
SWIDTH 1000 0
DWIDTH 10 0
BBX 3 9 6 -1
BITMAP
E0
C0
C0
C0
C0
C0
C0
C0
E0
ENDCHAR
STARTCHAR C020475
ENCODING 8509
SWIDTH 1000 0
DWIDTH 10 0
BBX 3 9 1 -1
BITMAP
E0
60
60
60
60
60
60
E0
E0
ENDCHAR
STARTCHAR C020476
ENCODING 8510
SWIDTH 1000 0
DWIDTH 10 0
BBX 7 7 2 0
BITMAP
30
30
30
FC
30
30
FE
ENDCHAR
STARTCHAR C020477
ENCODING 8511
SWIDTH 1000 0
DWIDTH 10 0
BBX 7 6 2 0
BITMAP
C6
6C
38
38
78
C0
ENDCHAR
STARTCHAR C020500
ENCODING 8512
SWIDTH 1000 0
DWIDTH 10 0
BBX 7 6 2 0
BITMAP
30
00
FE
00
00
30
ENDCHAR
STARTCHAR C020501
ENCODING 8513
SWIDTH 1000 0
DWIDTH 10 0
BBX 7 5 2 0
BITMAP
30
FE
FE
18
18
ENDCHAR
STARTCHAR C020502
ENCODING 8514
SWIDTH 1000 0
DWIDTH 10 0
BBX 7 6 2 0
BITMAP
06
3C
E0
70
1E
FE
ENDCHAR
STARTCHAR C020503
ENCODING 8515
SWIDTH 1000 0
DWIDTH 10 0
BBX 7 6 2 0
BITMAP
C0
70
1C
18
F0
FE
ENDCHAR
STARTCHAR C020504
ENCODING 8516
SWIDTH 1000 0
DWIDTH 10 0
BBX 9 4 1 1
BITMAP
7700
DD80
DD80
7700
ENDCHAR
STARTCHAR C020505
ENCODING 8517
SWIDTH 1000 0
DWIDTH 10 0
BBX 6 4 2 1
BITMAP
30
00
00
CC
ENDCHAR
STARTCHAR C020506
ENCODING 8518
SWIDTH 1000 0
DWIDTH 10 0
BBX 3 2 1 6
BITMAP
E0
E0
ENDCHAR
STARTCHAR C020507
ENCODING 8519
SWIDTH 1000 0
DWIDTH 10 0
BBX 3 2 1 6
BITMAP
60
C0
ENDCHAR
STARTCHAR C020510
ENCODING 8520
SWIDTH 1000 0
DWIDTH 10 0
BBX 4 2 1 6
BITMAP
70
F0
ENDCHAR
STARTCHAR C020511
ENCODING 8521
SWIDTH 1000 0
DWIDTH 10 0
BBX 7 7 2 0
BITMAP
FC
76
66
60
60
60
3E
ENDCHAR
STARTCHAR C020512
ENCODING 8522
SWIDTH 1000 0
DWIDTH 10 0
BBX 6 7 2 0
BITMAP
38
00
38
78
78
FC
CC
ENDCHAR
STARTCHAR C020513
ENCODING 8523
SWIDTH 1000 0
DWIDTH 10 0
BBX 8 8 1 -1
BITMAP
3E
73
6F
6C
7B
73
76
DC
ENDCHAR
STARTCHAR C020514
ENCODING 8524
SWIDTH 1000 0
DWIDTH 10 0
BBX 7 7 2 0
BITMAP
3C
60
60
FC
30
F6
FC
ENDCHAR
STARTCHAR C020515
ENCODING 8525
SWIDTH 1000 0
DWIDTH 10 0
BBX 6 7 2 0
BITMAP
CC
D8
7C
30
7C
30
30
ENDCHAR
STARTCHAR C020516
ENCODING 8526
SWIDTH 1000 0
DWIDTH 10 0
BBX 5 9 3 -1
BITMAP
60
E0
70
78
60
60
F8
D8
70
ENDCHAR
STARTCHAR C020517
ENCODING 8527
SWIDTH 1000 0
DWIDTH 10 0
BBX 7 8 2 -1
BITMAP
7C
6C
78
30
FE
30
30
30
ENDCHAR
STARTCHAR C020520
ENCODING 8528
SWIDTH 1000 0
DWIDTH 10 0
BBX 6 6 2 0
BITMAP
0C
18
30
60
C0
FC
ENDCHAR
STARTCHAR C020521
ENCODING 8529
SWIDTH 1000 0
DWIDTH 10 0
BBX 7 5 2 0
BITMAP
30
30
30
30
FE
ENDCHAR
STARTCHAR C020522
ENCODING 8530
SWIDTH 1000 0
DWIDTH 10 0
BBX 7 2 2 5
BITMAP
78
CE
ENDCHAR
STARTCHAR C020523
ENCODING 8531
SWIDTH 1000 0
DWIDTH 10 0
BBX 5 7 3 0
BITMAP
70
D8
18
78
F0
30
F0
ENDCHAR
STARTCHAR C020524
ENCODING 8532
SWIDTH 1000 0
DWIDTH 10 0
BBX 7 6 2 0
BITMAP
FE
CC
CC
78
78
30
ENDCHAR
STARTCHAR C020525
ENCODING 8533
SWIDTH 1000 0
DWIDTH 10 0
BBX 7 4 2 1
BITMAP
FE
00
FE
FE
ENDCHAR
STARTCHAR C020526
ENCODING 8534
SWIDTH 1000 0
DWIDTH 10 0
BBX 7 6 2 0
BITMAP
60
00
FE
FE
00
0C
ENDCHAR
STARTCHAR C020527
ENCODING 8535
SWIDTH 1000 0
DWIDTH 10 0
BBX 5 8 3 -1
BITMAP
F0
F0
60
F8
D8
70
D8
F8
ENDCHAR
STARTCHAR C020530
ENCODING 8536
SWIDTH 1000 0
DWIDTH 10 0
BBX 7 6 2 0
BITMAP
30
7C
FC
38
7C
C6
ENDCHAR
STARTCHAR C020531
ENCODING 8537
SWIDTH 1000 0
DWIDTH 10 0
BBX 8 7 1 -1
BITMAP
18
1C
FF
66
36
7E
7E
ENDCHAR
STARTCHAR C020532
ENCODING 8538
SWIDTH 1000 0
DWIDTH 10 0
BBX 7 7 2 -1
BITMAP
30
38
FE
7C
78
7C
0C
ENDCHAR
STARTCHAR C020533
ENCODING 8539
SWIDTH 1000 0
DWIDTH 10 0
BBX 8 8 1 -1
BITMAP
3C
66
C3
C3
C3
C3
66
3C
ENDCHAR
STARTCHAR C020534
ENCODING 8540
SWIDTH 1000 0
DWIDTH 10 0
BBX 8 8 1 -1
BITMAP
3E
7F
7F
FF
FF
7F
7F
3E
ENDCHAR
STARTCHAR C020535
ENCODING 8541
SWIDTH 1000 0
DWIDTH 10 0
BBX 8 8 1 -1
BITMAP
3C
7E
E7
E7
E7
E7
7E
3C
ENDCHAR
STARTCHAR C020536
ENCODING 8542
SWIDTH 1000 0
DWIDTH 10 0
BBX 9 8 1 -1
BITMAP
1C00
3600
6300
C180
C300
6600
3C00
1800
ENDCHAR
STARTCHAR C020537
ENCODING 8543
SWIDTH 1000 0
DWIDTH 10 0
BBX 8 8 1 -1
BITMAP
18
3C
7E
FF
FF
7E
3C
18
ENDCHAR
STARTCHAR C020540
ENCODING 8544
SWIDTH 1000 0
DWIDTH 10 0
BBX 7 8 2 -1
BITMAP
FE
06
06
06
06
06
06
FE
ENDCHAR
STARTCHAR C020541
ENCODING 8545
SWIDTH 1000 0
DWIDTH 10 0
BBX 7 8 2 -1
BITMAP
FE
FE
FE
FE
FE
FE
FE
FE
ENDCHAR
STARTCHAR C020542
ENCODING 8546
SWIDTH 1000 0
DWIDTH 10 0
BBX 7 6 2 0
BITMAP
30
78
6C
CC
C6
FE
ENDCHAR
STARTCHAR C020543
ENCODING 8547
SWIDTH 1000 0
DWIDTH 10 0
BBX 7 6 2 0
BITMAP
30
38
7C
7C
FE
FE
ENDCHAR
STARTCHAR C020544
ENCODING 8548
SWIDTH 1000 0
DWIDTH 10 0
BBX 8 6 1 0
BITMAP
7F
C3
66
3C
3C
18
ENDCHAR
STARTCHAR C020545
ENCODING 8549
SWIDTH 1000 0
DWIDTH 10 0
BBX 7 5 2 1
BITMAP
FE
FC
7C
38
30
ENDCHAR
STARTCHAR C020546
ENCODING 8550
SWIDTH 1000 0
DWIDTH 10 0
BBX 8 4 2 1
BITMAP
0C
06
FF
0C
ENDCHAR
STARTCHAR C020547
ENCODING 8551
SWIDTH 1000 0
DWIDTH 10 0
BBX 7 4 2 1
BITMAP
60
C0
FE
60
ENDCHAR
STARTCHAR C020550
ENCODING 8552
SWIDTH 1000 0
DWIDTH 10 0
BBX 4 8 4 -1
BITMAP
60
F0
60
60
60
60
60
60
ENDCHAR
STARTCHAR C020551
ENCODING 8553
SWIDTH 1000 0
DWIDTH 10 0
BBX 4 7 4 -1
BITMAP
60
60
60
60
60
F0
60
ENDCHAR
STARTCHAR C020552
ENCODING 8554
SWIDTH 1000 0
DWIDTH 10 0
BBX 7 2 2 2
BITMAP
06
FE
ENDCHAR
STARTCHAR C020553
ENCODING 8555
SWIDTH 1000 0
DWIDTH 10 0
BBX 7 2 2 2
BITMAP
FE
FE
ENDCHAR
STARTCHAR C020554
ENCODING 8556
SWIDTH 1000 0
DWIDTH 10 0
BBX 7 6 2 0
BITMAP
1E
7C
F0
F0
78
3E
ENDCHAR
STARTCHAR C020555
ENCODING 8557
SWIDTH 1000 0
DWIDTH 10 0
BBX 8 8 1 -1
BITMAP
C0
78
3C
0F
1B
3E
78
30
ENDCHAR
STARTCHAR C020556
ENCODING 8558
SWIDTH 1000 0
DWIDTH 10 0
BBX 9 8 1 0
BITMAP
0F80
1800
1800
1800
3000
3000
F000
6000
ENDCHAR
STARTCHAR C020557
ENCODING 8559
SWIDTH 1000 0
DWIDTH 10 0
BBX 9 4 1 1
BITMAP
7780
CD80
D980
7700
ENDCHAR
STARTCHAR C020560
ENCODING 8560
SWIDTH 1000 0
DWIDTH 10 0
BBX 7 4 2 1
BITMAP
7E
D8
D8
FE
ENDCHAR
STARTCHAR C020561
ENCODING 8561
SWIDTH 1000 0
DWIDTH 10 0
BBX 5 5 3 0
BITMAP
D8
00
00
00
60
ENDCHAR
STARTCHAR C020562
ENCODING 8562
SWIDTH 1000 0
DWIDTH 10 0
BBX 4 7 4 0
BITMAP
70
C0
C0
C0
C0
C0
C0
ENDCHAR
STARTCHAR C020563
ENCODING 8563
SWIDTH 1000 0
DWIDTH 10 0
BBX 7 8 2 -1
BITMAP
3E
6E
78
78
78
78
F8
30
ENDCHAR
STARTCHAR C020564
ENCODING 8564
SWIDTH 1000 0
DWIDTH 10 0
BBX 8 6 2 0
BITMAP
3F
E0
FF
C0
E0
3F
ENDCHAR
STARTCHAR C020565
ENCODING 8565
SWIDTH 1000 0
DWIDTH 10 0
BBX 7 6 2 0
BITMAP
F8
0E
FE
06
0E
F8
ENDCHAR
STARTCHAR C020566
ENCODING 8566
SWIDTH 1000 0
DWIDTH 10 0
BBX 7 6 2 0
BITMAP
7E
C0
C0
C0
7C
FE
ENDCHAR
STARTCHAR C020567
ENCODING 8567
SWIDTH 1000 0
DWIDTH 10 0
BBX 7 6 2 0
BITMAP
FC
06
06
0C
F8
FE
ENDCHAR
STARTCHAR C020570
ENCODING 8568
SWIDTH 1000 0
DWIDTH 10 0
BBX 8 6 2 0
BITMAP
1F
70
C0
C0
C0
7F
ENDCHAR
STARTCHAR C020571
ENCODING 8569
SWIDTH 1000 0
DWIDTH 10 0
BBX 8 6 1 0
BITMAP
F8
0E
03
03
03
FE
ENDCHAR
STARTCHAR C020572
ENCODING 8570
SWIDTH 1000 0
DWIDTH 10 0
BBX 6 7 3 0
BITMAP
0C
0C
0C
0C
0C
18
F8
ENDCHAR
STARTCHAR C020573
ENCODING 8571
SWIDTH 1000 0
DWIDTH 10 0
BBX 5 7 3 0
BITMAP
F8
18
18
18
18
18
18
ENDCHAR
STARTCHAR C020574
ENCODING 8572
SWIDTH 1000 0
DWIDTH 10 0
BBX 7 6 2 0
BITMAP
30
78
78
CC
CC
06
ENDCHAR
STARTCHAR C020575
ENCODING 8573
SWIDTH 1000 0
DWIDTH 10 0
BBX 7 5 2 1
BITMAP
C6
CC
6C
78
38
ENDCHAR
STARTCHAR C020576
ENCODING 8574
SWIDTH 1000 0
DWIDTH 10 0
BBX 7 4 2 1
BITMAP
FE
06
06
06
ENDCHAR
STARTCHAR C020577
ENCODING 8575
SWIDTH 1000 0
DWIDTH 10 0
BBX 0 0 0 0
BITMAP
ENDCHAR
STARTCHAR C021040
ENCODING 8736
SWIDTH 1000 0
DWIDTH 10 0
BBX 0 0 0 0
BITMAP
ENDCHAR
STARTCHAR C021041
ENCODING 8737
SWIDTH 1000 0
DWIDTH 10 0
BBX 7 4 2 1
BITMAP
0C
FE
06
FC
ENDCHAR
STARTCHAR C021042
ENCODING 8738
SWIDTH 1000 0
DWIDTH 10 0
BBX 8 4 1 1
BITMAP
66
FF
C3
7E
ENDCHAR
STARTCHAR C021043
ENCODING 8739
SWIDTH 1000 0
DWIDTH 10 0
BBX 7 6 2 1
BITMAP
C6
CC
7C
6C
78
38
ENDCHAR
STARTCHAR C021044
ENCODING 8740
SWIDTH 1000 0
DWIDTH 10 0
BBX 5 7 3 0
BITMAP
F8
18
18
F8
18
18
F8
ENDCHAR
STARTCHAR C021045
ENCODING 8741
SWIDTH 1000 0
DWIDTH 10 0
BBX 2 1 4 6
BITMAP
C0
ENDCHAR
STARTCHAR C021046
ENCODING 8742
SWIDTH 1000 0
DWIDTH 10 0
BBX 4 2 3 5
BITMAP
E0
30
ENDCHAR
STARTCHAR C021047
ENCODING 8743
SWIDTH 1000 0
DWIDTH 10 0
BBX 4 2 3 6
BITMAP
C0
70
ENDCHAR
STARTCHAR C021050
ENCODING 8744
SWIDTH 1000 0
DWIDTH 10 0
BBX 5 2 3 6
BITMAP
D8
70
ENDCHAR
STARTCHAR C021051
ENCODING 8745
SWIDTH 1000 0
DWIDTH 10 0
BBX 3 1 4 7
BITMAP
E0
ENDCHAR
STARTCHAR C021052
ENCODING 8746
SWIDTH 1000 0
DWIDTH 10 0
BBX 3 2 4 6
BITMAP
E0
E0
ENDCHAR
STARTCHAR C021053
ENCODING 8747
SWIDTH 1000 0
DWIDTH 10 0
BBX 2 1 4 6
BITMAP
C0
ENDCHAR
STARTCHAR C021054
ENCODING 8748
SWIDTH 1000 0
DWIDTH 10 0
BBX 3 2 4 -1
BITMAP
60
C0
ENDCHAR
STARTCHAR C021055
ENCODING 8749
SWIDTH 1000 0
DWIDTH 10 0
BBX 3 2 4 -1
BITMAP
C0
E0
ENDCHAR
STARTCHAR C021056
ENCODING 8750
SWIDTH 1000 0
DWIDTH 10 0
BBX 2 7 4 0
BITMAP
C0
00
C0
C0
C0
C0
C0
ENDCHAR
STARTCHAR C021057
ENCODING 8751
SWIDTH 1000 0
DWIDTH 10 0
BBX 5 7 3 0
BITMAP
30
00
30
30
E0
D8
78
ENDCHAR
STARTCHAR C021060
ENCODING 8752
SWIDTH 1000 0
DWIDTH 10 0
BBX 2 4 4 1
BITMAP
C0
00
00
C0
ENDCHAR
STARTCHAR C021061
ENCODING 8753
SWIDTH 1000 0
DWIDTH 10 0
BBX 5 7 3 0
BITMAP
78
60
70
F0
60
60
E0
ENDCHAR
STARTCHAR C021062
ENCODING 8754
SWIDTH 1000 0
DWIDTH 10 0
BBX 8 7 1 0
BITMAP
FF
63
33
18
33
63
7F
ENDCHAR
STARTCHAR C021063
ENCODING 8755
SWIDTH 1000 0
DWIDTH 10 0
BBX 6 7 2 0
BITMAP
FC
CC
CC
CC
CC
CC
CC
ENDCHAR
STARTCHAR C021064
ENCODING 8756
SWIDTH 1000 0
DWIDTH 10 0
BBX 7 6 2 0
BITMAP
FC
C6
C6
C6
CC
FE
ENDCHAR
STARTCHAR C021065
ENCODING 8757
SWIDTH 1000 0
DWIDTH 10 0
BBX 7 7 1 0
BITMAP
FE
F8
1E
18
18
18
18
ENDCHAR
STARTCHAR C021066
ENCODING 8758
SWIDTH 1000 0
DWIDTH 10 0
BBX 9 9 1 -1
BITMAP
6600
FC00
FC00
F800
FF00
7F80
7F80
DF80
1F00
ENDCHAR
STARTCHAR C021067
ENCODING 8759
SWIDTH 1000 0
DWIDTH 10 0
BBX 7 7 2 0
BITMAP
06
1E
36
E6
66
3E
0E
ENDCHAR
STARTCHAR C021070
ENCODING 8760
SWIDTH 1000 0
DWIDTH 10 0
BBX 6 5 2 1
BITMAP
1C
3C
FC
3C
1C
ENDCHAR
STARTCHAR C021071
ENCODING 8761
SWIDTH 1000 0
DWIDTH 10 0
BBX 6 7 2 0
BITMAP
C0
E0
F8
CC
D8
F0
C0
ENDCHAR
STARTCHAR C021072
ENCODING 8762
SWIDTH 1000 0
DWIDTH 10 0
BBX 6 7 2 0
BITMAP
C0
F0
F8
FC
F8
F0
C0
ENDCHAR
STARTCHAR C021073
ENCODING 8763
SWIDTH 1000 0
DWIDTH 10 0
BBX 7 8 2 -1
BITMAP
30
78
6C
C6
C6
FE
7C
38
ENDCHAR
STARTCHAR C021074
ENCODING 8764
SWIDTH 1000 0
DWIDTH 10 0
BBX 7 8 2 -1
BITMAP
30
38
7C
FC
FE
FE
7C
38
ENDCHAR
STARTCHAR C021075
ENCODING 8765
SWIDTH 1000 0
DWIDTH 10 0
BBX 7 8 2 -1
BITMAP
6C
FE
C6
C6
CC
6C
78
30
ENDCHAR
STARTCHAR C021076
ENCODING 8766
SWIDTH 1000 0
DWIDTH 10 0
BBX 7 8 2 -1
BITMAP
FE
FE
FE
FE
FC
7C
38
30
ENDCHAR
STARTCHAR C021077
ENCODING 8767
SWIDTH 1000 0
DWIDTH 10 0
BBX 9 9 1 -1
BITMAP
1C00
3600
3600
1E00
FF80
C180
FD80
7F00
1C00
ENDCHAR
STARTCHAR C021100
ENCODING 8768
SWIDTH 1000 0
DWIDTH 10 0
BBX 9 8 1 -1
BITMAP
1C00
3C00
3C00
7F00
FF80
FF00
1800
1C00
ENDCHAR
STARTCHAR C021101
ENCODING 8769
SWIDTH 1000 0
DWIDTH 10 0
BBX 9 8 1 -1
BITMAP
3E00
7F00
FF80
FF80
FF80
FF80
6300
3E00
ENDCHAR
STARTCHAR C021102
ENCODING 8770
SWIDTH 1000 0
DWIDTH 10 0
BBX 9 9 1 -1
BITMAP
1800
3C00
7E00
7F00
FF80
FF00
7E00
3C00
1800
ENDCHAR
STARTCHAR C021103
ENCODING 8771
SWIDTH 1000 0
DWIDTH 10 0
BBX 8 8 1 -1
BITMAP
FF
C3
FF
FF
FF
FF
C3
FF
ENDCHAR
STARTCHAR C021104
ENCODING 8772
SWIDTH 1000 0
DWIDTH 10 0
BBX 8 8 2 -1
BITMAP
3C
76
F3
F3
F3
F3
76
3C
ENDCHAR
STARTCHAR C021105
ENCODING 8773
SWIDTH 1000 0
DWIDTH 10 0
BBX 8 8 1 -1
BITMAP
3C
6E
CF
CF
CF
CF
6E
3C
ENDCHAR
STARTCHAR C021106
ENCODING 8774
SWIDTH 1000 0
DWIDTH 10 0
BBX 8 8 1 -1
BITMAP
FF
DF
FF
E7
FF
DB
E7
FF
ENDCHAR
STARTCHAR C021107
ENCODING 8775
SWIDTH 1000 0
DWIDTH 10 0
BBX 8 8 2 -1
BITMAP
FF
FF
03
FF
03
FF
03
FF
ENDCHAR
STARTCHAR C021110
ENCODING 8776
SWIDTH 1000 0
DWIDTH 10 0
BBX 7 8 2 -1
BITMAP
FE
7E
7E
7E
7E
7E
7E
FE
ENDCHAR
STARTCHAR C021111
ENCODING 8777
SWIDTH 1000 0
DWIDTH 10 0
BBX 8 8 2 -1
BITMAP
FF
3F
7B
DB
3F
6F
DB
FF
ENDCHAR
STARTCHAR C021112
ENCODING 8778
SWIDTH 1000 0
DWIDTH 10 0
BBX 8 8 1 -1
BITMAP
FF
FB
FF
FF
FF
FF
DF
FF
ENDCHAR
STARTCHAR C021113
ENCODING 8779
SWIDTH 1000 0
DWIDTH 10 0
BBX 8 8 2 -1
BITMAP
FF
FF
7F
FF
7F
FF
7F
FF
ENDCHAR
STARTCHAR C021114
ENCODING 8780
SWIDTH 1000 0
DWIDTH 10 0
BBX 8 8 2 -1
BITMAP
FF
FF
EF
3F
FF
6F
FF
FF
ENDCHAR
STARTCHAR C021115
ENCODING 8781
SWIDTH 1000 0
DWIDTH 10 0
BBX 9 8 1 -1
BITMAP
3600
7E00
3E00
3E00
7E00
FF80
E300
3E00
ENDCHAR
STARTCHAR C021116
ENCODING 8782
SWIDTH 1000 0
DWIDTH 10 0
BBX 9 7 1 -1
BITMAP
7F00
FF80
FF80
7700
F700
DD80
7700
ENDCHAR
STARTCHAR C021117
ENCODING 8783
SWIDTH 1000 0
DWIDTH 10 0
BBX 9 6 1 0
BITMAP
7F00
F780
FF80
6700
6700
7F00
ENDCHAR
STARTCHAR C021120
ENCODING 8784
SWIDTH 1000 0
DWIDTH 10 0
BBX 9 5 1 1
BITMAP
1E00
FF80
7980
3F80
0700
ENDCHAR
STARTCHAR C021121
ENCODING 8785
SWIDTH 1000 0
DWIDTH 10 0
BBX 9 5 1 1
BITMAP
3C00
FF80
CF00
FE00
7800
ENDCHAR
STARTCHAR C021122
ENCODING 8786
SWIDTH 1000 0
DWIDTH 10 0
BBX 6 10 2 -2
BITMAP
78
DC
DC
DC
7C
1C
1C
1C
1C
18
ENDCHAR
STARTCHAR C021123
ENCODING 8787
SWIDTH 1000 0
DWIDTH 10 0
BBX 6 9 2 -1
BITMAP
30
30
FC
30
30
30
30
30
30
ENDCHAR
STARTCHAR C021124
ENCODING 8788
SWIDTH 1000 0
DWIDTH 10 0
BBX 6 9 2 -1
BITMAP
30
30
78
FC
30
30
30
30
30
ENDCHAR
STARTCHAR C021125
ENCODING 8789
SWIDTH 1000 0
DWIDTH 10 0
BBX 2 6 4 0
BITMAP
C0
C0
C0
C0
C0
C0
ENDCHAR
STARTCHAR C021126
ENCODING 8790
SWIDTH 1000 0
DWIDTH 10 0
BBX 6 6 2 0
BITMAP
0C
18
30
60
60
C0
ENDCHAR
STARTCHAR C021127
ENCODING 8791
SWIDTH 1000 0
DWIDTH 10 0
BBX 7 6 2 1
BITMAP
06
0C
18
30
E0
E0
ENDCHAR
STARTCHAR C021130
ENCODING 8792
SWIDTH 1000 0
DWIDTH 10 0
BBX 6 6 3 0
BITMAP
C0
C0
60
30
18
0C
ENDCHAR
STARTCHAR C021131
ENCODING 8793
SWIDTH 1000 0
DWIDTH 10 0
BBX 7 6 2 0
BITMAP
C0
60
30
18
0E
1E
ENDCHAR
STARTCHAR C021132
ENCODING 8794
SWIDTH 1000 0
DWIDTH 10 0
BBX 5 7 3 0
BITMAP
C0
C0
F8
D8
D8
F0
E0
ENDCHAR
STARTCHAR C021133
ENCODING 8795
SWIDTH 1000 0
DWIDTH 10 0
BBX 3 8 4 -1
BITMAP
60
60
60
60
60
60
60
C0
ENDCHAR
STARTCHAR C021134
ENCODING 8796
SWIDTH 1000 0
DWIDTH 10 0
BBX 5 7 3 -1
BITMAP
70
78
78
78
60
60
C0
ENDCHAR
STARTCHAR C021135
ENCODING 8797
SWIDTH 1000 0
DWIDTH 10 0
BBX 7 8 2 -1
BITMAP
7E
66
7E
66
66
66
EE
DC
ENDCHAR
STARTCHAR C021136
ENCODING 8798
SWIDTH 1000 0
DWIDTH 10 0
BBX 9 8 1 -1
BITMAP
3E00
7600
FF00
FB80
3D80
7D80
6700
3E00
ENDCHAR
STARTCHAR C021137
ENCODING 8799
SWIDTH 1000 0
DWIDTH 10 0
BBX 9 8 1 -1
BITMAP
7F00
DF00
F780
C180
FF80
D980
7B00
3E00
ENDCHAR
STARTCHAR C021140
ENCODING 8800
SWIDTH 1000 0
DWIDTH 10 0
BBX 9 7 1 0
BITMAP
F000
F000
F700
FD80
FD80
FD80
F780
ENDCHAR
STARTCHAR C021141
ENCODING 8801
SWIDTH 1000 0
DWIDTH 10 0
BBX 9 7 1 0
BITMAP
F000
D800
0700
0D80
1D80
DD80
F700
ENDCHAR
STARTCHAR C021142
ENCODING 8802
SWIDTH 1000 0
DWIDTH 10 0
BBX 9 7 1 0
BITMAP
FD80
6D80
6D80
6D80
6F80
6F80
6D80
ENDCHAR
STARTCHAR C021143
ENCODING 8803
SWIDTH 1000 0
DWIDTH 10 0
BBX 9 5 1 0
BITMAP
7F80
FF80
FF80
FF80
FF80
ENDCHAR
STARTCHAR C021144
ENCODING 8804
SWIDTH 1000 0
DWIDTH 10 0
BBX 8 7 1 -2
BITMAP
FF
FF
FF
FF
FF
C0
C0
ENDCHAR
STARTCHAR C021145
ENCODING 8805
SWIDTH 1000 0
DWIDTH 10 0
BBX 8 7 1 0
BITMAP
F3
63
7F
77
7F
77
7F
ENDCHAR
STARTCHAR C021146
ENCODING 8806
SWIDTH 1000 0
DWIDTH 10 0
BBX 0 0 0 0
BITMAP
ENDCHAR
STARTCHAR C021147
ENCODING 8807
SWIDTH 1000 0
DWIDTH 10 0
BBX 0 0 0 0
BITMAP
ENDCHAR
STARTCHAR C021150
ENCODING 8808
SWIDTH 1000 0
DWIDTH 10 0
BBX 0 0 0 0
BITMAP
ENDCHAR
STARTCHAR C021151
ENCODING 8809
SWIDTH 1000 0
DWIDTH 10 0
BBX 1 8 10 0
BITMAP
80
80
80
00
00
00
00
80
ENDCHAR
STARTCHAR C021152
ENCODING 8810
SWIDTH 1000 0
DWIDTH 10 0
BBX 0 0 0 0
BITMAP
ENDCHAR
STARTCHAR C021153
ENCODING 8811
SWIDTH 1000 0
DWIDTH 10 0
BBX 0 0 0 0
BITMAP
ENDCHAR
STARTCHAR C021154
ENCODING 8812
SWIDTH 1000 0
DWIDTH 10 0
BBX 0 0 0 0
BITMAP
ENDCHAR
STARTCHAR C021155
ENCODING 8813
SWIDTH 1000 0
DWIDTH 10 0
BBX 0 0 0 0
BITMAP
ENDCHAR
STARTCHAR C021156
ENCODING 8814
SWIDTH 1000 0
DWIDTH 10 0
BBX 1 6 10 2
BITMAP
80
80
00
00
00
80
ENDCHAR
STARTCHAR C021157
ENCODING 8815
SWIDTH 1000 0
DWIDTH 10 0
BBX 0 0 0 0
BITMAP
ENDCHAR
STARTCHAR C021160
ENCODING 8816
SWIDTH 1000 0
DWIDTH 10 0
BBX 0 0 0 0
BITMAP
ENDCHAR
STARTCHAR C021161
ENCODING 8817
SWIDTH 1000 0
DWIDTH 10 0
BBX 0 0 0 0
BITMAP
ENDCHAR
STARTCHAR C021162
ENCODING 8818
SWIDTH 1000 0
DWIDTH 10 0
BBX 0 0 0 0
BITMAP
ENDCHAR
STARTCHAR C021163
ENCODING 8819
SWIDTH 1000 0
DWIDTH 10 0
BBX 0 0 0 0
BITMAP
ENDCHAR
STARTCHAR C021164
ENCODING 8820
SWIDTH 1000 0
DWIDTH 10 0
BBX 0 0 0 0
BITMAP
ENDCHAR
STARTCHAR C021165
ENCODING 8821
SWIDTH 1000 0
DWIDTH 10 0
BBX 0 0 0 0
BITMAP
ENDCHAR
STARTCHAR C021166
ENCODING 8822
SWIDTH 1000 0
DWIDTH 10 0
BBX 0 0 0 0
BITMAP
ENDCHAR
STARTCHAR C021167
ENCODING 8823
SWIDTH 1000 0
DWIDTH 10 0
BBX 0 0 0 0
BITMAP
ENDCHAR
STARTCHAR C021170
ENCODING 8824
SWIDTH 1000 0
DWIDTH 10 0
BBX 1 8 10 0
BITMAP
80
80
80
00
00
00
00
80
ENDCHAR
STARTCHAR C021171
ENCODING 8825
SWIDTH 1000 0
DWIDTH 10 0
BBX 0 0 0 0
BITMAP
ENDCHAR
STARTCHAR C021172
ENCODING 8826
SWIDTH 1000 0
DWIDTH 10 0
BBX 0 0 0 0
BITMAP
ENDCHAR
STARTCHAR C021173
ENCODING 8827
SWIDTH 1000 0
DWIDTH 10 0
BBX 0 0 0 0
BITMAP
ENDCHAR
STARTCHAR C021174
ENCODING 8828
SWIDTH 1000 0
DWIDTH 10 0
BBX 0 0 0 0
BITMAP
ENDCHAR
STARTCHAR C021175
ENCODING 8829
SWIDTH 1000 0
DWIDTH 10 0
BBX 1 6 10 2
BITMAP
80
80
00
00
00
80
ENDCHAR
STARTCHAR C021176
ENCODING 8830
SWIDTH 1000 0
DWIDTH 10 0
BBX 0 0 0 0
BITMAP
ENDCHAR
STARTCHAR C021177
ENCODING 8831
SWIDTH 1000 0
DWIDTH 10 0
BBX 0 0 0 0
BITMAP
ENDCHAR
STARTCHAR C021440
ENCODING 8992
SWIDTH 1000 0
DWIDTH 10 0
BBX 1 6 10 1
BITMAP
80
80
80
80
80
80
ENDCHAR
STARTCHAR C021441
ENCODING 8993
SWIDTH 1000 0
DWIDTH 10 0
BBX 2 6 5 1
BITMAP
C0
C0
C0
C0
C0
C0
ENDCHAR
STARTCHAR C021442
ENCODING 8994
SWIDTH 1000 0
DWIDTH 10 0
BBX 4 2 4 6
BITMAP
30
E0
ENDCHAR
STARTCHAR C021443
ENCODING 8995
SWIDTH 1000 0
DWIDTH 10 0
BBX 7 7 2 -1
BITMAP
6C
FE
6C
78
FE
D8
18
ENDCHAR
STARTCHAR C021444
ENCODING 8996
SWIDTH 1000 0
DWIDTH 10 0
BBX 7 8 2 -1
BITMAP
7C
FE
F8
7C
3E
FE
7C
38
ENDCHAR
STARTCHAR C021445
ENCODING 8997
SWIDTH 1000 0
DWIDTH 10 0
BBX 9 8 1 -1
BITMAP
F800
DF00
DC00
7800
3F80
6D80
0D80
0700
ENDCHAR
STARTCHAR C021446
ENCODING 8998
SWIDTH 1000 0
DWIDTH 10 0
BBX 7 7 2 0
BITMAP
38
6C
78
70
DE
CC
7E
ENDCHAR
STARTCHAR C021447
ENCODING 8999
SWIDTH 1000 0
DWIDTH 10 0
BBX 0 0 0 0
BITMAP
ENDCHAR
STARTCHAR C021450
ENCODING 9000
SWIDTH 1000 0
DWIDTH 10 0
BBX 4 9 3 -1
BITMAP
30
60
60
C0
C0
C0
C0
60
30
ENDCHAR
STARTCHAR C021451
ENCODING 9001
SWIDTH 1000 0
DWIDTH 10 0
BBX 4 9 3 -1
BITMAP
C0
60
60
30
30
30
30
60
C0
ENDCHAR
STARTCHAR C021452
ENCODING 9002
SWIDTH 1000 0
DWIDTH 10 0
BBX 7 5 2 1
BITMAP
60
38
FE
38
7C
ENDCHAR
STARTCHAR C021453
ENCODING 9003
SWIDTH 1000 0
DWIDTH 10 0
BBX 8 8 1 -1
BITMAP
18
18
18
FF
18
18
18
18
ENDCHAR
STARTCHAR C021454
ENCODING 9004
SWIDTH 1000 0
DWIDTH 10 0
BBX 3 1 4 0
BITMAP
E0
ENDCHAR
STARTCHAR C021455
ENCODING 9005
SWIDTH 1000 0
DWIDTH 10 0
BBX 8 1 2 3
BITMAP
FF
ENDCHAR
STARTCHAR C021456
ENCODING 9006
SWIDTH 1000 0
DWIDTH 10 0
BBX 2 2 5 -1
BITMAP
C0
C0
ENDCHAR
STARTCHAR C021457
ENCODING 9007
SWIDTH 1000 0
DWIDTH 10 0
BBX 5 8 3 -1
BITMAP
18
30
30
60
60
60
C0
C0
ENDCHAR
STARTCHAR C021460
ENCODING 9008
SWIDTH 1000 0
DWIDTH 10 0
BBX 7 7 2 0
BITMAP
7C
EE
C6
C6
C6
EE
7C
ENDCHAR
STARTCHAR C021461
ENCODING 9009
SWIDTH 1000 0
DWIDTH 10 0
BBX 4 7 3 0
BITMAP
30
F0
F0
30
30
30
30
ENDCHAR
STARTCHAR C021462
ENCODING 9010
SWIDTH 1000 0
DWIDTH 10 0
BBX 6 7 2 0
BITMAP
7C
CC
CC
18
70
C0
FC
ENDCHAR
STARTCHAR C021463
ENCODING 9011
SWIDTH 1000 0
DWIDTH 10 0
BBX 6 7 2 0
BITMAP
3C
0C
0C
3C
CC
CC
7C
ENDCHAR
STARTCHAR C021464
ENCODING 9012
SWIDTH 1000 0
DWIDTH 10 0
BBX 7 7 2 0
BITMAP
1C
3C
3C
6C
CC
FE
0C
ENDCHAR
STARTCHAR C021465
ENCODING 9013
SWIDTH 1000 0
DWIDTH 10 0
BBX 6 7 3 0
BITMAP
FC
C0
C0
7C
CC
CC
78
ENDCHAR
STARTCHAR C021466
ENCODING 9014
SWIDTH 1000 0
DWIDTH 10 0
BBX 6 7 3 0
BITMAP
F0
18
78
CC
0C
CC
F8
ENDCHAR
STARTCHAR C021467
ENCODING 9015
SWIDTH 1000 0
DWIDTH 10 0
BBX 6 6 3 1
BITMAP
FC
18
18
30
30
60
ENDCHAR
STARTCHAR C021470
ENCODING 9016
SWIDTH 1000 0
DWIDTH 10 0
BBX 6 7 2 0
BITMAP
7C
6C
6C
7C
CC
CC
7C
ENDCHAR
STARTCHAR C021471
ENCODING 9017
SWIDTH 1000 0
DWIDTH 10 0
BBX 5 8 3 -1
BITMAP
F0
18
18
18
F8
18
30
60
ENDCHAR
STARTCHAR C021472
ENCODING 9018
SWIDTH 1000 0
DWIDTH 10 0
BBX 2 6 5 0
BITMAP
C0
00
00
00
00
C0
ENDCHAR
STARTCHAR C021473
ENCODING 9019
SWIDTH 1000 0
DWIDTH 10 0
BBX 2 6 5 0
BITMAP
C0
00
00
00
00
C0
ENDCHAR
STARTCHAR C021474
ENCODING 9020
SWIDTH 1000 0
DWIDTH 10 0
BBX 8 8 1 -1
BITMAP
03
0E
38
E0
60
38
0E
03
ENDCHAR
STARTCHAR C021475
ENCODING 9021
SWIDTH 1000 0
DWIDTH 10 0
BBX 8 3 2 2
BITMAP
FF
00
FF
ENDCHAR
STARTCHAR C021476
ENCODING 9022
SWIDTH 1000 0
DWIDTH 10 0
BBX 7 7 2 0
BITMAP
E0
38
0C
06
0C
38
E0
ENDCHAR
STARTCHAR C021477
ENCODING 9023
SWIDTH 1000 0
DWIDTH 10 0
BBX 7 9 2 -1
BITMAP
78
CE
06
C6
3C
30
30
00
30
ENDCHAR
STARTCHAR C021500
ENCODING 9024
SWIDTH 1000 0
DWIDTH 10 0
BBX 9 8 1 -1
BITMAP
3E00
6300
FF80
F780
F780
FF00
6000
3C00
ENDCHAR
STARTCHAR C021501
ENCODING 9025
SWIDTH 1000 0
DWIDTH 10 0
BBX 7 6 2 0
BITMAP
38
78
6C
CC
7C
C6
ENDCHAR
STARTCHAR C021502
ENCODING 9026
SWIDTH 1000 0
DWIDTH 10 0
BBX 7 8 2 0
BITMAP
FC
C6
C6
CC
FE
C6
C6
FC
ENDCHAR
STARTCHAR C021503
ENCODING 9027
SWIDTH 1000 0
DWIDTH 10 0
BBX 7 8 2 0
BITMAP
3C
66
C0
C0
C0
C0
66
3C
ENDCHAR
STARTCHAR C021504
ENCODING 9028
SWIDTH 1000 0
DWIDTH 10 0
BBX 8 8 2 0
BITMAP
FC
C6
C3
C3
C3
C3
C6
FC
ENDCHAR
STARTCHAR C021505
ENCODING 9029
SWIDTH 1000 0
DWIDTH 10 0
BBX 5 8 3 0
BITMAP
F8
00
00
00
F8
00
00
F8
ENDCHAR
STARTCHAR C021506
ENCODING 9030
SWIDTH 1000 0
DWIDTH 10 0
BBX 7 8 3 -1
BITMAP
FE
C0
C0
FC
C0
C0
C0
C0
ENDCHAR
STARTCHAR C021507
ENCODING 9031
SWIDTH 1000 0
DWIDTH 10 0
BBX 7 9 2 -1
BITMAP
3C
66
C0
C0
DE
C6
C6
6C
3C
ENDCHAR
STARTCHAR C021510
ENCODING 9032
SWIDTH 1000 0
DWIDTH 10 0
BBX 7 8 2 -1
BITMAP
C6
C6
C6
FE
C6
C6
C6
C6
ENDCHAR
STARTCHAR C021511
ENCODING 9033
SWIDTH 1000 0
DWIDTH 10 0
BBX 2 8 5 -1
BITMAP
C0
C0
C0
C0
C0
C0
C0
C0
ENDCHAR
STARTCHAR C021512
ENCODING 9034
SWIDTH 1000 0
DWIDTH 10 0
BBX 6 7 2 0
BITMAP
0C
0C
0C
CC
CC
6C
78
ENDCHAR
STARTCHAR C021513
ENCODING 9035
SWIDTH 1000 0
DWIDTH 10 0
BBX 7 8 3 -1
BITMAP
CC
D8
F0
E0
F0
D8
CC
06
ENDCHAR
STARTCHAR C021514
ENCODING 9036
SWIDTH 1000 0
DWIDTH 10 0
BBX 7 7 3 0
BITMAP
C0
C0
C0
C0
C0
C0
FE
ENDCHAR
STARTCHAR C021515
ENCODING 9037
SWIDTH 1000 0
DWIDTH 10 0
BBX 9 7 1 0
BITMAP
C180
E380
E780
F780
FD80
DD80
C180
ENDCHAR
STARTCHAR C021516
ENCODING 9038
SWIDTH 1000 0
DWIDTH 10 0
BBX 7 8 2 0
BITMAP
C6
C6
E6
F6
F6
DE
CE
C6
ENDCHAR
STARTCHAR C021517
ENCODING 9039
SWIDTH 1000 0
DWIDTH 10 0
BBX 7 9 2 -1
BITMAP
7C
6C
C6
C6
C6
C6
C6
6C
7C
ENDCHAR
STARTCHAR C021520
ENCODING 9040
SWIDTH 1000 0
DWIDTH 10 0
BBX 8 8 2 0
BITMAP
FE
C3
C3
C3
FE
C0
C0
C0
ENDCHAR
STARTCHAR C021521
ENCODING 9041
SWIDTH 1000 0
DWIDTH 10 0
BBX 7 10 2 -2
BITMAP
78
CC
06
06
06
06
CC
78
D8
0C
ENDCHAR
STARTCHAR C021522
ENCODING 9042
SWIDTH 1000 0
DWIDTH 10 0
BBX 7 8 2 0
BITMAP
FC
C6
C6
C6
FC
CC
C6
C6
ENDCHAR
STARTCHAR C021523
ENCODING 9043
SWIDTH 1000 0
DWIDTH 10 0
BBX 7 9 2 -1
BITMAP
78
CC
C0
C0
78
0E
C6
C6
7C
ENDCHAR
STARTCHAR C021524
ENCODING 9044
SWIDTH 1000 0
DWIDTH 10 0
BBX 8 8 2 0
BITMAP
FF
18
18
18
18
18
18
18
ENDCHAR
STARTCHAR C021525
ENCODING 9045
SWIDTH 1000 0
DWIDTH 10 0
BBX 7 8 2 0
BITMAP
06
C6
C6
C6
C6
C6
EC
78
ENDCHAR
STARTCHAR C021526
ENCODING 9046
SWIDTH 1000 0
DWIDTH 10 0
BBX 7 8 2 0
BITMAP
C6
C6
CC
6C
6C
78
38
38
ENDCHAR
STARTCHAR C021527
ENCODING 9047
SWIDTH 1000 0
DWIDTH 10 0
BBX 9 7 1 0
BITMAP
DD80
DD80
DF00
FF00
7700
7700
3000
ENDCHAR
STARTCHAR C021530
ENCODING 9048
SWIDTH 1000 0
DWIDTH 10 0
BBX 7 7 2 -1
BITMAP
6C
38
30
38
6C
C6
C0
ENDCHAR
STARTCHAR C021531
ENCODING 9049
SWIDTH 1000 0
DWIDTH 10 0
BBX 7 8 2 0
BITMAP
06
CC
D8
78
30
30
30
30
ENDCHAR
STARTCHAR C021532
ENCODING 9050
SWIDTH 1000 0
DWIDTH 10 0
BBX 7 7 2 0
BITMAP
FC
0C
18
30
60
C0
FE
ENDCHAR
STARTCHAR C021533
ENCODING 9051
SWIDTH 1000 0
DWIDTH 10 0
BBX 8 10 3 -2
BITMAP
F8
C0
C0
C0
C0
C0
C0
C0
F8
60
ENDCHAR
STARTCHAR C021534
ENCODING 9052
SWIDTH 1000 0
DWIDTH 10 0
BBX 9 7 1 0
BITMAP
DD80
DF00
FF80
FF00
FF80
7F00
7700
ENDCHAR
STARTCHAR C021535
ENCODING 9053
SWIDTH 1000 0
DWIDTH 10 0
BBX 4 9 3 -1
BITMAP
F0
30
30
30
30
30
30
30
F0
ENDCHAR
STARTCHAR C021536
ENCODING 9054
SWIDTH 1000 0
DWIDTH 10 0
BBX 3 1 4 6
BITMAP
E0
ENDCHAR
STARTCHAR C021537
ENCODING 9055
SWIDTH 1000 0
DWIDTH 10 0
BBX 9 1 1 -2
BITMAP
FF80
ENDCHAR
STARTCHAR C021540
ENCODING 9056
SWIDTH 1000 0
DWIDTH 10 0
BBX 3 2 4 5
BITMAP
C0
60
ENDCHAR
STARTCHAR C021541
ENCODING 9057
SWIDTH 1000 0
DWIDTH 10 0
BBX 5 5 3 0
BITMAP
78
D8
F8
18
F8
ENDCHAR
STARTCHAR C021542
ENCODING 9058
SWIDTH 1000 0
DWIDTH 10 0
BBX 6 7 3 0
BITMAP
C0
C0
F8
CC
CC
CC
F8
ENDCHAR
STARTCHAR C021543
ENCODING 9059
SWIDTH 1000 0
DWIDTH 10 0
BBX 6 5 3 0
BITMAP
78
CC
C0
CC
78
ENDCHAR
STARTCHAR C021544
ENCODING 9060
SWIDTH 1000 0
DWIDTH 10 0
BBX 5 7 3 0
BITMAP
18
18
78
D8
D8
D8
78
ENDCHAR
STARTCHAR C021545
ENCODING 9061
SWIDTH 1000 0
DWIDTH 10 0
BBX 5 5 3 0
BITMAP
70
D8
F8
D8
70
ENDCHAR
STARTCHAR C021546
ENCODING 9062
SWIDTH 1000 0
DWIDTH 10 0
BBX 5 7 3 0
BITMAP
78
60
F0
60
60
60
60
ENDCHAR
STARTCHAR C021547
ENCODING 9063
SWIDTH 1000 0
DWIDTH 10 0
BBX 5 7 3 -2
BITMAP
78
D8
D8
D8
78
18
70
ENDCHAR
STARTCHAR C021550
ENCODING 9064
SWIDTH 1000 0
DWIDTH 10 0
BBX 5 8 3 -1
BITMAP
C0
C0
F8
D8
D8
D8
D8
C0
ENDCHAR
STARTCHAR C021551
ENCODING 9065
SWIDTH 1000 0
DWIDTH 10 0
BBX 0 0 0 0
BITMAP
ENDCHAR
STARTCHAR C021552
ENCODING 9066
SWIDTH 1000 0
DWIDTH 10 0
BBX 3 9 4 -2
BITMAP
60
60
60
60
60
60
60
60
C0
ENDCHAR
STARTCHAR C021553
ENCODING 9067
SWIDTH 1000 0
DWIDTH 10 0
BBX 5 7 3 0
BITMAP
C0
C0
F0
E0
E0
F0
D8
ENDCHAR
STARTCHAR C021554
ENCODING 9068
SWIDTH 1000 0
DWIDTH 10 0
BBX 2 7 5 0
BITMAP
C0
C0
C0
C0
C0
C0
C0
ENDCHAR
STARTCHAR C021555
ENCODING 9069
SWIDTH 1000 0
DWIDTH 10 0
BBX 7 5 2 0
BITMAP
FE
DE
DE
DE
DE
ENDCHAR
STARTCHAR C021556
ENCODING 9070
SWIDTH 1000 0
DWIDTH 10 0
BBX 5 5 3 0
BITMAP
F8
D8
D8
D8
D8
ENDCHAR
STARTCHAR C021557
ENCODING 9071
SWIDTH 1000 0
DWIDTH 10 0
BBX 5 6 3 0
BITMAP
70
D8
D8
D8
D8
70
ENDCHAR
STARTCHAR C021560
ENCODING 9072
SWIDTH 1000 0
DWIDTH 10 0
BBX 5 7 3 -1
BITMAP
C0
F0
D8
D8
D8
F0
E0
ENDCHAR
STARTCHAR C021561
ENCODING 9073
SWIDTH 1000 0
DWIDTH 10 0
BBX 5 6 3 -1
BITMAP
78
D8
D8
D8
78
18
ENDCHAR
STARTCHAR C021562
ENCODING 9074
SWIDTH 1000 0
DWIDTH 10 0
BBX 5 5 4 0
BITMAP
F8
C0
C0
C0
C0
ENDCHAR
STARTCHAR C021563
ENCODING 9075
SWIDTH 1000 0
DWIDTH 10 0
BBX 5 6 3 0
BITMAP
70
D8
60
38
D8
70
ENDCHAR
STARTCHAR C021564
ENCODING 9076
SWIDTH 1000 0
DWIDTH 10 0
BBX 5 7 3 0
BITMAP
60
60
F8
60
60
60
78
ENDCHAR
STARTCHAR C021565
ENCODING 9077
SWIDTH 1000 0
DWIDTH 10 0
BBX 5 6 3 0
BITMAP
D8
D8
D8
D8
D8
78
ENDCHAR
STARTCHAR C021566
ENCODING 9078
SWIDTH 1000 0
DWIDTH 10 0
BBX 5 4 3 1
BITMAP
18
D8
F0
70
ENDCHAR
STARTCHAR C021567
ENCODING 9079
SWIDTH 1000 0
DWIDTH 10 0
BBX 7 5 2 0
BITMAP
38
FE
FE
FC
6C
ENDCHAR
STARTCHAR C021570
ENCODING 9080
SWIDTH 1000 0
DWIDTH 10 0
BBX 5 5 3 0
BITMAP
D8
70
60
70
D8
ENDCHAR
STARTCHAR C021571
ENCODING 9081
SWIDTH 1000 0
DWIDTH 10 0
BBX 5 6 3 -1
BITMAP
D8
F0
F0
70
60
60
ENDCHAR
STARTCHAR C021572
ENCODING 9082
SWIDTH 1000 0
DWIDTH 10 0
BBX 5 6 3 0
BITMAP
F8
30
60
60
C0
F8
ENDCHAR
STARTCHAR C021573
ENCODING 9083
SWIDTH 1000 0
DWIDTH 10 0
BBX 4 9 4 -1
BITMAP
70
60
60
60
E0
60
60
60
70
ENDCHAR
STARTCHAR C021574
ENCODING 9084
SWIDTH 1000 0
DWIDTH 10 0
BBX 0 0 0 0
BITMAP
ENDCHAR
STARTCHAR C021575
ENCODING 9085
SWIDTH 1000 0
DWIDTH 10 0
BBX 4 9 4 -1
BITMAP
E0
60
60
60
70
60
60
60
E0
ENDCHAR
STARTCHAR C021576
ENCODING 9086
SWIDTH 1000 0
DWIDTH 10 0
BBX 6 1 3 3
BITMAP
FC
ENDCHAR
STARTCHAR C021577
ENCODING 9087
SWIDTH 1000 0
DWIDTH 10 0
BBX 0 0 0 0
BITMAP
ENDCHAR
STARTCHAR C022040
ENCODING 9248
SWIDTH 1000 0
DWIDTH 10 0
BBX 1 1 10 4
BITMAP
80
ENDCHAR
STARTCHAR C022041
ENCODING 9249
SWIDTH 1000 0
DWIDTH 10 0
BBX 7 5 2 0
BITMAP
FE
06
06
06
06
ENDCHAR
STARTCHAR C022042
ENCODING 9250
SWIDTH 1000 0
DWIDTH 10 0
BBX 8 5 1 0
BITMAP
FF
1B
1B
1B
1B
ENDCHAR
STARTCHAR C022043
ENCODING 9251
SWIDTH 1000 0
DWIDTH 10 0
BBX 9 5 1 0
BITMAP
FE00
1E00
1E00
1F00
1980
ENDCHAR
STARTCHAR C022044
ENCODING 9252
SWIDTH 1000 0
DWIDTH 10 0
BBX 7 5 2 0
BITMAP
C0
C0
C0
C0
FE
ENDCHAR
STARTCHAR C022045
ENCODING 9253
SWIDTH 1000 0
DWIDTH 10 0
BBX 8 6 2 -1
BITMAP
3E
0C
0C
1E
E6
03
ENDCHAR
STARTCHAR C022046
ENCODING 9254
SWIDTH 1000 0
DWIDTH 10 0
BBX 8 6 2 -1
BITMAP
1E
3F
0E
1E
FE
0E
ENDCHAR
STARTCHAR C022047
ENCODING 9255
SWIDTH 1000 0
DWIDTH 10 0
BBX 7 5 2 0
BITMAP
FE
C0
C0
C0
FE
ENDCHAR
STARTCHAR C022050
ENCODING 9256
SWIDTH 1000 0
DWIDTH 10 0
BBX 8 6 2 -1
BITMAP
FE
18
18
18
3F
E0
ENDCHAR
STARTCHAR C022051
ENCODING 9257
SWIDTH 1000 0
DWIDTH 10 0
BBX 7 5 2 0
BITMAP
FE
06
FE
C0
FE
ENDCHAR
STARTCHAR C022052
ENCODING 9258
SWIDTH 1000 0
DWIDTH 10 0
BBX 8 6 1 -1
BITMAP
FF
1B
FB
C3
C3
70
ENDCHAR
STARTCHAR C022053
ENCODING 9259
SWIDTH 1000 0
DWIDTH 10 0
BBX 8 6 1 -1
BITMAP
FF
1F
FF
CF
CF
70
ENDCHAR
STARTCHAR C022054
ENCODING 9260
SWIDTH 1000 0
DWIDTH 10 0
BBX 8 6 1 -1
BITMAP
FF
1F
FF
CF
CF
70
ENDCHAR
STARTCHAR C022055
ENCODING 9261
SWIDTH 1000 0
DWIDTH 10 0
BBX 9 6 1 -1
BITMAP
F600
3600
F600
CF00
C180
6000
ENDCHAR
STARTCHAR C022056
ENCODING 9262
SWIDTH 1000 0
DWIDTH 10 0
BBX 9 6 1 -1
BITMAP
FF00
1C00
FF00
CC00
CF80
7000
ENDCHAR
STARTCHAR C022057
ENCODING 9263
SWIDTH 1000 0
DWIDTH 10 0
BBX 9 6 1 -1
BITMAP
FF80
3F00
FF00
CF00
DF80
6000
ENDCHAR
STARTCHAR C022060
ENCODING 9264
SWIDTH 1000 0
DWIDTH 10 0
BBX 9 6 1 -1
BITMAP
F700
3F80
F700
CD80
CD80
6700
ENDCHAR
STARTCHAR C022061
ENCODING 9265
SWIDTH 1000 0
DWIDTH 10 0
BBX 7 5 2 0
BITMAP
FE
C6
C6
C6
FE
ENDCHAR
STARTCHAR C022062
ENCODING 9266
SWIDTH 1000 0
DWIDTH 10 0
BBX 7 5 2 0
BITMAP
C6
C6
FE
C6
FE
ENDCHAR
STARTCHAR C022063
ENCODING 9267
SWIDTH 1000 0
DWIDTH 10 0
BBX 7 5 2 0
BITMAP
FE
FE
FE
FE
FE
ENDCHAR
STARTCHAR C022064
ENCODING 9268
SWIDTH 1000 0
DWIDTH 10 0
BBX 8 5 2 0
BITMAP
3C
3C
FC
3E
F3
ENDCHAR
STARTCHAR C022065
ENCODING 9269
SWIDTH 1000 0
DWIDTH 10 0
BBX 6 5 3 0
BITMAP
60
60
E0
F0
1C
ENDCHAR
STARTCHAR C022066
ENCODING 9270
SWIDTH 1000 0
DWIDTH 10 0
BBX 9 6 1 -1
BITMAP
3600
3600
3600
7600
7F00
D980
ENDCHAR
STARTCHAR C022067
ENCODING 9271
SWIDTH 1000 0
DWIDTH 10 0
BBX 7 5 2 0
BITMAP
7C
C6
C6
C6
7C
ENDCHAR
STARTCHAR C022070
ENCODING 9272
SWIDTH 1000 0
DWIDTH 10 0
BBX 7 5 2 0
BITMAP
FE
30
38
78
6C
ENDCHAR
STARTCHAR C022071
ENCODING 9273
SWIDTH 1000 0
DWIDTH 10 0
BBX 8 6 2 -1
BITMAP
FE
6C
6C
FE
C6
03
ENDCHAR
STARTCHAR C022072
ENCODING 9274
SWIDTH 1000 0
DWIDTH 10 0
BBX 7 5 2 0
BITMAP
7C
FE
30
78
CC
ENDCHAR
STARTCHAR C022073
ENCODING 9275
SWIDTH 1000 0
DWIDTH 10 0
BBX 7 5 2 0
BITMAP
FE
06
FE
06
06
ENDCHAR
STARTCHAR C022074
ENCODING 9276
SWIDTH 1000 0
DWIDTH 10 0
BBX 7 5 2 0
BITMAP
FE
C0
FE
C0
FE
ENDCHAR
STARTCHAR C022075
ENCODING 9277
SWIDTH 1000 0
DWIDTH 10 0
BBX 7 5 2 0
BITMAP
FE
6C
6C
78
FE
ENDCHAR
STARTCHAR C022076
ENCODING 9278
SWIDTH 1000 0
DWIDTH 10 0
BBX 7 7 2 -1
BITMAP
7C
00
FE
78
CC
CC
78
ENDCHAR
STARTCHAR C022077
ENCODING 9279
SWIDTH 1000 0
DWIDTH 10 0
BBX 4 9 4 -2
BITMAP
C0
C0
C0
C0
F0
C0
C0
C0
C0
ENDCHAR
STARTCHAR C022100
ENCODING 9280
SWIDTH 1000 0
DWIDTH 10 0
BBX 4 9 3 -2
BITMAP
F0
F0
F0
F0
F0
F0
F0
F0
F0
ENDCHAR
STARTCHAR C022101
ENCODING 9281
SWIDTH 1000 0
DWIDTH 10 0
BBX 4 9 4 -2
BITMAP
C0
C0
C0
F0
C0
F0
C0
C0
C0
ENDCHAR
STARTCHAR C022102
ENCODING 9282
SWIDTH 1000 0
DWIDTH 10 0
BBX 5 9 3 -2
BITMAP
18
D8
D8
F8
D8
F8
D8
D8
D8
ENDCHAR
STARTCHAR C022103
ENCODING 9283
SWIDTH 1000 0
DWIDTH 10 0
BBX 4 9 3 -2
BITMAP
30
30
30
30
F0
30
30
30
30
ENDCHAR
STARTCHAR C022104
ENCODING 9284
SWIDTH 1000 0
DWIDTH 10 0
BBX 6 9 2 -2
BITMAP
0C
3C
3C
3C
FC
3C
3C
3C
3C
ENDCHAR
STARTCHAR C022105
ENCODING 9285
SWIDTH 1000 0
DWIDTH 10 0
BBX 4 9 3 -2
BITMAP
30
30
30
F0
30
F0
30
30
30
ENDCHAR
STARTCHAR C022106
ENCODING 9286
SWIDTH 1000 0
DWIDTH 10 0
BBX 6 9 2 -2
BITMAP
0C
3C
3C
FC
3C
FC
3C
3C
0C
ENDCHAR
STARTCHAR C022107
ENCODING 9287
SWIDTH 1000 0
DWIDTH 10 0
BBX 9 5 1 0
BITMAP
1800
1800
1800
1800
FF80
ENDCHAR
STARTCHAR C022110
ENCODING 9288
SWIDTH 1000 0
DWIDTH 10 0
BBX 9 9 1 -2
BITMAP
0600
3600
3600
3600
3780
FE00
0600
0600
0600
ENDCHAR
STARTCHAR C022111
ENCODING 9289
SWIDTH 1000 0
DWIDTH 10 0
BBX 7 9 2 -2
BITMAP
06
1E
1E
7E
7E
7E
FE
1E
06
ENDCHAR
STARTCHAR C022112
ENCODING 9290
SWIDTH 1000 0
DWIDTH 10 0
BBX 6 9 3 -2
BITMAP
0C
0C
6C
6C
6C
7C
CC
0C
0C
ENDCHAR
STARTCHAR C022113
ENCODING 9291
SWIDTH 1000 0
DWIDTH 10 0
BBX 9 5 1 0
BITMAP
3600
3600
3600
3600
FF80
ENDCHAR
STARTCHAR C022114
ENCODING 9292
SWIDTH 1000 0
DWIDTH 10 0
BBX 9 7 1 -1
BITMAP
FF80
1800
1800
1800
1800
1800
1800
ENDCHAR
STARTCHAR C022115
ENCODING 9293
SWIDTH 1000 0
DWIDTH 10 0
BBX 8 9 1 -2
BITMAP
03
03
FF
1B
1F
1B
1B
1B
03
ENDCHAR
STARTCHAR C022116
ENCODING 9294
SWIDTH 1000 0
DWIDTH 10 0
BBX 8 9 1 -2
BITMAP
07
07
07
FF
3F
37
37
37
03
ENDCHAR
STARTCHAR C022117
ENCODING 9295
SWIDTH 1000 0
DWIDTH 10 0
BBX 8 9 1 -2
BITMAP
03
03
03
FF
1B
1B
1B
1B
03
ENDCHAR
STARTCHAR C022120
ENCODING 9296
SWIDTH 1000 0
DWIDTH 10 0
BBX 9 7 1 -1
BITMAP
FF80
3600
3600
3600
3600
3600
3600
ENDCHAR
STARTCHAR C022121
ENCODING 9297
SWIDTH 1000 0
DWIDTH 10 0
BBX 9 1 1 2
BITMAP
FF80
ENDCHAR
STARTCHAR C022122
ENCODING 9298
SWIDTH 1000 0
DWIDTH 10 0
BBX 7 9 2 -2
BITMAP
06
06
06
06
06
FE
06
06
06
ENDCHAR
STARTCHAR C022123
ENCODING 9299
SWIDTH 1000 0
DWIDTH 10 0
BBX 0 0 0 0
BITMAP
ENDCHAR
STARTCHAR C022124
ENCODING 9300
SWIDTH 1000 0
DWIDTH 10 0
BBX 1 1 10 0
BITMAP
80
ENDCHAR
STARTCHAR C022125
ENCODING 9301
SWIDTH 1000 0
DWIDTH 10 0
BBX 8 5 2 0
BITMAP
18
18
18
18
FF
ENDCHAR
STARTCHAR C022126
ENCODING 9302
SWIDTH 1000 0
DWIDTH 10 0
BBX 8 5 2 0
BITMAP
1F
18
18
18
FF
ENDCHAR
STARTCHAR C022127
ENCODING 9303
SWIDTH 1000 0
DWIDTH 10 0
BBX 8 5 2 0
BITMAP
0C
0C
1C
1E
E3
ENDCHAR
STARTCHAR C022130
ENCODING 9304
SWIDTH 1000 0
DWIDTH 10 0
BBX 7 5 2 0
BITMAP
0C
1C
1C
36
FE
ENDCHAR
STARTCHAR C022131
ENCODING 9305
SWIDTH 1000 0
DWIDTH 10 0
BBX 9 6 1 -1
BITMAP
FF00
3F00
FF00
CF80
FE00
6000
ENDCHAR
STARTCHAR C022132
ENCODING 9306
SWIDTH 1000 0
DWIDTH 10 0
BBX 9 5 1 0
BITMAP
7F00
1C00
FC00
CC00
FF80
ENDCHAR
STARTCHAR C022133
ENCODING 9307
SWIDTH 1000 0
DWIDTH 10 0
BBX 9 6 1 -1
BITMAP
FF00
3F00
FF00
DF80
FF80
6000
ENDCHAR
STARTCHAR C022134
ENCODING 9308
SWIDTH 1000 0
DWIDTH 10 0
BBX 8 6 2 -1
BITMAP
FC
3C
FE
1E
FE
03
ENDCHAR
STARTCHAR C022135
ENCODING 9309
SWIDTH 1000 0
DWIDTH 10 0
BBX 9 6 1 -1
BITMAP
7F80
1F00
FD80
CD80
FF00
6000
ENDCHAR
STARTCHAR C022136
ENCODING 9310
SWIDTH 1000 0
DWIDTH 10 0
BBX 7 5 2 0
BITMAP
FE
3E
3E
3E
FE
ENDCHAR
STARTCHAR C022137
ENCODING 9311
SWIDTH 1000 0
DWIDTH 10 0
BBX 8 5 2 0
BITMAP
FC
3C
3C
3E
F3
ENDCHAR
STARTCHAR C022140
ENCODING 9312
SWIDTH 1000 0
DWIDTH 10 0
BBX 8 5 2 0
BITMAP
FC
3C
3E
3E
FF
ENDCHAR
STARTCHAR C022141
ENCODING 9313
SWIDTH 1000 0
DWIDTH 10 0
BBX 5 8 3 -2
BITMAP
F8
D8
D8
F8
F8
D8
D8
70
ENDCHAR
STARTCHAR C022142
ENCODING 9314
SWIDTH 1000 0
DWIDTH 10 0
BBX 9 5 1 0
BITMAP
DF80
D980
F980
D980
F980
ENDCHAR
STARTCHAR C022143
ENCODING 9315
SWIDTH 1000 0
DWIDTH 10 0
BBX 9 5 1 0
BITMAP
DF00
DC00
FC00
DC00
FF80
ENDCHAR
STARTCHAR C022144
ENCODING 9316
SWIDTH 1000 0
DWIDTH 10 0
BBX 7 5 2 0
BITMAP
7E
7E
FE
7E
F6
ENDCHAR
STARTCHAR C022145
ENCODING 9317
SWIDTH 1000 0
DWIDTH 10 0
BBX 9 5 1 0
BITMAP
FF00
FE00
FE00
FE00
F780
ENDCHAR
STARTCHAR C022146
ENCODING 9318
SWIDTH 1000 0
DWIDTH 10 0
BBX 9 6 1 -1
BITMAP
DF80
DE00
FE00
DF00
FB00
0180
ENDCHAR
STARTCHAR C022147
ENCODING 9319
SWIDTH 1000 0
DWIDTH 10 0
BBX 9 5 1 0
BITMAP
DF80
DC00
FF00
DC00
FF00
ENDCHAR
STARTCHAR C022150
ENCODING 9320
SWIDTH 1000 0
DWIDTH 10 0
BBX 5 8 3 -2
BITMAP
D8
F8
D8
F8
F8
D8
D8
70
ENDCHAR
STARTCHAR C022151
ENCODING 9321
SWIDTH 1000 0
DWIDTH 10 0
BBX 7 9 2 -2
BITMAP
FE
FE
FE
FE
FE
78
6C
6C
38
ENDCHAR
STARTCHAR C022152
ENCODING 9322
SWIDTH 1000 0
DWIDTH 10 0
BBX 7 5 2 0
BITMAP
7E
66
E6
F6
1E
ENDCHAR
STARTCHAR C022153
ENCODING 9323
SWIDTH 1000 0
DWIDTH 10 0
BBX 9 5 1 0
BITMAP
6C00
6C00
6C00
FC00
1F80
ENDCHAR
STARTCHAR C022154
ENCODING 9324
SWIDTH 1000 0
DWIDTH 10 0
BBX 8 5 2 0
BITMAP
7F
78
F8
F8
1F
ENDCHAR
STARTCHAR C022155
ENCODING 9325
SWIDTH 1000 0
DWIDTH 10 0
BBX 8 5 1 0
BITMAP
63
6F
6F
FF
1F
ENDCHAR
STARTCHAR C022156
ENCODING 9326
SWIDTH 1000 0
DWIDTH 10 0
BBX 8 6 2 -1
BITMAP
7F
6C
EC
FE
06
03
ENDCHAR
STARTCHAR C022157
ENCODING 9327
SWIDTH 1000 0
DWIDTH 10 0
BBX 6 5 3 -1
BITMAP
F0
F0
18
F8
0C
ENDCHAR
STARTCHAR C022160
ENCODING 9328
SWIDTH 1000 0
DWIDTH 10 0
BBX 7 5 2 0
BITMAP
FE
3E
3E
3E
FE
ENDCHAR
STARTCHAR C022161
ENCODING 9329
SWIDTH 1000 0
DWIDTH 10 0
BBX 7 7 2 -1
BITMAP
30
30
FC
C6
C6
EE
7C
ENDCHAR
STARTCHAR C022162
ENCODING 9330
SWIDTH 1000 0
DWIDTH 10 0
BBX 8 5 2 0
BITMAP
6C
FC
3C
3E
E3
ENDCHAR
STARTCHAR C022163
ENCODING 9331
SWIDTH 1000 0
DWIDTH 10 0
BBX 8 6 2 -1
BITMAP
6C
FC
3E
3E
FE
03
ENDCHAR
STARTCHAR C022164
ENCODING 9332
SWIDTH 1000 0
DWIDTH 10 0
BBX 7 7 2 -1
BITMAP
FE
60
78
FE
7C
6C
7C
ENDCHAR
STARTCHAR C022165
ENCODING 9333
SWIDTH 1000 0
DWIDTH 10 0
BBX 9 7 1 -1
BITMAP
7700
0000
FF80
FF00
DD80
DD80
F700
ENDCHAR
STARTCHAR C022166
ENCODING 9334
SWIDTH 1000 0
DWIDTH 10 0
BBX 8 7 1 -1
BITMAP
FF
00
00
3C
36
36
3C
ENDCHAR
STARTCHAR C022167
ENCODING 9335
SWIDTH 1000 0
DWIDTH 10 0
BBX 8 9 2 -2
BITMAP
0C
7C
7C
7F
7C
FF
0C
0C
0C
ENDCHAR
STARTCHAR C022170
ENCODING 9336
SWIDTH 1000 0
DWIDTH 10 0
BBX 8 9 1 -2
BITMAP
0F
7F
7F
7F
7F
FF
0F
0F
03
ENDCHAR
STARTCHAR C022171
ENCODING 9337
SWIDTH 1000 0
DWIDTH 10 0
BBX 7 9 2 -2
BITMAP
06
76
76
76
76
FE
06
06
06
ENDCHAR
STARTCHAR C022172
ENCODING 9338
SWIDTH 1000 0
DWIDTH 10 0
BBX 8 9 1 -2
BITMAP
03
03
FF
3B
3F
3F
3B
3B
03
ENDCHAR
STARTCHAR C022173
ENCODING 9339
SWIDTH 1000 0
DWIDTH 10 0
BBX 7 9 2 -2
BITMAP
06
0E
0E
FE
FE
FE
FE
FE
06
ENDCHAR
STARTCHAR C022174
ENCODING 9340
SWIDTH 1000 0
DWIDTH 10 0
BBX 7 9 2 -2
BITMAP
06
06
06
FE
7E
7E
7E
7E
06
ENDCHAR
STARTCHAR C022175
ENCODING 9341
SWIDTH 1000 0
DWIDTH 10 0
BBX 2 2 4 2
BITMAP
C0
C0
ENDCHAR
STARTCHAR C022176
ENCODING 9342
SWIDTH 1000 0
DWIDTH 10 0
BBX 5 9 3 -2
BITMAP
18
18
18
D8
D8
18
18
18
18
ENDCHAR
STARTCHAR C022177
ENCODING 9343
SWIDTH 1000 0
DWIDTH 10 0
BBX 0 0 0 0
BITMAP
ENDCHAR
STARTCHAR C022440
ENCODING 9504
SWIDTH 1000 0
DWIDTH 10 0
BBX 1 6 10 2
BITMAP
80
80
00
00
00
80
ENDCHAR
STARTCHAR C022441
ENCODING 9505
SWIDTH 1000 0
DWIDTH 10 0
BBX 2 7 4 0
BITMAP
C0
00
C0
C0
C0
C0
C0
ENDCHAR
STARTCHAR C022442
ENCODING 9506
SWIDTH 1000 0
DWIDTH 10 0
BBX 5 7 3 0
BITMAP
D8
00
D8
D8
D8
D8
D8
ENDCHAR
STARTCHAR C022443
ENCODING 9507
SWIDTH 1000 0
DWIDTH 10 0
BBX 6 7 2 0
BITMAP
FC
00
FC
FC
FC
FC
FC
ENDCHAR
STARTCHAR C022444
ENCODING 9508
SWIDTH 1000 0
DWIDTH 10 0
BBX 4 4 4 1
BITMAP
C0
F0
F0
60
ENDCHAR
STARTCHAR C022445
ENCODING 9509
SWIDTH 1000 0
DWIDTH 10 0
BBX 4 4 3 1
BITMAP
C0
F0
F0
60
ENDCHAR
STARTCHAR C022446
ENCODING 9510
SWIDTH 1000 0
DWIDTH 10 0
BBX 7 7 2 0
BITMAP
06
00
C6
F6
F6
66
06
ENDCHAR
STARTCHAR C022447
ENCODING 9511
SWIDTH 1000 0
DWIDTH 10 0
BBX 7 7 2 0
BITMAP
1E
00
1E
FE
FE
7E
1E
ENDCHAR
STARTCHAR C022450
ENCODING 9512
SWIDTH 1000 0
DWIDTH 10 0
BBX 8 7 1 0
BITMAP
0F
00
CF
FF
EF
6F
6F
ENDCHAR
STARTCHAR C022451
ENCODING 9513
SWIDTH 1000 0
DWIDTH 10 0
BBX 3 3 5 1
BITMAP
E0
C0
E0
ENDCHAR
STARTCHAR C022452
ENCODING 9514
SWIDTH 1000 0
DWIDTH 10 0
BBX 4 4 3 1
BITMAP
C0
F0
60
70
ENDCHAR
STARTCHAR C022453
ENCODING 9515
SWIDTH 1000 0
DWIDTH 10 0
BBX 0 0 0 0
BITMAP
ENDCHAR
STARTCHAR C022454
ENCODING 9516
SWIDTH 1000 0
DWIDTH 10 0
BBX 0 0 0 0
BITMAP
ENDCHAR
STARTCHAR C022455
ENCODING 9517
SWIDTH 1000 0
DWIDTH 10 0
BBX 0 0 0 0
BITMAP
ENDCHAR
STARTCHAR C022456
ENCODING 9518
SWIDTH 1000 0
DWIDTH 10 0
BBX 0 0 0 0
BITMAP
ENDCHAR
STARTCHAR C022457
ENCODING 9519
SWIDTH 1000 0
DWIDTH 10 0
BBX 1 6 10 2
BITMAP
80
80
00
00
00
80
ENDCHAR
STARTCHAR C022460
ENCODING 9520
SWIDTH 1000 0
DWIDTH 10 0
BBX 0 0 0 0
BITMAP
ENDCHAR
STARTCHAR C022461
ENCODING 9521
SWIDTH 1000 0
DWIDTH 10 0
BBX 5 7 3 0
BITMAP
D8
D8
D8
D8
D8
D8
D8
ENDCHAR
STARTCHAR C022462
ENCODING 9522
SWIDTH 1000 0
DWIDTH 10 0
BBX 7 7 2 0
BITMAP
F6
F6
F6
F6
F6
F6
F6
ENDCHAR
STARTCHAR C022463
ENCODING 9523
SWIDTH 1000 0
DWIDTH 10 0
BBX 7 7 2 0
BITMAP
C6
FC
FC
FC
D8
D8
C0
ENDCHAR
STARTCHAR C022464
ENCODING 9524
SWIDTH 1000 0
DWIDTH 10 0
BBX 5 6 3 1
BITMAP
18
F0
F0
F0
70
60
ENDCHAR
STARTCHAR C022465
ENCODING 9525
SWIDTH 1000 0
DWIDTH 10 0
BBX 7 7 2 0
BITMAP
DE
F6
F6
F6
76
66
06
ENDCHAR
STARTCHAR C022466
ENCODING 9526
SWIDTH 1000 0
DWIDTH 10 0
BBX 8 7 1 0
BITMAP
DF
DF
F7
77
77
37
07
ENDCHAR
STARTCHAR C022467
ENCODING 9527
SWIDTH 1000 0
DWIDTH 10 0
BBX 9 7 1 0
BITMAP
CF80
FF80
FF80
FF80
6F80
6F80
0F80
ENDCHAR
STARTCHAR C022470
ENCODING 9528
SWIDTH 1000 0
DWIDTH 10 0
BBX 6 7 2 0
BITMAP
F0
FC
D8
D8
D8
FC
FC
ENDCHAR
STARTCHAR C022471
ENCODING 9529
SWIDTH 1000 0
DWIDTH 10 0
BBX 5 8 3 -1
BITMAP
C0
F0
70
60
70
F0
F0
18
ENDCHAR
STARTCHAR C022472
ENCODING 9530
SWIDTH 1000 0
DWIDTH 10 0
BBX 0 0 0 0
BITMAP
ENDCHAR
STARTCHAR C022473
ENCODING 9531
SWIDTH 1000 0
DWIDTH 10 0
BBX 0 0 0 0
BITMAP
ENDCHAR
STARTCHAR C022474
ENCODING 9532
SWIDTH 1000 0
DWIDTH 10 0
BBX 0 0 0 0
BITMAP
ENDCHAR
STARTCHAR C022475
ENCODING 9533
SWIDTH 1000 0
DWIDTH 10 0
BBX 0 0 0 0
BITMAP
ENDCHAR
STARTCHAR C022476
ENCODING 9534
SWIDTH 1000 0
DWIDTH 10 0
BBX 1 6 10 2
BITMAP
80
80
00
00
00
80
ENDCHAR
STARTCHAR C022477
ENCODING 9535
SWIDTH 1000 0
DWIDTH 10 0
BBX 0 0 0 0
BITMAP
ENDCHAR
STARTCHAR C022500
ENCODING 9536
SWIDTH 1000 0
DWIDTH 10 0
BBX 1 2 10 -1
BITMAP
80
80
ENDCHAR
STARTCHAR C022501
ENCODING 9537
SWIDTH 1000 0
DWIDTH 10 0
BBX 7 7 2 -1
BITMAP
1C
3C
3C
6C
3C
E6
C6
ENDCHAR
STARTCHAR C022502
ENCODING 9538
SWIDTH 1000 0
DWIDTH 10 0
BBX 7 7 2 0
BITMAP
3C
66
6C
78
CC
CC
F8
ENDCHAR
STARTCHAR C022503
ENCODING 9539
SWIDTH 1000 0
DWIDTH 10 0
BBX 7 7 2 0
BITMAP
3E
60
60
60
60
C0
C0
ENDCHAR
STARTCHAR C022504
ENCODING 9540
SWIDTH 1000 0
DWIDTH 10 0
BBX 7 7 3 0
BITMAP
0C
3C
3C
6C
CC
CC
FE
ENDCHAR
STARTCHAR C022505
ENCODING 9541
SWIDTH 1000 0
DWIDTH 10 0
BBX 7 7 2 0
BITMAP
3E
60
60
7C
C0
C0
F8
ENDCHAR
STARTCHAR C022506
ENCODING 9542
SWIDTH 1000 0
DWIDTH 10 0
BBX 7 7 2 0
BITMAP
7E
0C
18
30
60
60
FC
ENDCHAR
STARTCHAR C022507
ENCODING 9543
SWIDTH 1000 0
DWIDTH 10 0
BBX 7 6 2 1
BITMAP
66
66
CC
7C
CC
CC
ENDCHAR
STARTCHAR C022510
ENCODING 9544
SWIDTH 1000 0
DWIDTH 10 0
BBX 7 8 2 -1
BITMAP
3C
66
C6
FE
CC
CC
D8
70
ENDCHAR
STARTCHAR C022511
ENCODING 9545
SWIDTH 1000 0
DWIDTH 10 0
BBX 3 7 4 0
BITMAP
60
60
C0
C0
C0
C0
C0
ENDCHAR
STARTCHAR C022512
ENCODING 9546
SWIDTH 1000 0
DWIDTH 10 0
BBX 5 6 3 0
BITMAP
F8
E0
E0
F0
30
18
ENDCHAR
STARTCHAR C022513
ENCODING 9547
SWIDTH 1000 0
DWIDTH 10 0
BBX 5 7 3 0
BITMAP
30
70
78
D8
D8
18
18
ENDCHAR
STARTCHAR C022514
ENCODING 9548
SWIDTH 1000 0
DWIDTH 10 0
BBX 7 7 2 0
BITMAP
66
66
EE
FE
FC
3C
30
ENDCHAR
STARTCHAR C022515
ENCODING 9549
SWIDTH 1000 0
DWIDTH 10 0
BBX 7 7 2 0
BITMAP
66
7C
7C
FC
FC
DC
C0
ENDCHAR
STARTCHAR C022516
ENCODING 9550
SWIDTH 1000 0
DWIDTH 10 0
BBX 6 7 2 0
BITMAP
7C
00
00
7C
00
00
FC
ENDCHAR
STARTCHAR C022517
ENCODING 9551
SWIDTH 1000 0
DWIDTH 10 0
BBX 7 8 2 -1
BITMAP
3C
EC
C6
CC
CC
CC
78
30
ENDCHAR
STARTCHAR C022520
ENCODING 9552
SWIDTH 1000 0
DWIDTH 10 0
BBX 7 7 2 0
BITMAP
7E
6C
CC
CC
CC
CC
CC
ENDCHAR
STARTCHAR C022521
ENCODING 9553
SWIDTH 1000 0
DWIDTH 10 0
BBX 6 6 2 1
BITMAP
3C
6C
6C
7C
C0
C0
ENDCHAR
STARTCHAR C022522
ENCODING 9554
SWIDTH 1000 0
DWIDTH 10 0
BBX 6 7 3 0
BITMAP
FC
60
60
30
60
C0
F8
ENDCHAR
STARTCHAR C022523
ENCODING 9555
SWIDTH 1000 0
DWIDTH 10 0
BBX 5 6 3 1
BITMAP
F8
60
60
60
60
60
ENDCHAR
STARTCHAR C022524
ENCODING 9556
SWIDTH 1000 0
DWIDTH 10 0
BBX 5 5 3 1
BITMAP
D8
F0
60
60
60
ENDCHAR
STARTCHAR C022525
ENCODING 9557
SWIDTH 1000 0
DWIDTH 10 0
BBX 7 8 2 0
BITMAP
18
7C
F6
F6
F6
F6
7C
30
ENDCHAR
STARTCHAR C022526
ENCODING 9558
SWIDTH 1000 0
DWIDTH 10 0
BBX 6 7 2 0
BITMAP
0C
78
38
30
78
D8
C0
ENDCHAR
STARTCHAR C022527
ENCODING 9559
SWIDTH 1000 0
DWIDTH 10 0
BBX 7 6 2 1
BITMAP
C6
F6
F6
FC
7C
60
ENDCHAR
STARTCHAR C022530
ENCODING 9560
SWIDTH 1000 0
DWIDTH 10 0
BBX 7 7 2 0
BITMAP
7C
C6
C6
C6
CC
78
FC
ENDCHAR
STARTCHAR C022531
ENCODING 9561
SWIDTH 1000 0
DWIDTH 10 0
BBX 0 0 0 0
BITMAP
ENDCHAR
STARTCHAR C022532
ENCODING 9562
SWIDTH 1000 0
DWIDTH 10 0
BBX 0 0 0 0
BITMAP
ENDCHAR
STARTCHAR C022533
ENCODING 9563
SWIDTH 1000 0
DWIDTH 10 0
BBX 0 0 0 0
BITMAP
ENDCHAR
STARTCHAR C022534
ENCODING 9564
SWIDTH 1000 0
DWIDTH 10 0
BBX 1 6 10 2
BITMAP
80
80
00
00
00
80
ENDCHAR
STARTCHAR C022535
ENCODING 9565
SWIDTH 1000 0
DWIDTH 10 0
BBX 0 0 0 0
BITMAP
ENDCHAR
STARTCHAR C022536
ENCODING 9566
SWIDTH 1000 0
DWIDTH 10 0
BBX 0 0 0 0
BITMAP
ENDCHAR
STARTCHAR C022537
ENCODING 9567
SWIDTH 1000 0
DWIDTH 10 0
BBX 0 0 0 0
BITMAP
ENDCHAR
STARTCHAR C022540
ENCODING 9568
SWIDTH 1000 0
DWIDTH 10 0
BBX 1 5 10 0
BITMAP
80
80
00
00
80
ENDCHAR
STARTCHAR C022541
ENCODING 9569
SWIDTH 1000 0
DWIDTH 10 0
BBX 5 6 3 0
BITMAP
78
D8
D8
30
30
E0
ENDCHAR
STARTCHAR C022542
ENCODING 9570
SWIDTH 1000 0
DWIDTH 10 0
BBX 5 7 3 0
BITMAP
F8
D8
70
F0
18
38
F0
ENDCHAR
STARTCHAR C022543
ENCODING 9571
SWIDTH 1000 0
DWIDTH 10 0
BBX 5 8 3 -2
BITMAP
18
F0
F0
E0
E0
E0
C0
C0
ENDCHAR
STARTCHAR C022544
ENCODING 9572
SWIDTH 1000 0
DWIDTH 10 0
BBX 5 8 3 0
BITMAP
78
60
30
F0
D8
18
30
E0
ENDCHAR
STARTCHAR C022545
ENCODING 9573
SWIDTH 1000 0
DWIDTH 10 0
BBX 5 6 3 0
BITMAP
78
D8
70
C0
D8
70
ENDCHAR
STARTCHAR C022546
ENCODING 9574
SWIDTH 1000 0
DWIDTH 10 0
BBX 8 10 3 -2
BITMAP
78
30
30
60
C0
C0
00
E0
30
70
ENDCHAR
STARTCHAR C022547
ENCODING 9575
SWIDTH 1000 0
DWIDTH 10 0
BBX 5 8 3 -2
BITMAP
F0
F8
D8
F0
F0
30
30
30
ENDCHAR
STARTCHAR C022550
ENCODING 9576
SWIDTH 1000 0
DWIDTH 10 0
BBX 5 8 3 0
BITMAP
78
D8
D8
F8
18
18
F0
F0
ENDCHAR
STARTCHAR C022551
ENCODING 9577
SWIDTH 1000 0
DWIDTH 10 0
BBX 2 5 4 0
BITMAP
C0
C0
C0
C0
C0
ENDCHAR
STARTCHAR C022552
ENCODING 9578
SWIDTH 1000 0
DWIDTH 10 0
BBX 5 5 3 0
BITMAP
18
F0
E0
F0
C0
ENDCHAR
STARTCHAR C022553
ENCODING 9579
SWIDTH 1000 0
DWIDTH 10 0
BBX 5 7 3 0
BITMAP
60
30
70
F0
F0
30
18
ENDCHAR
STARTCHAR C022554
ENCODING 9580
SWIDTH 1000 0
DWIDTH 10 0
BBX 5 5 3 0
BITMAP
18
D8
F0
F0
F8
ENDCHAR
STARTCHAR C022555
ENCODING 9581
SWIDTH 1000 0
DWIDTH 10 0
BBX 5 6 3 0
BITMAP
18
F0
F0
E0
E0
E0
ENDCHAR
STARTCHAR C022556
ENCODING 9582
SWIDTH 1000 0
DWIDTH 10 0
BBX 5 9 3 -1
BITMAP
F8
60
C0
60
C0
C0
C0
70
30
ENDCHAR
STARTCHAR C022557
ENCODING 9583
SWIDTH 1000 0
DWIDTH 10 0
BBX 5 6 3 -1
BITMAP
F8
D8
18
F0
F0
60
ENDCHAR
STARTCHAR C022560
ENCODING 9584
SWIDTH 1000 0
DWIDTH 10 0
BBX 5 6 3 0
BITMAP
F8
D8
F0
F0
30
30
ENDCHAR
STARTCHAR C022561
ENCODING 9585
SWIDTH 1000 0
DWIDTH 10 0
BBX 5 5 3 0
BITMAP
78
D8
D8
D8
F0
ENDCHAR
STARTCHAR C022562
ENCODING 9586
SWIDTH 1000 0
DWIDTH 10 0
BBX 6 7 3 -1
BITMAP
7C
D8
D8
18
F0
F0
60
ENDCHAR
STARTCHAR C022563
ENCODING 9587
SWIDTH 1000 0
DWIDTH 10 0
BBX 5 6 3 0
BITMAP
F8
60
60
60
60
70
ENDCHAR
STARTCHAR C022564
ENCODING 9588
SWIDTH 1000 0
DWIDTH 10 0
BBX 5 6 3 0
BITMAP
18
D8
F0
F0
F0
F0
ENDCHAR
STARTCHAR C022565
ENCODING 9589
SWIDTH 1000 0
DWIDTH 10 0
BBX 6 6 3 -1
BITMAP
3C
EC
EC
EC
78
60
ENDCHAR
STARTCHAR C022566
ENCODING 9590
SWIDTH 1000 0
DWIDTH 10 0
BBX 5 7 3 -1
BITMAP
D8
70
70
60
60
F0
F0
ENDCHAR
STARTCHAR C022567
ENCODING 9591
SWIDTH 1000 0
DWIDTH 10 0
BBX 7 7 2 -1
BITMAP
1E
F6
FC
FC
FC
7C
30
ENDCHAR
STARTCHAR C022570
ENCODING 9592
SWIDTH 1000 0
DWIDTH 10 0
BBX 6 5 2 0
BITMAP
60
CC
FC
FC
7C
ENDCHAR
STARTCHAR C022571
ENCODING 9593
SWIDTH 1000 0
DWIDTH 10 0
BBX 0 0 0 0
BITMAP
ENDCHAR
STARTCHAR C022572
ENCODING 9594
SWIDTH 1000 0
DWIDTH 10 0
BBX 1 6 10 2
BITMAP
80
80
00
00
00
80
ENDCHAR
STARTCHAR C022573
ENCODING 9595
SWIDTH 1000 0
DWIDTH 10 0
BBX 0 0 0 0
BITMAP
ENDCHAR
STARTCHAR C022574
ENCODING 9596
SWIDTH 1000 0
DWIDTH 10 0
BBX 0 0 0 0
BITMAP
ENDCHAR
STARTCHAR C022575
ENCODING 9597
SWIDTH 1000 0
DWIDTH 10 0
BBX 0 0 0 0
BITMAP
ENDCHAR
STARTCHAR C022576
ENCODING 9598
SWIDTH 1000 0
DWIDTH 10 0
BBX 0 0 0 0
BITMAP
ENDCHAR
STARTCHAR C022577
ENCODING 9599
SWIDTH 1000 0
DWIDTH 10 0
BBX 0 0 0 0
BITMAP
ENDCHAR
STARTCHAR C023040
ENCODING 9760
SWIDTH 1000 0
DWIDTH 10 0
BBX 1 1 10 3
BITMAP
80
ENDCHAR
STARTCHAR C023041
ENCODING 9761
SWIDTH 1000 0
DWIDTH 10 0
BBX 11 10 0 -2
BITMAP
0020
0020
0020
0020
FFE0
0020
0020
0020
0020
0020
ENDCHAR
STARTCHAR C023042
ENCODING 9762
SWIDTH 1000 0
DWIDTH 10 0
BBX 6 10 5 -2
BITMAP
C0
C0
C0
C0
C0
C0
C0
C0
C0
C0
ENDCHAR
STARTCHAR C023043
ENCODING 9763
SWIDTH 1000 0
DWIDTH 10 0
BBX 5 6 5 -2
BITMAP
F8
C0
C0
C0
C0
C0
ENDCHAR
STARTCHAR C023044
ENCODING 9764
SWIDTH 1000 0
DWIDTH 10 0
BBX 11 10 0 -2
BITMAP
0020
0020
0020
0000
FE00
0600
0600
0620
0600
0600
ENDCHAR
STARTCHAR C023045
ENCODING 9765
SWIDTH 1000 0
DWIDTH 10 0
BBX 11 5 0 3
BITMAP
0620
0620
0620
0620
FE20
ENDCHAR
STARTCHAR C023046
ENCODING 9766
SWIDTH 1000 0
DWIDTH 10 0
BBX 5 5 5 3
BITMAP
C0
C0
C0
C0
F8
ENDCHAR
STARTCHAR C023047
ENCODING 9767
SWIDTH 1000 0
DWIDTH 10 0
BBX 6 10 5 -2
BITMAP
C0
C0
C0
C0
F8
C0
C0
C0
C0
C0
ENDCHAR
STARTCHAR C023050
ENCODING 9768
SWIDTH 1000 0
DWIDTH 10 0
BBX 11 6 0 -2
BITMAP
FFE0
0600
0600
0600
0600
0600
ENDCHAR
STARTCHAR C023051
ENCODING 9769
SWIDTH 1000 0
DWIDTH 10 0
BBX 11 10 0 -2
BITMAP
0620
0620
0600
0600
FE00
0620
0600
0600
0600
0600
ENDCHAR
STARTCHAR C023052
ENCODING 9770
SWIDTH 1000 0
DWIDTH 10 0
BBX 11 5 0 3
BITMAP
0600
0600
0600
0600
FFE0
ENDCHAR
STARTCHAR C023053
ENCODING 9771
SWIDTH 1000 0
DWIDTH 10 0
BBX 11 10 0 -2
BITMAP
0600
0600
0600
0600
FFE0
0600
0600
0600
0600
0600
ENDCHAR
STARTCHAR C023054
ENCODING 9772
SWIDTH 1000 0
DWIDTH 10 0
BBX 11 10 0 -2
BITMAP
0020
0020
0020
0020
FFE0
0020
0020
0020
0020
0020
ENDCHAR
STARTCHAR C023055
ENCODING 9773
SWIDTH 1000 0
DWIDTH 10 0
BBX 6 10 5 -2
BITMAP
C0
C0
C0
C0
C0
C0
C0
C0
C0
C0
ENDCHAR
STARTCHAR C023056
ENCODING 9774
SWIDTH 1000 0
DWIDTH 10 0
BBX 5 6 5 -2
BITMAP
F8
C0
C0
C0
C0
C0
ENDCHAR
STARTCHAR C023057
ENCODING 9775
SWIDTH 1000 0
DWIDTH 10 0
BBX 11 6 0 -2
BITMAP
FE20
0600
0600
0600
0600
0600
ENDCHAR
STARTCHAR C023060
ENCODING 9776
SWIDTH 1000 0
DWIDTH 10 0
BBX 11 5 0 3
BITMAP
0620
0620
0620
0620
FE20
ENDCHAR
STARTCHAR C023061
ENCODING 9777
SWIDTH 1000 0
DWIDTH 10 0
BBX 5 5 5 3
BITMAP
C0
C0
C0
C0
F8
ENDCHAR
STARTCHAR C023062
ENCODING 9778
SWIDTH 1000 0
DWIDTH 10 0
BBX 6 10 5 -2
BITMAP
C0
C0
C0
C0
F8
C0
C0
C0
C0
C0
ENDCHAR
STARTCHAR C023063
ENCODING 9779
SWIDTH 1000 0
DWIDTH 10 0
BBX 11 10 0 -2
BITMAP
0020
0020
0020
0000
FFC0
0600
0600
0620
0600
0600
ENDCHAR
STARTCHAR C023064
ENCODING 9780
SWIDTH 1000 0
DWIDTH 10 0
BBX 11 10 0 -2
BITMAP
0600
0600
0600
0600
FE20
0600
0600
0600
0600
0600
ENDCHAR
STARTCHAR C023065
ENCODING 9781
SWIDTH 1000 0
DWIDTH 10 0
BBX 11 5 0 3
BITMAP
0600
0600
0600
0600
FFE0
ENDCHAR
STARTCHAR C023066
ENCODING 9782
SWIDTH 1000 0
DWIDTH 10 0
BBX 11 10 0 -2
BITMAP
0620
0620
0620
0620
FFE0
0620
0620
0620
0620
0620
ENDCHAR
STARTCHAR C023067
ENCODING 9783
SWIDTH 1000 0
DWIDTH 10 0
BBX 6 10 5 -2
BITMAP
C0
C0
C0
C0
F8
C0
C0
C0
C0
C0
ENDCHAR
STARTCHAR C023070
ENCODING 9784
SWIDTH 1000 0
DWIDTH 10 0
BBX 11 10 0 -2
BITMAP
0020
0020
0000
0000
FFC0
0620
0600
0600
0600
0600
ENDCHAR
STARTCHAR C023071
ENCODING 9785
SWIDTH 1000 0
DWIDTH 10 0
BBX 11 10 0 -2
BITMAP
0600
0600
0600
0600
FE20
0600
0600
0600
0600
0600
ENDCHAR
STARTCHAR C023072
ENCODING 9786
SWIDTH 1000 0
DWIDTH 10 0
BBX 11 5 0 3
BITMAP
0600
0600
0600
0600
FFE0
ENDCHAR
STARTCHAR C023073
ENCODING 9787
SWIDTH 1000 0
DWIDTH 10 0
BBX 11 10 0 -2
BITMAP
0620
0620
0620
0620
FFE0
0620
0620
0620
0620
0620
ENDCHAR
STARTCHAR C023074
ENCODING 9788
SWIDTH 1000 0
DWIDTH 10 0
BBX 6 10 5 -2
BITMAP
C0
C0
C0
C0
F8
C0
C0
C0
C0
C0
ENDCHAR
STARTCHAR C023075
ENCODING 9789
SWIDTH 1000 0
DWIDTH 10 0
BBX 10 6 0 -2
BITMAP
FFC0
0600
0600
0600
0600
0600
ENDCHAR
STARTCHAR C023076
ENCODING 9790
SWIDTH 1000 0
DWIDTH 10 0
BBX 11 10 0 -2
BITMAP
0600
0600
0600
0600
FE20
0600
0600
0600
0600
0600
ENDCHAR
STARTCHAR C023077
ENCODING 9791
SWIDTH 1000 0
DWIDTH 10 0
BBX 11 5 0 3
BITMAP
0600
0600
0600
0600
FFE0
ENDCHAR
STARTCHAR C023100
ENCODING 9792
SWIDTH 1000 0
DWIDTH 10 0
BBX 11 10 0 -2
BITMAP
0600
0600
0600
0600
FFE0
0600
0600
0600
0600
0600
ENDCHAR
STARTCHAR C023101
ENCODING 9793
SWIDTH 1000 0
DWIDTH 10 0
BBX 11 6 0 -2
BITMAP
FE20
0600
0600
0600
0600
0600
ENDCHAR
STARTCHAR C023102
ENCODING 9794
SWIDTH 1000 0
DWIDTH 10 0
BBX 11 10 0 -2
BITMAP
0020
0020
0020
0000
FE00
0600
0600
0620
0600
0600
ENDCHAR
STARTCHAR C023103
ENCODING 9795
SWIDTH 1000 0
DWIDTH 10 0
BBX 11 5 0 3
BITMAP
0600
0600
0600
0600
FE20
ENDCHAR
STARTCHAR C023104
ENCODING 9796
SWIDTH 1000 0
DWIDTH 10 0
BBX 11 5 0 3
BITMAP
0620
0620
0620
0620
FE20
ENDCHAR
STARTCHAR C023105
ENCODING 9797
SWIDTH 1000 0
DWIDTH 10 0
BBX 5 5 5 3
BITMAP
C0
C0
C0
C0
F8
ENDCHAR
STARTCHAR C023106
ENCODING 9798
SWIDTH 1000 0
DWIDTH 10 0
BBX 5 5 5 3
BITMAP
C0
C0
C0
C0
F8
ENDCHAR
STARTCHAR C023107
ENCODING 9799
SWIDTH 1000 0
DWIDTH 10 0
BBX 5 6 5 -2
BITMAP
F8
C0
C0
C0
C0
C0
ENDCHAR
STARTCHAR C023110
ENCODING 9800
SWIDTH 1000 0
DWIDTH 10 0
BBX 5 6 5 -2
BITMAP
F8
C0
C0
C0
C0
C0
ENDCHAR
STARTCHAR C023111
ENCODING 9801
SWIDTH 1000 0
DWIDTH 10 0
BBX 6 10 5 -2
BITMAP
C0
C0
C0
C0
F8
C0
C0
C0
C0
C0
ENDCHAR
STARTCHAR C023112
ENCODING 9802
SWIDTH 1000 0
DWIDTH 10 0
BBX 6 10 5 -2
BITMAP
C0
C0
C0
C0
F8
C0
C0
C0
C0
C0
ENDCHAR
STARTCHAR C023113
ENCODING 9803
SWIDTH 1000 0
DWIDTH 10 0
BBX 6 10 5 -2
BITMAP
C0
C0
C0
C0
F8
C0
C0
C0
C0
C0
ENDCHAR
STARTCHAR C023114
ENCODING 9804
SWIDTH 1000 0
DWIDTH 10 0
BBX 6 10 5 -2
BITMAP
C0
C0
C0
C0
F8
C0
C0
C0
C0
C0
ENDCHAR
STARTCHAR C023115
ENCODING 9805
SWIDTH 1000 0
DWIDTH 10 0
BBX 11 10 0 -2
BITMAP
0600
0600
0600
0600
FE20
0600
0600
0600
0600
0600
ENDCHAR
STARTCHAR C023116
ENCODING 9806
SWIDTH 1000 0
DWIDTH 10 0
BBX 11 10 0 -2
BITMAP
0600
0600
0600
0600
FE20
0600
0600
0600
0600
0600
ENDCHAR
STARTCHAR C023117
ENCODING 9807
SWIDTH 1000 0
DWIDTH 10 0
BBX 11 10 0 -2
BITMAP
0600
0600
0600
0600
FE20
0600
0600
0600
0600
0600
ENDCHAR
STARTCHAR C023120
ENCODING 9808
SWIDTH 1000 0
DWIDTH 10 0
BBX 11 10 0 -2
BITMAP
0600
0600
0600
0600
FE20
0600
0600
0600
0600
0600
ENDCHAR
STARTCHAR C023121
ENCODING 9809
SWIDTH 1000 0
DWIDTH 10 0
BBX 11 10 0 -2
BITMAP
0020
0020
0020
0000
FFC0
0600
0600
0620
0600
0600
ENDCHAR
STARTCHAR C023122
ENCODING 9810
SWIDTH 1000 0
DWIDTH 10 0
BBX 11 6 0 -2
BITMAP
FFE0
0600
0600
0600
0600
0600
ENDCHAR
STARTCHAR C023123
ENCODING 9811
SWIDTH 1000 0
DWIDTH 10 0
BBX 11 6 0 -2
BITMAP
FFE0
0600
0600
0600
0600
0600
ENDCHAR
STARTCHAR C023124
ENCODING 9812
SWIDTH 1000 0
DWIDTH 10 0
BBX 11 6 0 -2
BITMAP
FFE0
0600
0600
0600
0600
0600
ENDCHAR
STARTCHAR C023125
ENCODING 9813
SWIDTH 1000 0
DWIDTH 10 0
BBX 11 5 0 3
BITMAP
0600
0600
0600
0600
FFE0
ENDCHAR
STARTCHAR C023126
ENCODING 9814
SWIDTH 1000 0
DWIDTH 10 0
BBX 11 6 0 2
BITMAP
0620
0620
0600
0600
FFC0
0020
ENDCHAR
STARTCHAR C023127
ENCODING 9815
SWIDTH 1000 0
DWIDTH 10 0
BBX 11 5 0 3
BITMAP
0600
0600
0600
0600
FFE0
ENDCHAR
STARTCHAR C023130
ENCODING 9816
SWIDTH 1000 0
DWIDTH 10 0
BBX 11 5 0 3
BITMAP
0600
0600
0600
0600
FFE0
ENDCHAR
STARTCHAR C023131
ENCODING 9817
SWIDTH 1000 0
DWIDTH 10 0
BBX 11 10 0 -2
BITMAP
0600
0600
0600
0600
FFE0
0600
0600
0600
0600
0600
ENDCHAR
STARTCHAR C023132
ENCODING 9818
SWIDTH 1000 0
DWIDTH 10 0
BBX 11 10 0 -2
BITMAP
0600
0600
0600
0600
FFE0
0600
0600
0600
0600
0600
ENDCHAR
STARTCHAR C023133
ENCODING 9819
SWIDTH 1000 0
DWIDTH 10 0
BBX 11 10 0 -2
BITMAP
0600
0600
0600
0600
FFC0
0600
0600
0600
0600
0600
ENDCHAR
STARTCHAR C023134
ENCODING 9820
SWIDTH 1000 0
DWIDTH 10 0
BBX 11 10 0 -2
BITMAP
0600
0600
0600
0600
FFE0
0600
0600
0600
0600
0600
ENDCHAR
STARTCHAR C023135
ENCODING 9821
SWIDTH 1000 0
DWIDTH 10 0
BBX 11 10 0 -2
BITMAP
0600
0600
0600
0600
FFE0
0600
0600
0600
0600
0600
ENDCHAR
STARTCHAR C023136
ENCODING 9822
SWIDTH 1000 0
DWIDTH 10 0
BBX 11 10 0 -2
BITMAP
0600
0600
0600
0600
FFE0
0600
0600
0600
0600
0600
ENDCHAR
STARTCHAR C023137
ENCODING 9823
SWIDTH 1000 0
DWIDTH 10 0
BBX 11 10 0 -2
BITMAP
0600
0600
0600
0600
FFE0
0600
0600
0600
0600
0600
ENDCHAR
STARTCHAR C023140
ENCODING 9824
SWIDTH 1000 0
DWIDTH 10 0
BBX 11 10 0 -2
BITMAP
0620
0620
0620
0600
FFC0
0600
0600
0620
0600
0600
ENDCHAR
STARTCHAR C023141
ENCODING 9825
SWIDTH 1000 0
DWIDTH 10 0
BBX 11 10 0 -2
BITMAP
0600
0600
0600
0600
FFE0
0600
0600
0600
0600
0600
ENDCHAR
STARTCHAR C023142
ENCODING 9826
SWIDTH 1000 0
DWIDTH 10 0
BBX 11 10 0 -2
BITMAP
0600
0600
0600
0600
FFE0
0600
0600
0600
0600
0600
ENDCHAR
STARTCHAR C023143
ENCODING 9827
SWIDTH 1000 0
DWIDTH 10 0
BBX 11 10 0 -2
BITMAP
0600
0600
0600
0600
FFE0
0600
0600
0600
0600
0600
ENDCHAR
STARTCHAR C023144
ENCODING 9828
SWIDTH 1000 0
DWIDTH 10 0
BBX 11 10 0 -2
BITMAP
0600
0600
0600
0600
FFC0
0600
0600
0600
0600
0600
ENDCHAR
STARTCHAR C023145
ENCODING 9829
SWIDTH 1000 0
DWIDTH 10 0
BBX 1 6 10 2
BITMAP
80
80
00
00
00
80
ENDCHAR
STARTCHAR C023146
ENCODING 9830
SWIDTH 1000 0
DWIDTH 10 0
BBX 0 0 0 0
BITMAP
ENDCHAR
STARTCHAR C023147
ENCODING 9831
SWIDTH 1000 0
DWIDTH 10 0
BBX 0 0 0 0
BITMAP
ENDCHAR
STARTCHAR C023150
ENCODING 9832
SWIDTH 1000 0
DWIDTH 10 0
BBX 0 0 0 0
BITMAP
ENDCHAR
STARTCHAR C023151
ENCODING 9833
SWIDTH 1000 0
DWIDTH 10 0
BBX 0 0 0 0
BITMAP
ENDCHAR
STARTCHAR C023152
ENCODING 9834
SWIDTH 1000 0
DWIDTH 10 0
BBX 0 0 0 0
BITMAP
ENDCHAR
STARTCHAR C023153
ENCODING 9835
SWIDTH 1000 0
DWIDTH 10 0
BBX 0 0 0 0
BITMAP
ENDCHAR
STARTCHAR C023154
ENCODING 9836
SWIDTH 1000 0
DWIDTH 10 0
BBX 0 0 0 0
BITMAP
ENDCHAR
STARTCHAR C023155
ENCODING 9837
SWIDTH 1000 0
DWIDTH 10 0
BBX 0 0 0 0
BITMAP
ENDCHAR
STARTCHAR C023156
ENCODING 9838
SWIDTH 1000 0
DWIDTH 10 0
BBX 0 0 0 0
BITMAP
ENDCHAR
STARTCHAR C023157
ENCODING 9839
SWIDTH 1000 0
DWIDTH 10 0
BBX 1 8 10 0
BITMAP
80
80
80
00
00
00
00
80
ENDCHAR
STARTCHAR C023160
ENCODING 9840
SWIDTH 1000 0
DWIDTH 10 0
BBX 0 0 0 0
BITMAP
ENDCHAR
STARTCHAR C023161
ENCODING 9841
SWIDTH 1000 0
DWIDTH 10 0
BBX 0 0 0 0
BITMAP
ENDCHAR
STARTCHAR C023162
ENCODING 9842
SWIDTH 1000 0
DWIDTH 10 0
BBX 0 0 0 0
BITMAP
ENDCHAR
STARTCHAR C023163
ENCODING 9843
SWIDTH 1000 0
DWIDTH 10 0
BBX 0 0 0 0
BITMAP
ENDCHAR
STARTCHAR C023164
ENCODING 9844
SWIDTH 1000 0
DWIDTH 10 0
BBX 1 6 10 2
BITMAP
80
80
00
00
00
80
ENDCHAR
STARTCHAR C023165
ENCODING 9845
SWIDTH 1000 0
DWIDTH 10 0
BBX 0 0 0 0
BITMAP
ENDCHAR
STARTCHAR C023166
ENCODING 9846
SWIDTH 1000 0
DWIDTH 10 0
BBX 0 0 0 0
BITMAP
ENDCHAR
STARTCHAR C023167
ENCODING 9847
SWIDTH 1000 0
DWIDTH 10 0
BBX 0 0 0 0
BITMAP
ENDCHAR
STARTCHAR C023170
ENCODING 9848
SWIDTH 1000 0
DWIDTH 10 0
BBX 0 0 0 0
BITMAP
ENDCHAR
STARTCHAR C023171
ENCODING 9849
SWIDTH 1000 0
DWIDTH 10 0
BBX 0 0 0 0
BITMAP
ENDCHAR
STARTCHAR C023172
ENCODING 9850
SWIDTH 1000 0
DWIDTH 10 0
BBX 0 0 0 0
BITMAP
ENDCHAR
STARTCHAR C023173
ENCODING 9851
SWIDTH 1000 0
DWIDTH 10 0
BBX 0 0 0 0
BITMAP
ENDCHAR
STARTCHAR C023174
ENCODING 9852
SWIDTH 1000 0
DWIDTH 10 0
BBX 0 0 0 0
BITMAP
ENDCHAR
STARTCHAR C023175
ENCODING 9853
SWIDTH 1000 0
DWIDTH 10 0
BBX 0 0 0 0
BITMAP
ENDCHAR
STARTCHAR C023176
ENCODING 9854
SWIDTH 1000 0
DWIDTH 10 0
BBX 1 8 10 0
BITMAP
80
80
80
00
00
00
00
80
ENDCHAR
STARTCHAR C023177
ENCODING 9855
SWIDTH 1000 0
DWIDTH 10 0
BBX 0 0 0 0
BITMAP
ENDCHAR
STARTCHAR C023440
ENCODING 10016
SWIDTH 1000 0
DWIDTH 10 0
BBX 1 3 10 0
BITMAP
80
80
80
ENDCHAR
STARTCHAR C023441
ENCODING 10017
SWIDTH 1000 0
DWIDTH 10 0
BBX 9 8 1 -1
BITMAP
0380
0780
7F80
7F00
DF00
F780
F780
0300
ENDCHAR
STARTCHAR C023442
ENCODING 10018
SWIDTH 1000 0
DWIDTH 10 0
BBX 8 8 1 -1
BITMAP
07
EF
FF
FE
FE
FC
FF
06
ENDCHAR
STARTCHAR C023443
ENCODING 10019
SWIDTH 1000 0
DWIDTH 10 0
BBX 9 8 1 -1
BITMAP
1F80
7D80
DD80
DF00
DF00
DE00
7F80
0300
ENDCHAR
STARTCHAR C023444
ENCODING 10020
SWIDTH 1000 0
DWIDTH 10 0
BBX 4 8 3 -1
BITMAP
70
F0
F0
E0
E0
C0
F0
60
ENDCHAR
STARTCHAR C023445
ENCODING 10021
SWIDTH 1000 0
DWIDTH 10 0
BBX 9 7 1 0
BITMAP
C700
DF00
FF00
EF00
EE00
FD80
DF00
ENDCHAR
STARTCHAR C023446
ENCODING 10022
SWIDTH 1000 0
DWIDTH 10 0
BBX 9 6 1 0
BITMAP
7700
DD80
CC00
DC00
DD80
7700
ENDCHAR
STARTCHAR C023447
ENCODING 10023
SWIDTH 1000 0
DWIDTH 10 0
BBX 9 7 1 0
BITMAP
0180
FF80
FE00
FE00
FE00
FE00
FE00
ENDCHAR
STARTCHAR C023450
ENCODING 10024
SWIDTH 1000 0
DWIDTH 10 0
BBX 9 6 1 0
BITMAP
7980
FE00
FE00
DE00
DE00
7E00
ENDCHAR
STARTCHAR C023451
ENCODING 10025
SWIDTH 1000 0
DWIDTH 10 0
BBX 9 6 1 0
BITMAP
FD80
FE00
DE00
DE00
DE00
DE00
ENDCHAR
STARTCHAR C023452
ENCODING 10026
SWIDTH 1000 0
DWIDTH 10 0
BBX 9 8 1 -1
BITMAP
C000
C780
FE00
FE00
DE00
FE00
FE00
3000
ENDCHAR
STARTCHAR C023453
ENCODING 10027
SWIDTH 1000 0
DWIDTH 10 0
BBX 9 8 1 0
BITMAP
7800
6000
F800
6F80
6F80
6F80
6F80
6F80
ENDCHAR
STARTCHAR C023454
ENCODING 10028
SWIDTH 1000 0
DWIDTH 10 0
BBX 9 6 1 0
BITMAP
FF80
FF80
FF80
FF80
FF80
FF80
ENDCHAR
STARTCHAR C023455
ENCODING 10029
SWIDTH 1000 0
DWIDTH 10 0
BBX 9 6 1 0
BITMAP
0F80
7F80
7F80
FF80
FF80
FF80
ENDCHAR
STARTCHAR C023456
ENCODING 10030
SWIDTH 1000 0
DWIDTH 10 0
BBX 9 6 1 0
BITMAP
FF80
FF80
FF80
FF80
FF80
FF80
ENDCHAR
STARTCHAR C023457
ENCODING 10031
SWIDTH 1000 0
DWIDTH 10 0
BBX 9 6 1 0
BITMAP
6780
FF80
CF80
DF80
DF80
7F80
ENDCHAR
STARTCHAR C023460
ENCODING 10032
SWIDTH 1000 0
DWIDTH 10 0
BBX 9 8 1 -1
BITMAP
C000
DF00
FF80
FF80
FF80
FF80
FF80
C000
ENDCHAR
STARTCHAR C023461
ENCODING 10033
SWIDTH 1000 0
DWIDTH 10 0
BBX 9 8 1 0
BITMAP
0180
0300
1F80
FF00
FF00
FF00
FF00
F000
ENDCHAR
STARTCHAR C023462
ENCODING 10034
SWIDTH 1000 0
DWIDTH 10 0
BBX 9 8 1 0
BITMAP
0180
0300
7D80
FF00
FF00
DF00
FF00
7F00
ENDCHAR
STARTCHAR C023463
ENCODING 10035
SWIDTH 1000 0
DWIDTH 10 0
BBX 9 8 1 0
BITMAP
0180
0300
FD80
FE00
F600
F600
F600
F600
ENDCHAR
STARTCHAR C023464
ENCODING 10036
SWIDTH 1000 0
DWIDTH 10 0
BBX 9 9 1 -1
BITMAP
0180
C300
DD80
FF00
FF00
DF00
FF00
FF00
F000
ENDCHAR
STARTCHAR C023465
ENCODING 10037
SWIDTH 1000 0
DWIDTH 10 0
BBX 9 8 1 -1
BITMAP
C000
C700
F180
D980
DF80
DD80
DF80
1E00
ENDCHAR
STARTCHAR C023466
ENCODING 10038
SWIDTH 1000 0
DWIDTH 10 0
BBX 9 6 1 0
BITMAP
7F80
7D80
F700
FF00
FD80
EF80
ENDCHAR
STARTCHAR C023467
ENCODING 10039
SWIDTH 1000 0
DWIDTH 10 0
BBX 9 6 1 0
BITMAP
0780
FF00
FF00
FF00
FD80
FF80
ENDCHAR
STARTCHAR C023470
ENCODING 10040
SWIDTH 1000 0
DWIDTH 10 0
BBX 9 8 1 -1
BITMAP
C000
C780
FF00
E700
EE00
FB80
FF00
C000
ENDCHAR
STARTCHAR C023471
ENCODING 10041
SWIDTH 1000 0
DWIDTH 10 0
BBX 9 8 1 -1
BITMAP
C600
C600
FF80
E600
E600
F600
F780
1B00
ENDCHAR
STARTCHAR C023472
ENCODING 10042
SWIDTH 1000 0
DWIDTH 10 0
BBX 9 8 1 -1
BITMAP
0180
6780
FF80
C380
DF80
DB80
7F80
0C00
ENDCHAR
STARTCHAR C023473
ENCODING 10043
SWIDTH 1000 0
DWIDTH 10 0
BBX 9 7 1 0
BITMAP
C180
DF80
FB80
F380
FF80
FF80
FF80
ENDCHAR
STARTCHAR C023474
ENCODING 10044
SWIDTH 1000 0
DWIDTH 10 0
BBX 9 8 1 0
BITMAP
1F80
1D80
7D80
DF00
DF80
DD80
DD80
7F80
ENDCHAR
STARTCHAR C023475
ENCODING 10045
SWIDTH 1000 0
DWIDTH 10 0
BBX 9 8 1 -1
BITMAP
F800
FF00
FE00
0C00
1F00
3D80
6780
C780
ENDCHAR
STARTCHAR C023476
ENCODING 10046
SWIDTH 1000 0
DWIDTH 10 0
BBX 9 8 1 -1
BITMAP
F800
FF00
FD80
0D80
1E00
3B00
7F00
CF00
ENDCHAR
STARTCHAR C023477
ENCODING 10047
SWIDTH 1000 0
DWIDTH 10 0
BBX 9 7 1 -1
BITMAP
F700
DD80
DC00
DF00
DD80
F700
C000
ENDCHAR
STARTCHAR C023500
ENCODING 10048
SWIDTH 1000 0
DWIDTH 10 0
BBX 9 6 1 0
BITMAP
FF00
FD80
DC00
DF00
DD80
DF00
ENDCHAR
STARTCHAR C023501
ENCODING 10049
SWIDTH 1000 0
DWIDTH 10 0
BBX 9 6 1 0
BITMAP
6700
7D80
DE00
F380
F180
F780
ENDCHAR
STARTCHAR C023502
ENCODING 10050
SWIDTH 1000 0
DWIDTH 10 0
BBX 9 6 1 0
BITMAP
FF00
FD80
FC00
FF00
FD80
FF00
ENDCHAR
STARTCHAR C023503
ENCODING 10051
SWIDTH 1000 0
DWIDTH 10 0
BBX 9 8 1 -1
BITMAP
0D80
0F00
FF00
DF00
DF00
DF00
F600
C000
ENDCHAR
STARTCHAR C023504
ENCODING 10052
SWIDTH 1000 0
DWIDTH 10 0
BBX 9 7 1 0
BITMAP
0D80
FF00
FF00
DF00
DF00
DF00
DE00
ENDCHAR
STARTCHAR C023505
ENCODING 10053
SWIDTH 1000 0
DWIDTH 10 0
BBX 9 8 1 -1
BITMAP
0D80
0D80
7F00
DF00
F700
F700
F300
C000
ENDCHAR
STARTCHAR C023506
ENCODING 10054
SWIDTH 1000 0
DWIDTH 10 0
BBX 9 7 1 0
BITMAP
0D80
FD80
FF00
FF00
FF00
FF00
F800
ENDCHAR
STARTCHAR C023507
ENCODING 10055
SWIDTH 1000 0
DWIDTH 10 0
BBX 9 8 1 0
BITMAP
C000
CD80
CF00
FF00
EF00
E700
F700
DE00
ENDCHAR
STARTCHAR C023510
ENCODING 10056
SWIDTH 1000 0
DWIDTH 10 0
BBX 9 7 1 0
BITMAP
DD80
DD80
DF00
FF00
FF00
FF00
DB00
ENDCHAR
STARTCHAR C023511
ENCODING 10057
SWIDTH 1000 0
DWIDTH 10 0
BBX 9 8 1 -1
BITMAP
0700
0700
FF00
DF00
DF00
DD80
FD80
C000
ENDCHAR
STARTCHAR C023512
ENCODING 10058
SWIDTH 1000 0
DWIDTH 10 0
BBX 9 7 1 0
BITMAP
0600
FF00
FF00
DF00
DF00
DD80
DD80
ENDCHAR
STARTCHAR C023513
ENCODING 10059
SWIDTH 1000 0
DWIDTH 10 0
BBX 9 8 1 -1
BITMAP
0300
0700
7F00
7F00
DF80
FD80
FD80
C000
ENDCHAR
STARTCHAR C023514
ENCODING 10060
SWIDTH 1000 0
DWIDTH 10 0
BBX 9 7 1 0
BITMAP
0700
FF00
FF00
FF00
FF00
FD80
FD80
ENDCHAR
STARTCHAR C023515
ENCODING 10061
SWIDTH 1000 0
DWIDTH 10 0
BBX 9 7 1 0
BITMAP
C700
C700
FF00
EF00
E700
FD80
FD80
ENDCHAR
STARTCHAR C023516
ENCODING 10062
SWIDTH 1000 0
DWIDTH 10 0
BBX 9 8 1 -1
BITMAP
0F80
6F80
FF80
DF80
DF80
DF80
FC00
C000
ENDCHAR
STARTCHAR C023517
ENCODING 10063
SWIDTH 1000 0
DWIDTH 10 0
BBX 9 7 1 0
BITMAP
0F80
FF80
FF80
DF80
DF80
DF80
DD80
ENDCHAR
STARTCHAR C023520
ENCODING 10064
SWIDTH 1000 0
DWIDTH 10 0
BBX 9 7 1 0
BITMAP
0F80
0F80
FF80
FF80
FF80
FF80
FC00
ENDCHAR
STARTCHAR C023521
ENCODING 10065
SWIDTH 1000 0
DWIDTH 10 0
BBX 9 7 1 0
BITMAP
0F80
FF80
FF80
FF80
FF80
FF80
FC00
ENDCHAR
STARTCHAR C023522
ENCODING 10066
SWIDTH 1000 0
DWIDTH 10 0
BBX 9 7 1 0
BITMAP
CF80
FF80
FF80
FF80
EF80
ED80
FD80
ENDCHAR
STARTCHAR C023523
ENCODING 10067
SWIDTH 1000 0
DWIDTH 10 0
BBX 9 7 1 0
BITMAP
DF80
DF80
DF80
FF80
FF00
FF00
DF00
ENDCHAR
STARTCHAR C023524
ENCODING 10068
SWIDTH 1000 0
DWIDTH 10 0
BBX 9 8 1 -1
BITMAP
D800
DF80
DB00
FE00
DE00
DC00
DF80
D800
ENDCHAR
STARTCHAR C023525
ENCODING 10069
SWIDTH 1000 0
DWIDTH 10 0
BBX 9 8 1 -1
BITMAP
FC00
FF80
FF00
FF00
FF00
FE00
FF80
3C00
ENDCHAR
STARTCHAR C023526
ENCODING 10070
SWIDTH 1000 0
DWIDTH 10 0
BBX 9 8 1 -1
BITMAP
3E00
7F80
7F80
7F00
7F00
FF00
FF80
1E00
ENDCHAR
STARTCHAR C023527
ENCODING 10071
SWIDTH 1000 0
DWIDTH 10 0
BBX 9 8 1 -1
BITMAP
FE00
FF80
DF80
DF00
FF00
FF00
FF80
7E00
ENDCHAR
STARTCHAR C023530
ENCODING 10072
SWIDTH 1000 0
DWIDTH 10 0
BBX 9 9 1 -1
BITMAP
F000
7E00
7F80
7F80
7F00
7F00
7E00
7F80
1E00
ENDCHAR
STARTCHAR C023531
ENCODING 10073
SWIDTH 1000 0
DWIDTH 10 0
BBX 7 8 2 -1
BITMAP
7C
C6
C6
C6
6C
38
38
6C
ENDCHAR
STARTCHAR C023532
ENCODING 10074
SWIDTH 1000 0
DWIDTH 10 0
BBX 9 9 1 -1
BITMAP
0F00
DF80
D980
F980
F980
EF00
E700
FF80
C000
ENDCHAR
STARTCHAR C023533
ENCODING 10075
SWIDTH 1000 0
DWIDTH 10 0
BBX 9 8 1 0
BITMAP
0F00
FF80
F980
F980
F980
FF00
F700
FF80
ENDCHAR
STARTCHAR C023534
ENCODING 10076
SWIDTH 1000 0
DWIDTH 10 0
BBX 9 9 1 -1
BITMAP
0F80
0C00
0C00
FF80
DC00
DC00
DC00
FC00
C000
ENDCHAR
STARTCHAR C023535
ENCODING 10077
SWIDTH 1000 0
DWIDTH 10 0
BBX 9 8 1 0
BITMAP
0F80
0C00
FC00
FF80
DC00
DC00
DC00
DC00
ENDCHAR
STARTCHAR C023536
ENCODING 10078
SWIDTH 1000 0
DWIDTH 10 0
BBX 9 8 1 0
BITMAP
0F80
0C00
6C00
7F80
DC00
FC00
FC00
EC00
ENDCHAR
STARTCHAR C023537
ENCODING 10079
SWIDTH 1000 0
DWIDTH 10 0
BBX 9 7 1 0
BITMAP
0180
FF80
FF80
FF80
FF80
FF80
FF80
ENDCHAR
STARTCHAR C023540
ENCODING 10080
SWIDTH 1000 0
DWIDTH 10 0
BBX 9 7 1 0
BITMAP
0180
7180
DF80
CD80
CD80
DD80
7780
ENDCHAR
STARTCHAR C023541
ENCODING 10081
SWIDTH 1000 0
DWIDTH 10 0
BBX 9 8 1 -1
BITMAP
0180
1980
FF80
DF80
FF80
EF80
FF80
0380
ENDCHAR
STARTCHAR C023542
ENCODING 10082
SWIDTH 1000 0
DWIDTH 10 0
BBX 9 8 1 -1
BITMAP
0600
FE00
DE00
FF80
3780
0F80
3B80
0380
ENDCHAR
STARTCHAR C023543
ENCODING 10083
SWIDTH 1000 0
DWIDTH 10 0
BBX 9 8 1 -1
BITMAP
0600
7E00
FE00
FF80
6780
1F00
3300
0700
ENDCHAR
STARTCHAR C023544
ENCODING 10084
SWIDTH 1000 0
DWIDTH 10 0
BBX 8 6 1 0
BITMAP
F3
CE
CC
7C
DC
7C
ENDCHAR
STARTCHAR C023545
ENCODING 10085
SWIDTH 1000 0
DWIDTH 10 0
BBX 9 9 1 -1
BITMAP
F000
D800
DB00
DF80
F180
CF80
CD80
0F80
0600
ENDCHAR
STARTCHAR C023546
ENCODING 10086
SWIDTH 1000 0
DWIDTH 10 0
BBX 9 7 1 0
BITMAP
DC00
DF00
FD80
DD80
FF80
FF80
FF80
ENDCHAR
STARTCHAR C023547
ENCODING 10087
SWIDTH 1000 0
DWIDTH 10 0
BBX 9 8 1 -1
BITMAP
3E00
3F80
FF80
FF80
FB80
FB80
FB80
1800
ENDCHAR
STARTCHAR C023550
ENCODING 10088
SWIDTH 1000 0
DWIDTH 10 0
BBX 9 9 1 -1
BITMAP
6000
FE00
DF80
DF80
FF80
FF80
FB80
FB80
6000
ENDCHAR
STARTCHAR C023551
ENCODING 10089
SWIDTH 1000 0
DWIDTH 10 0
BBX 9 8 1 0
BITMAP
0C00
FC00
FF00
FD80
FD80
FD80
FD80
FF00
ENDCHAR
STARTCHAR C023552
ENCODING 10090
SWIDTH 1000 0
DWIDTH 10 0
BBX 6 6 3 0
BITMAP
FC
FC
FC
FC
FC
FC
ENDCHAR
STARTCHAR C023553
ENCODING 10091
SWIDTH 1000 0
DWIDTH 10 0
BBX 7 8 2 -1
BITMAP
C0
C6
FC
DC
D8
DC
F6
C0
ENDCHAR
STARTCHAR C023554
ENCODING 10092
SWIDTH 1000 0
DWIDTH 10 0
BBX 9 9 1 -1
BITMAP
F000
D800
D800
FF80
FD80
DD80
DD80
F780
0180
ENDCHAR
STARTCHAR C023555
ENCODING 10093
SWIDTH 1000 0
DWIDTH 10 0
BBX 10 10 1 -2
BITMAP
7000
D800
D980
CD80
FF00
DF00
DF00
7E00
0000
0600
ENDCHAR
STARTCHAR C023556
ENCODING 10094
SWIDTH 1000 0
DWIDTH 10 0
BBX 9 8 1 0
BITMAP
7000
D800
C180
CD80
7700
DF00
DB00
7B00
ENDCHAR
STARTCHAR C023557
ENCODING 10095
SWIDTH 1000 0
DWIDTH 10 0
BBX 9 8 1 -1
BITMAP
D800
F000
F800
7800
7F80
7F00
DF80
C780
ENDCHAR
STARTCHAR C023560
ENCODING 10096
SWIDTH 1000 0
DWIDTH 10 0
BBX 0 0 0 0
BITMAP
ENDCHAR
STARTCHAR C023561
ENCODING 10097
SWIDTH 1000 0
DWIDTH 10 0
BBX 0 0 0 0
BITMAP
ENDCHAR
STARTCHAR C023562
ENCODING 10098
SWIDTH 1000 0
DWIDTH 10 0
BBX 0 0 0 0
BITMAP
ENDCHAR
STARTCHAR C023563
ENCODING 10099
SWIDTH 1000 0
DWIDTH 10 0
BBX 0 0 0 0
BITMAP
ENDCHAR
STARTCHAR C023564
ENCODING 10100
SWIDTH 1000 0
DWIDTH 10 0
BBX 0 0 0 0
BITMAP
ENDCHAR
STARTCHAR C023565
ENCODING 10101
SWIDTH 1000 0
DWIDTH 10 0
BBX 0 0 0 0
BITMAP
ENDCHAR
STARTCHAR C023566
ENCODING 10102
SWIDTH 1000 0
DWIDTH 10 0
BBX 0 0 0 0
BITMAP
ENDCHAR
STARTCHAR C023567
ENCODING 10103
SWIDTH 1000 0
DWIDTH 10 0
BBX 0 0 0 0
BITMAP
ENDCHAR
STARTCHAR C023570
ENCODING 10104
SWIDTH 1000 0
DWIDTH 10 0
BBX 1 8 10 0
BITMAP
80
80
80
00
00
00
00
80
ENDCHAR
STARTCHAR C023571
ENCODING 10105
SWIDTH 1000 0
DWIDTH 10 0
BBX 0 0 0 0
BITMAP
ENDCHAR
STARTCHAR C023572
ENCODING 10106
SWIDTH 1000 0
DWIDTH 10 0
BBX 0 0 0 0
BITMAP
ENDCHAR
STARTCHAR C023573
ENCODING 10107
SWIDTH 1000 0
DWIDTH 10 0
BBX 0 0 0 0
BITMAP
ENDCHAR
STARTCHAR C023574
ENCODING 10108
SWIDTH 1000 0
DWIDTH 10 0
BBX 0 0 0 0
BITMAP
ENDCHAR
STARTCHAR C023575
ENCODING 10109
SWIDTH 1000 0
DWIDTH 10 0
BBX 1 6 10 2
BITMAP
80
80
00
00
00
80
ENDCHAR
STARTCHAR C023576
ENCODING 10110
SWIDTH 1000 0
DWIDTH 10 0
BBX 0 0 0 0
BITMAP
ENDCHAR
STARTCHAR C023577
ENCODING 10111
SWIDTH 1000 0
DWIDTH 10 0
BBX 0 0 0 0
BITMAP
ENDCHAR
STARTCHAR C024040
ENCODING 10272
SWIDTH 1000 0
DWIDTH 10 0
BBX 1 1 10 1
BITMAP
80
ENDCHAR
STARTCHAR C024041
ENCODING 10273
SWIDTH 1000 0
DWIDTH 10 0
BBX 9 6 1 0
BITMAP
3F00
7800
7F00
7800
D800
1F80
ENDCHAR
STARTCHAR C024042
ENCODING 10274
SWIDTH 1000 0
DWIDTH 10 0
BBX 7 6 2 0
BITMAP
7C
66
F6
66
66
7C
ENDCHAR
STARTCHAR C024043
ENCODING 10275
SWIDTH 1000 0
DWIDTH 10 0
BBX 6 6 3 0
BITMAP
F8
18
F8
D8
7C
F8
ENDCHAR
STARTCHAR C024044
ENCODING 10276
SWIDTH 1000 0
DWIDTH 10 0
BBX 8 7 1 0
BITMAP
66
FF
66
7E
66
66
66
ENDCHAR
STARTCHAR C024045
ENCODING 10277
SWIDTH 1000 0
DWIDTH 10 0
BBX 0 0 0 0
BITMAP
ENDCHAR
STARTCHAR C024046
ENCODING 10278
SWIDTH 1000 0
DWIDTH 10 0
BBX 4 6 4 0
BITMAP
30
30
30
30
F0
F0
ENDCHAR
STARTCHAR C024047
ENCODING 10279
SWIDTH 1000 0
DWIDTH 10 0
BBX 1 8 10 0
BITMAP
80
80
80
00
00
00
00
80
ENDCHAR
STARTCHAR C024050
ENCODING 10280
SWIDTH 1000 0
DWIDTH 10 0
BBX 5 7 3 0
BITMAP
C0
C0
C0
F0
C0
C0
F8
ENDCHAR
STARTCHAR C024051
ENCODING 10281
SWIDTH 1000 0
DWIDTH 10 0
BBX 6 6 2 0
BITMAP
60
70
60
E0
60
7C
ENDCHAR
STARTCHAR C024052
ENCODING 10282
SWIDTH 1000 0
DWIDTH 10 0
BBX 7 7 2 0
BITMAP
3E
EC
DC
F6
EC
EC
F8
ENDCHAR
STARTCHAR C024053
ENCODING 10283
SWIDTH 1000 0
DWIDTH 10 0
BBX 9 8 1 -1
BITMAP
7F00
D800
D800
DF00
D800
D800
7F80
3000
ENDCHAR
STARTCHAR C024054
ENCODING 10284
SWIDTH 1000 0
DWIDTH 10 0
BBX 5 6 3 0
BITMAP
F8
D8
D8
D8
70
F8
ENDCHAR
STARTCHAR C024055
ENCODING 10285
SWIDTH 1000 0
DWIDTH 10 0
BBX 5 6 3 1
BITMAP
C0
C0
F8
D8
D8
F0
ENDCHAR
STARTCHAR C024056
ENCODING 10286
SWIDTH 1000 0
DWIDTH 10 0
BBX 5 6 2 0
BITMAP
78
30
30
F8
30
30
ENDCHAR
STARTCHAR C024057
ENCODING 10287
SWIDTH 1000 0
DWIDTH 10 0
BBX 5 8 3 -1
BITMAP
70
D8
D8
D8
D8
D8
D8
30
ENDCHAR
STARTCHAR C024060
ENCODING 10288
SWIDTH 1000 0
DWIDTH 10 0
BBX 1 5 10 0
BITMAP
80
80
80
80
80
ENDCHAR
STARTCHAR C024061
ENCODING 10289
SWIDTH 1000 0
DWIDTH 10 0
BBX 9 9 1 -2
BITMAP
3E00
6300
FF80
C780
C780
C780
E180
6300
3E00
ENDCHAR
STARTCHAR C024062
ENCODING 10290
SWIDTH 1000 0
DWIDTH 10 0
BBX 9 9 1 -2
BITMAP
3E00
6300
E180
E180
E180
FF80
E180
6300
3E00
ENDCHAR
STARTCHAR C024063
ENCODING 10291
SWIDTH 1000 0
DWIDTH 10 0
BBX 9 9 1 -2
BITMAP
3E00
6300
FF80
E180
E180
FF80
E180
6300
3E00
ENDCHAR
STARTCHAR C024064
ENCODING 10292
SWIDTH 1000 0
DWIDTH 10 0
BBX 9 9 1 -2
BITMAP
3E00
6300
FF80
FF80
F180
FF80
E180
6300
3E00
ENDCHAR
STARTCHAR C024065
ENCODING 10293
SWIDTH 1000 0
DWIDTH 10 0
BBX 9 9 1 -2
BITMAP
3E00
6300
FF80
E780
E780
FF80
E180
6300
3E00
ENDCHAR
STARTCHAR C024066
ENCODING 10294
SWIDTH 1000 0
DWIDTH 10 0
BBX 9 9 1 -2
BITMAP
3E00
6300
E780
FF80
E780
FF80
E180
6300
3E00
ENDCHAR
STARTCHAR C024067
ENCODING 10295
SWIDTH 1000 0
DWIDTH 10 0
BBX 9 9 1 -2
BITMAP
3E00
6300
D980
D980
FD80
E780
E180
6300
3E00
ENDCHAR
STARTCHAR C024070
ENCODING 10296
SWIDTH 1000 0
DWIDTH 10 0
BBX 9 9 1 -2
BITMAP
3E00
7F00
EF80
E780
E780
EF80
FD80
6300
3E00
ENDCHAR
STARTCHAR C024071
ENCODING 10297
SWIDTH 1000 0
DWIDTH 10 0
BBX 9 9 1 -2
BITMAP
3E00
6300
FF80
D980
DD80
F780
E180
6300
3E00
ENDCHAR
STARTCHAR C024072
ENCODING 10298
SWIDTH 1000 0
DWIDTH 10 0
BBX 9 9 1 -2
BITMAP
3E00
7F00
FF80
D980
FD80
E780
E180
6300
3E00
ENDCHAR
STARTCHAR C024073
ENCODING 10299
SWIDTH 1000 0
DWIDTH 10 0
BBX 9 9 1 -2
BITMAP
3E00
6300
FF80
C780
FF80
C780
E180
6300
3E00
ENDCHAR
STARTCHAR C024074
ENCODING 10300
SWIDTH 1000 0
DWIDTH 10 0
BBX 9 9 1 -2
BITMAP
3E00
6300
FF80
FF80
E180
FF80
E180
6300
3E00
ENDCHAR
STARTCHAR C024075
ENCODING 10301
SWIDTH 1000 0
DWIDTH 10 0
BBX 9 9 1 -2
BITMAP
3E00
6300
FF80
F180
FD80
FF80
E180
6300
3E00
ENDCHAR
STARTCHAR C024076
ENCODING 10302
SWIDTH 1000 0
DWIDTH 10 0
BBX 9 9 1 -2
BITMAP
3E00
7F00
FF80
DD80
F780
F780
FD80
6300
3E00
ENDCHAR
STARTCHAR C024077
ENCODING 10303
SWIDTH 1000 0
DWIDTH 10 0
BBX 9 9 1 -2
BITMAP
3E00
6700
FF80
DF80
DF80
F780
E780
6700
3E00
ENDCHAR
STARTCHAR C024100
ENCODING 10304
SWIDTH 1000 0
DWIDTH 10 0
BBX 9 9 1 -2
BITMAP
3E00
6700
E780
E780
E780
FF80
E780
6700
3E00
ENDCHAR
STARTCHAR C024101
ENCODING 10305
SWIDTH 1000 0
DWIDTH 10 0
BBX 9 9 1 -2
BITMAP
3E00
6700
FF80
E780
E780
E780
FF80
6700
3E00
ENDCHAR
STARTCHAR C024102
ENCODING 10306
SWIDTH 1000 0
DWIDTH 10 0
BBX 9 9 1 -2
BITMAP
3E00
6700
FF80
FF80
E780
FF80
E780
6700
3E00
ENDCHAR
STARTCHAR C024103
ENCODING 10307
SWIDTH 1000 0
DWIDTH 10 0
BBX 9 9 1 -2
BITMAP
3E00
6700
FF80
FF80
FF80
FF80
E780
6700
3E00
ENDCHAR
STARTCHAR C024104
ENCODING 10308
SWIDTH 1000 0
DWIDTH 10 0
BBX 9 9 1 -2
BITMAP
3E00
6700
FF80
FF80
FF80
FF80
E780
6700
3E00
ENDCHAR
STARTCHAR C024105
ENCODING 10309
SWIDTH 1000 0
DWIDTH 10 0
BBX 9 9 1 -2
BITMAP
3E00
6700
F780
F780
FF80
CF80
E780
6700
3E00
ENDCHAR
STARTCHAR C024106
ENCODING 10310
SWIDTH 1000 0
DWIDTH 10 0
BBX 9 9 1 -2
BITMAP
3E00
6700
FF80
FF80
FF80
FF80
E780
6700
3E00
ENDCHAR
STARTCHAR C024107
ENCODING 10311
SWIDTH 1000 0
DWIDTH 10 0
BBX 9 9 1 -2
BITMAP
3E00
6700
FF80
F780
F780
FF80
E780
6700
3E00
ENDCHAR
STARTCHAR C024110
ENCODING 10312
SWIDTH 1000 0
DWIDTH 10 0
BBX 9 9 1 -2
BITMAP
3E00
7F00
FF80
F780
F780
FF80
E780
6700
3E00
ENDCHAR
STARTCHAR C024111
ENCODING 10313
SWIDTH 1000 0
DWIDTH 10 0
BBX 9 9 1 -2
BITMAP
3E00
6700
FF80
DF80
FF80
DF80
F780
6700
3E00
ENDCHAR
STARTCHAR C024112
ENCODING 10314
SWIDTH 1000 0
DWIDTH 10 0
BBX 9 9 1 -2
BITMAP
3E00
6700
FF80
FF80
E780
FF80
E780
6700
3E00
ENDCHAR
STARTCHAR C024113
ENCODING 10315
SWIDTH 1000 0
DWIDTH 10 0
BBX 9 9 1 -2
BITMAP
3E00
6700
FF80
C780
FF80
FF80
E780
6700
3E00
ENDCHAR
STARTCHAR C024114
ENCODING 10316
SWIDTH 1000 0
DWIDTH 10 0
BBX 9 9 1 -2
BITMAP
3E00
7F00
FF80
C780
FF80
FF80
FF80
6700
3E00
ENDCHAR
STARTCHAR C024115
ENCODING 10317
SWIDTH 1000 0
DWIDTH 10 0
BBX 9 9 1 -2
BITMAP
3E00
6300
DD80
F780
FF80
F780
FF80
6300
3E00
ENDCHAR
STARTCHAR C024116
ENCODING 10318
SWIDTH 1000 0
DWIDTH 10 0
BBX 9 9 1 -2
BITMAP
3E00
7300
FD80
F780
F780
F780
FD80
6300
3E00
ENDCHAR
STARTCHAR C024117
ENCODING 10319
SWIDTH 1000 0
DWIDTH 10 0
BBX 9 9 1 -2
BITMAP
3E00
6300
DD80
F780
F780
DD80
E180
6300
3E00
ENDCHAR
STARTCHAR C024120
ENCODING 10320
SWIDTH 1000 0
DWIDTH 10 0
BBX 9 9 1 -2
BITMAP
3E00
6700
DF80
F780
F780
F780
FF80
6300
3E00
ENDCHAR
STARTCHAR C024121
ENCODING 10321
SWIDTH 1000 0
DWIDTH 10 0
BBX 9 9 1 -2
BITMAP
3E00
6300
DD80
F780
FF80
F780
FD80
6300
3E00
ENDCHAR
STARTCHAR C024122
ENCODING 10322
SWIDTH 1000 0
DWIDTH 10 0
BBX 9 9 1 -2
BITMAP
3E00
7B00
FD80
D980
D980
D980
F980
6300
3E00
ENDCHAR
STARTCHAR C024123
ENCODING 10323
SWIDTH 1000 0
DWIDTH 10 0
BBX 9 9 1 -2
BITMAP
3E00
7F00
F780
F780
F780
FF80
FD80
6300
3E00
ENDCHAR
STARTCHAR C024124
ENCODING 10324
SWIDTH 1000 0
DWIDTH 10 0
BBX 9 9 1 -2
BITMAP
3E00
7300
FD80
FF80
F780
F780
F780
6300
3E00
ENDCHAR
STARTCHAR C024125
ENCODING 10325
SWIDTH 1000 0
DWIDTH 10 0
BBX 9 9 1 -2
BITMAP
3E00
7B00
C180
D980
D980
D980
F980
6300
3E00
ENDCHAR
STARTCHAR C024126
ENCODING 10326
SWIDTH 1000 0
DWIDTH 10 0
BBX 9 9 1 -2
BITMAP
3E00
6300
D980
D980
D980
D980
F980
7300
3E00
ENDCHAR
STARTCHAR C024127
ENCODING 10327
SWIDTH 1000 0
DWIDTH 10 0
BBX 9 9 1 -2
BITMAP
3E00
7300
F180
F980
F980
FD80
FD80
6300
3E00
ENDCHAR
STARTCHAR C024130
ENCODING 10328
SWIDTH 1000 0
DWIDTH 10 0
BBX 9 9 1 -2
BITMAP
3E00
7B00
D980
D980
D980
D980
F980
6300
3E00
ENDCHAR
STARTCHAR C024131
ENCODING 10329
SWIDTH 1000 0
DWIDTH 10 0
BBX 9 9 1 -2
BITMAP
3E00
6300
FF80
FB80
FB80
FB80
E180
6300
3E00
ENDCHAR
STARTCHAR C024132
ENCODING 10330
SWIDTH 1000 0
DWIDTH 10 0
BBX 9 9 1 -2
BITMAP
3E00
6300
FF80
F780
F780
F780
E180
6300
3E00
ENDCHAR
STARTCHAR C024133
ENCODING 10331
SWIDTH 1000 0
DWIDTH 10 0
BBX 9 9 1 -2
BITMAP
3E00
6300
DD80
F780
F780
DD80
E180
6300
3E00
ENDCHAR
STARTCHAR C024134
ENCODING 10332
SWIDTH 1000 0
DWIDTH 10 0
BBX 9 9 1 -2
BITMAP
3E00
7F00
F780
F780
F780
FD80
F180
6300
3E00
ENDCHAR
STARTCHAR C024135
ENCODING 10333
SWIDTH 1000 0
DWIDTH 10 0
BBX 9 9 1 -2
BITMAP
3E00
7F00
F780
F780
F780
DF80
E780
6700
3E00
ENDCHAR
STARTCHAR C024136
ENCODING 10334
SWIDTH 1000 0
DWIDTH 10 0
BBX 9 9 1 -2
BITMAP
3E00
6300
CD80
D980
D980
D980
E180
6300
3E00
ENDCHAR
STARTCHAR C024137
ENCODING 10335
SWIDTH 1000 0
DWIDTH 10 0
BBX 9 9 1 -2
BITMAP
3E00
7F00
F180
DD80
FD80
DD80
E180
6300
3E00
ENDCHAR
STARTCHAR C024140
ENCODING 10336
SWIDTH 1000 0
DWIDTH 10 0
BBX 9 9 1 -2
BITMAP
3E00
7B00
FD80
D980
D980
D980
ED80
6300
3E00
ENDCHAR
STARTCHAR C024141
ENCODING 10337
SWIDTH 1000 0
DWIDTH 10 0
BBX 9 9 1 -2
BITMAP
3E00
6300
F780
F780
F780
F780
FD80
6300
3E00
ENDCHAR
STARTCHAR C024142
ENCODING 10338
SWIDTH 1000 0
DWIDTH 10 0
BBX 9 9 1 -2
BITMAP
3E00
6300
F180
FD80
DD80
D980
E180
6300
3E00
ENDCHAR
STARTCHAR C024143
ENCODING 10339
SWIDTH 1000 0
DWIDTH 10 0
BBX 9 9 1 -2
BITMAP
3E00
6300
F980
FF80
FF80
F780
F180
6300
3E00
ENDCHAR
STARTCHAR C024144
ENCODING 10340
SWIDTH 1000 0
DWIDTH 10 0
BBX 9 9 1 -2
BITMAP
3E00
6300
CD80
D980
D980
CD80
E180
6300
3E00
ENDCHAR
STARTCHAR C024145
ENCODING 10341
SWIDTH 1000 0
DWIDTH 10 0
BBX 9 9 1 -2
BITMAP
3E00
7300
FD80
FD80
DD80
D980
F980
6300
3E00
ENDCHAR
STARTCHAR C024146
ENCODING 10342
SWIDTH 1000 0
DWIDTH 10 0
BBX 9 9 1 -2
BITMAP
3E00
6300
FD80
D980
F180
FF80
E180
6300
3E00
ENDCHAR
STARTCHAR C024147
ENCODING 10343
SWIDTH 1000 0
DWIDTH 10 0
BBX 9 9 1 -2
BITMAP
3E00
6F00
FD80
CD80
CD80
CD80
ED80
6300
3E00
ENDCHAR
STARTCHAR C024150
ENCODING 10344
SWIDTH 1000 0
DWIDTH 10 0
BBX 9 9 1 -2
BITMAP
3E00
7F00
F780
F780
DD80
F180
FF80
6300
3E00
ENDCHAR
STARTCHAR C024151
ENCODING 10345
SWIDTH 1000 0
DWIDTH 10 0
BBX 9 9 1 -2
BITMAP
3E00
7F00
F780
FD80
F780
F780
FD80
6300
3E00
ENDCHAR
STARTCHAR C024152
ENCODING 10346
SWIDTH 1000 0
DWIDTH 10 0
BBX 9 9 1 -2
BITMAP
3E00
6F00
DD80
FD80
FD80
FF80
ED80
6300
3E00
ENDCHAR
STARTCHAR C024153
ENCODING 10347
SWIDTH 1000 0
DWIDTH 10 0
BBX 9 9 1 -2
BITMAP
3E00
7F00
F180
FD80
F780
F780
FD80
6300
3E00
ENDCHAR
STARTCHAR C024154
ENCODING 10348
SWIDTH 1000 0
DWIDTH 10 0
BBX 9 9 1 -2
BITMAP
3E00
7F00
F780
FD80
F780
F780
FD80
6300
3E00
ENDCHAR
STARTCHAR C024155
ENCODING 10349
SWIDTH 1000 0
DWIDTH 10 0
BBX 9 9 1 -2
BITMAP
3E00
7F00
CD80
CD80
D980
D980
F980
6300
3E00
ENDCHAR
STARTCHAR C024156
ENCODING 10350
SWIDTH 1000 0
DWIDTH 10 0
BBX 9 9 1 -2
BITMAP
3E00
7F00
F780
FF80
F780
F780
FD80
6300
3E00
ENDCHAR
STARTCHAR C024157
ENCODING 10351
SWIDTH 1000 0
DWIDTH 10 0
BBX 9 9 1 -2
BITMAP
3E00
7F00
F780
F780
DF80
F780
FD80
6300
3E00
ENDCHAR
STARTCHAR C024160
ENCODING 10352
SWIDTH 1000 0
DWIDTH 10 0
BBX 9 9 1 -2
BITMAP
3E00
7700
FF80
FF80
FF80
FF80
E780
6300
3E00
ENDCHAR
STARTCHAR C024161
ENCODING 10353
SWIDTH 1000 0
DWIDTH 10 0
BBX 9 9 1 -2
BITMAP
3E00
7700
FF80
F780
F780
F780
E180
6300
3E00
ENDCHAR
STARTCHAR C024162
ENCODING 10354
SWIDTH 1000 0
DWIDTH 10 0
BBX 9 9 1 -2
BITMAP
3E00
7300
FF80
F380
F780
FD80
EF80
6300
3E00
ENDCHAR
STARTCHAR C024163
ENCODING 10355
SWIDTH 1000 0
DWIDTH 10 0
BBX 9 9 1 -2
BITMAP
3E00
7F00
F380
F780
F380
F380
EF80
6300
3E00
ENDCHAR
STARTCHAR C024164
ENCODING 10356
SWIDTH 1000 0
DWIDTH 10 0
BBX 9 9 1 -2
BITMAP
3E00
7700
FF80
FF80
FF80
F780
E180
6300
3E00
ENDCHAR
STARTCHAR C024165
ENCODING 10357
SWIDTH 1000 0
DWIDTH 10 0
BBX 9 9 1 -2
BITMAP
3E00
7F00
FD80
FF80
F380
FF80
E780
6300
3E00
ENDCHAR
STARTCHAR C024166
ENCODING 10358
SWIDTH 1000 0
DWIDTH 10 0
BBX 8 7 1 0
BITMAP
60
EC
78
7F
73
3E
0F
ENDCHAR
STARTCHAR C024167
ENCODING 10359
SWIDTH 1000 0
DWIDTH 10 0
BBX 8 7 1 0
BITMAP
60
EC
78
7B
73
33
07
ENDCHAR
STARTCHAR C024170
ENCODING 10360
SWIDTH 1000 0
DWIDTH 10 0
BBX 8 7 1 0
BITMAP
66
FC
6C
DB
FB
33
37
ENDCHAR
STARTCHAR C024171
ENCODING 10361
SWIDTH 1000 0
DWIDTH 10 0
BBX 9 7 1 0
BITMAP
6000
EC00
7B00
7F00
7F00
3F80
0300
ENDCHAR
STARTCHAR C024172
ENCODING 10362
SWIDTH 1000 0
DWIDTH 10 0
BBX 8 7 2 0
BITMAP
EC
78
7E
7E
FE
7F
66
ENDCHAR
STARTCHAR C024173
ENCODING 10363
SWIDTH 1000 0
DWIDTH 10 0
BBX 8 7 1 0
BITMAP
60
EC
78
7F
77
3F
07
ENDCHAR
STARTCHAR C024174
ENCODING 10364
SWIDTH 1000 0
DWIDTH 10 0
BBX 8 7 1 0
BITMAP
76
FC
7C
FF
7F
3F
37
ENDCHAR
STARTCHAR C024175
ENCODING 10365
SWIDTH 1000 0
DWIDTH 10 0
BBX 8 7 1 0
BITMAP
7E
6C
3C
DF
7F
3F
37
ENDCHAR
STARTCHAR C024176
ENCODING 10366
SWIDTH 1000 0
DWIDTH 10 0
BBX 7 7 2 0
BITMAP
F0
78
F0
FE
EE
7E
0E
ENDCHAR
STARTCHAR C024177
ENCODING 10367
SWIDTH 1000 0
DWIDTH 10 0
BBX 0 0 0 0
BITMAP
ENDCHAR
STARTCHAR C024440
ENCODING 10528
SWIDTH 1000 0
DWIDTH 10 0
BBX 1 5 10 0
BITMAP
80
00
80
00
80
ENDCHAR
STARTCHAR C024441
ENCODING 10529
SWIDTH 1000 0
DWIDTH 10 0
BBX 7 6 2 -1
BITMAP
FE
36
FE
30
FE
0C
ENDCHAR
STARTCHAR C024442
ENCODING 10530
SWIDTH 1000 0
DWIDTH 10 0
BBX 6 8 3 -1
BITMAP
18
7C
F8
18
18
18
F8
60
ENDCHAR
STARTCHAR C024443
ENCODING 10531
SWIDTH 1000 0
DWIDTH 10 0
BBX 5 7 3 0
BITMAP
F0
60
30
78
D8
D8
70
ENDCHAR
STARTCHAR C024444
ENCODING 10532
SWIDTH 1000 0
DWIDTH 10 0
BBX 6 7 2 0
BITMAP
60
F8
60
7C
6C
6C
6C
ENDCHAR
STARTCHAR C024445
ENCODING 10533
SWIDTH 1000 0
DWIDTH 10 0
BBX 0 0 0 0
BITMAP
ENDCHAR
STARTCHAR C024446
ENCODING 10534
SWIDTH 1000 0
DWIDTH 10 0
BBX 5 8 3 -1
BITMAP
D8
00
D8
D8
D8
D8
D8
18
ENDCHAR
STARTCHAR C024447
ENCODING 10535
SWIDTH 1000 0
DWIDTH 10 0
BBX 5 5 3 0
BITMAP
D8
F0
F0
F0
D8
ENDCHAR
STARTCHAR C024450
ENCODING 10536
SWIDTH 1000 0
DWIDTH 10 0
BBX 3 7 4 0
BITMAP
C0
C0
C0
E0
C0
C0
C0
ENDCHAR
STARTCHAR C024451
ENCODING 10537
SWIDTH 1000 0
DWIDTH 10 0
BBX 4 7 3 0
BITMAP
60
60
70
60
E0
60
60
ENDCHAR
STARTCHAR C024452
ENCODING 10538
SWIDTH 1000 0
DWIDTH 10 0
BBX 6 6 3 -1
BITMAP
7C
FC
EC
CC
D8
70
ENDCHAR
STARTCHAR C024453
ENCODING 10539
SWIDTH 1000 0
DWIDTH 10 0
BBX 8 6 1 -1
BITMAP
7F
DB
CF
D8
7F
06
ENDCHAR
STARTCHAR C024454
ENCODING 10540
SWIDTH 1000 0
DWIDTH 10 0
BBX 5 7 3 0
BITMAP
78
D8
D8
F8
D8
D8
F8
ENDCHAR
STARTCHAR C024455
ENCODING 10541
SWIDTH 1000 0
DWIDTH 10 0
BBX 5 8 3 -1
BITMAP
C0
C0
F0
D8
D8
D8
F0
C0
ENDCHAR
STARTCHAR C024456
ENCODING 10542
SWIDTH 1000 0
DWIDTH 10 0
BBX 3 7 4 0
BITMAP
C0
C0
C0
C0
C0
C0
E0
ENDCHAR
STARTCHAR C024457
ENCODING 10543
SWIDTH 1000 0
DWIDTH 10 0
BBX 5 6 3 -1
BITMAP
F8
D8
D8
D8
D8
18
ENDCHAR
STARTCHAR C024460
ENCODING 10544
SWIDTH 1000 0
DWIDTH 10 0
BBX 7 5 2 0
BITMAP
DE
36
36
36
36
ENDCHAR
STARTCHAR C024461
ENCODING 10545
SWIDTH 1000 0
DWIDTH 10 0
BBX 9 7 1 -1
BITMAP
6300
FF80
C780
C780
C780
6300
6000
ENDCHAR
STARTCHAR C024462
ENCODING 10546
SWIDTH 1000 0
DWIDTH 10 0
BBX 9 7 1 -1
BITMAP
6300
E180
E180
E180
FF80
6300
6000
ENDCHAR
STARTCHAR C024463
ENCODING 10547
SWIDTH 1000 0
DWIDTH 10 0
BBX 9 7 1 -1
BITMAP
C300
FF80
E180
E180
FF80
6300
6000
ENDCHAR
STARTCHAR C024464
ENCODING 10548
SWIDTH 1000 0
DWIDTH 10 0
BBX 9 8 1 -1
BITMAP
0300
6300
FF80
C780
FF80
FF80
6300
6000
ENDCHAR
STARTCHAR C024465
ENCODING 10549
SWIDTH 1000 0
DWIDTH 10 0
BBX 9 7 1 -1
BITMAP
6300
FF80
E780
E780
FF80
6300
6000
ENDCHAR
STARTCHAR C024466
ENCODING 10550
SWIDTH 1000 0
DWIDTH 10 0
BBX 9 7 1 -1
BITMAP
6700
E780
FF80
E780
FF80
6300
6000
ENDCHAR
STARTCHAR C024467
ENCODING 10551
SWIDTH 1000 0
DWIDTH 10 0
BBX 9 7 1 -1
BITMAP
6300
D980
D980
FD80
E780
6300
6000
ENDCHAR
STARTCHAR C024470
ENCODING 10552
SWIDTH 1000 0
DWIDTH 10 0
BBX 9 7 1 -1
BITMAP
7F00
EF80
E780
E780
EF80
7F00
6000
ENDCHAR
STARTCHAR C024471
ENCODING 10553
SWIDTH 1000 0
DWIDTH 10 0
BBX 9 7 1 -1
BITMAP
6300
FF80
D980
FD80
CD80
6700
6000
ENDCHAR
STARTCHAR C024472
ENCODING 10554
SWIDTH 1000 0
DWIDTH 10 0
BBX 9 7 1 -1
BITMAP
7F00
FF80
D980
DD80
F780
6300
6000
ENDCHAR
STARTCHAR C024473
ENCODING 10555
SWIDTH 1000 0
DWIDTH 10 0
BBX 9 7 1 -1
BITMAP
6300
FF80
C780
FF80
C780
6300
6000
ENDCHAR
STARTCHAR C024474
ENCODING 10556
SWIDTH 1000 0
DWIDTH 10 0
BBX 9 7 1 -1
BITMAP
6300
FF80
FF80
E180
FF80
6300
6000
ENDCHAR
STARTCHAR C024475
ENCODING 10557
SWIDTH 1000 0
DWIDTH 10 0
BBX 9 7 1 -1
BITMAP
6300
FF80
F180
FD80
FF80
6300
6000
ENDCHAR
STARTCHAR C024476
ENCODING 10558
SWIDTH 1000 0
DWIDTH 10 0
BBX 9 7 1 -1
BITMAP
7F00
FF80
DD80
F780
F780
7F00
6000
ENDCHAR
STARTCHAR C024477
ENCODING 10559
SWIDTH 1000 0
DWIDTH 10 0
BBX 9 7 1 -1
BITMAP
6700
FF80
DF80
DF80
F780
6700
6600
ENDCHAR
STARTCHAR C024500
ENCODING 10560
SWIDTH 1000 0
DWIDTH 10 0
BBX 9 7 1 -1
BITMAP
6700
E780
E780
E780
FF80
6700
6600
ENDCHAR
STARTCHAR C024501
ENCODING 10561
SWIDTH 1000 0
DWIDTH 10 0
BBX 9 7 1 -1
BITMAP
6700
FF80
E780
E780
EF80
7F00
6600
ENDCHAR
STARTCHAR C024502
ENCODING 10562
SWIDTH 1000 0
DWIDTH 10 0
BBX 9 7 1 -1
BITMAP
6700
FF80
FF80
E780
FF80
C700
C600
ENDCHAR
STARTCHAR C024503
ENCODING 10563
SWIDTH 1000 0
DWIDTH 10 0
BBX 9 7 1 -1
BITMAP
6700
FF80
FF80
FF80
FF80
6700
6600
ENDCHAR
STARTCHAR C024504
ENCODING 10564
SWIDTH 1000 0
DWIDTH 10 0
BBX 9 7 1 -1
BITMAP
6700
FF80
FF80
FF80
FF80
6700
6600
ENDCHAR
STARTCHAR C024505
ENCODING 10565
SWIDTH 1000 0
DWIDTH 10 0
BBX 9 7 1 -1
BITMAP
6700
F780
F780
F780
DF80
6700
6600
ENDCHAR
STARTCHAR C024506
ENCODING 10566
SWIDTH 1000 0
DWIDTH 10 0
BBX 9 7 1 -1
BITMAP
6700
FF80
FF80
FF80
FF80
6700
6600
ENDCHAR
STARTCHAR C024507
ENCODING 10567
SWIDTH 1000 0
DWIDTH 10 0
BBX 9 7 1 -1
BITMAP
6700
FF80
F780
F780
FF80
6700
6600
ENDCHAR
STARTCHAR C024510
ENCODING 10568
SWIDTH 1000 0
DWIDTH 10 0
BBX 9 7 1 -1
BITMAP
7F00
C780
FF80
F780
FF80
6F00
6600
ENDCHAR
STARTCHAR C024511
ENCODING 10569
SWIDTH 1000 0
DWIDTH 10 0
BBX 9 7 1 -1
BITMAP
6700
FF80
DF80
FF80
F780
6700
6600
ENDCHAR
STARTCHAR C024512
ENCODING 10570
SWIDTH 1000 0
DWIDTH 10 0
BBX 9 7 1 -1
BITMAP
6700
FF80
FF80
E780
FF80
6700
6600
ENDCHAR
STARTCHAR C024513
ENCODING 10571
SWIDTH 1000 0
DWIDTH 10 0
BBX 9 7 1 -1
BITMAP
6700
FF80
C780
FF80
FF80
6700
6600
ENDCHAR
STARTCHAR C024514
ENCODING 10572
SWIDTH 1000 0
DWIDTH 10 0
BBX 9 7 1 -1
BITMAP
7F00
FF80
C780
FF80
FF80
7F00
6600
ENDCHAR
STARTCHAR C024515
ENCODING 10573
SWIDTH 1000 0
DWIDTH 10 0
BBX 9 7 1 -1
BITMAP
6300
DD80
F780
FF80
F780
7F00
6000
ENDCHAR
STARTCHAR C024516
ENCODING 10574
SWIDTH 1000 0
DWIDTH 10 0
BBX 9 8 1 -1
BITMAP
3000
7300
FD80
F780
F780
F780
7F00
6000
ENDCHAR
STARTCHAR C024517
ENCODING 10575
SWIDTH 1000 0
DWIDTH 10 0
BBX 9 7 1 -1
BITMAP
6300
DD80
F780
F780
DD80
6300
6000
ENDCHAR
STARTCHAR C024520
ENCODING 10576
SWIDTH 1000 0
DWIDTH 10 0
BBX 9 8 1 -1
BITMAP
0600
6700
DF80
F780
F780
F780
7F00
6000
ENDCHAR
STARTCHAR C024521
ENCODING 10577
SWIDTH 1000 0
DWIDTH 10 0
BBX 9 7 1 -1
BITMAP
6300
DD80
F780
FF80
F780
7F00
6000
ENDCHAR
STARTCHAR C024522
ENCODING 10578
SWIDTH 1000 0
DWIDTH 10 0
BBX 9 8 1 -1
BITMAP
0C00
7B00
FD80
D980
D980
D980
7B00
6000
ENDCHAR
STARTCHAR C024523
ENCODING 10579
SWIDTH 1000 0
DWIDTH 10 0
BBX 9 7 1 -1
BITMAP
7F00
F780
F780
F780
FF80
7F00
6000
ENDCHAR
STARTCHAR C024524
ENCODING 10580
SWIDTH 1000 0
DWIDTH 10 0
BBX 9 7 1 -1
BITMAP
7300
FD80
FF80
F780
F780
7700
6000
ENDCHAR
STARTCHAR C024525
ENCODING 10581
SWIDTH 1000 0
DWIDTH 10 0
BBX 9 7 1 -1
BITMAP
7B00
C180
D980
D980
D980
7B00
6000
ENDCHAR
STARTCHAR C024526
ENCODING 10582
SWIDTH 1000 0
DWIDTH 10 0
BBX 9 7 1 -1
BITMAP
6300
D980
D980
D980
D980
7B00
3800
ENDCHAR
STARTCHAR C024527
ENCODING 10583
SWIDTH 1000 0
DWIDTH 10 0
BBX 9 7 1 -1
BITMAP
7300
F180
FD80
F980
FD80
7F00
6000
ENDCHAR
STARTCHAR C024530
ENCODING 10584
SWIDTH 1000 0
DWIDTH 10 0
BBX 9 7 1 -1
BITMAP
7B00
D980
D980
D980
D980
7B00
6000
ENDCHAR
STARTCHAR C024531
ENCODING 10585
SWIDTH 1000 0
DWIDTH 10 0
BBX 9 7 1 -1
BITMAP
6300
FF80
FB80
FB80
FB80
6300
6000
ENDCHAR
STARTCHAR C024532
ENCODING 10586
SWIDTH 1000 0
DWIDTH 10 0
BBX 9 7 1 -1
BITMAP
6300
FF80
F780
F780
F780
6300
6000
ENDCHAR
STARTCHAR C024533
ENCODING 10587
SWIDTH 1000 0
DWIDTH 10 0
BBX 9 7 1 -1
BITMAP
6300
DD80
F780
F780
DD80
6300
6000
ENDCHAR
STARTCHAR C024534
ENCODING 10588
SWIDTH 1000 0
DWIDTH 10 0
BBX 9 7 1 -1
BITMAP
7F00
F780
F780
F780
FD80
7300
6000
ENDCHAR
STARTCHAR C024535
ENCODING 10589
SWIDTH 1000 0
DWIDTH 10 0
BBX 9 7 1 -1
BITMAP
7F00
F780
F780
F780
DF80
6700
6600
ENDCHAR
STARTCHAR C024536
ENCODING 10590
SWIDTH 1000 0
DWIDTH 10 0
BBX 9 7 1 -1
BITMAP
6300
DD80
D980
D980
D980
6300
6000
ENDCHAR
STARTCHAR C024537
ENCODING 10591
SWIDTH 1000 0
DWIDTH 10 0
BBX 9 7 1 -1
BITMAP
7F00
F180
DD80
FD80
DD80
6300
6000
ENDCHAR
STARTCHAR C024540
ENCODING 10592
SWIDTH 1000 0
DWIDTH 10 0
BBX 9 7 1 -1
BITMAP
7B00
FD80
D980
D980
D980
6F00
6000
ENDCHAR
STARTCHAR C024541
ENCODING 10593
SWIDTH 1000 0
DWIDTH 10 0
BBX 9 7 1 -1
BITMAP
6300
F780
F780
F780
F780
7F00
6000
ENDCHAR
STARTCHAR C024542
ENCODING 10594
SWIDTH 1000 0
DWIDTH 10 0
BBX 9 7 1 -1
BITMAP
6300
F180
FD80
DD80
D980
6300
6000
ENDCHAR
STARTCHAR C024543
ENCODING 10595
SWIDTH 1000 0
DWIDTH 10 0
BBX 9 7 1 -1
BITMAP
6300
F980
FF80
FF80
F780
7300
6000
ENDCHAR
STARTCHAR C024544
ENCODING 10596
SWIDTH 1000 0
DWIDTH 10 0
BBX 9 7 1 -1
BITMAP
6300
CD80
D980
D980
CD80
6300
6000
ENDCHAR
STARTCHAR C024545
ENCODING 10597
SWIDTH 1000 0
DWIDTH 10 0
BBX 9 7 1 -1
BITMAP
7300
FD80
FD80
DD80
D980
7B00
6000
ENDCHAR
STARTCHAR C024546
ENCODING 10598
SWIDTH 1000 0
DWIDTH 10 0
BBX 9 7 1 -1
BITMAP
6300
FD80
D980
F180
FF80
6300
6000
ENDCHAR
STARTCHAR C024547
ENCODING 10599
SWIDTH 1000 0
DWIDTH 10 0
BBX 9 7 1 -1
BITMAP
6F00
FD80
CD80
CD80
CD80
6F00
6000
ENDCHAR
STARTCHAR C024550
ENCODING 10600
SWIDTH 1000 0
DWIDTH 10 0
BBX 9 7 1 -1
BITMAP
7F00
F780
F780
DD80
F180
7F00
6000
ENDCHAR
STARTCHAR C024551
ENCODING 10601
SWIDTH 1000 0
DWIDTH 10 0
BBX 9 7 1 -1
BITMAP
7F00
F780
FF80
F780
F780
7F00
6000
ENDCHAR
STARTCHAR C024552
ENCODING 10602
SWIDTH 1000 0
DWIDTH 10 0
BBX 9 7 1 -1
BITMAP
6F00
DD80
FD80
FD80
FF80
6F00
6000
ENDCHAR
STARTCHAR C024553
ENCODING 10603
SWIDTH 1000 0
DWIDTH 10 0
BBX 9 7 1 -1
BITMAP
7F00
F180
FD80
F780
F780
7F00
6000
ENDCHAR
STARTCHAR C024554
ENCODING 10604
SWIDTH 1000 0
DWIDTH 10 0
BBX 9 7 1 -1
BITMAP
7F00
F780
FF80
F780
F780
7F00
6000
ENDCHAR
STARTCHAR C024555
ENCODING 10605
SWIDTH 1000 0
DWIDTH 10 0
BBX 9 7 1 -1
BITMAP
7F00
CD80
CD80
D980
D980
7B00
6000
ENDCHAR
STARTCHAR C024556
ENCODING 10606
SWIDTH 1000 0
DWIDTH 10 0
BBX 9 7 1 -1
BITMAP
7F00
F780
FF80
F780
F780
7F00
6000
ENDCHAR
STARTCHAR C024557
ENCODING 10607
SWIDTH 1000 0
DWIDTH 10 0
BBX 9 7 1 -1
BITMAP
7F00
F780
F780
DF80
F780
7F00
6000
ENDCHAR
STARTCHAR C024560
ENCODING 10608
SWIDTH 1000 0
DWIDTH 10 0
BBX 9 7 1 -1
BITMAP
7F00
FF80
FF80
FF80
FF80
7F00
3600
ENDCHAR
STARTCHAR C024561
ENCODING 10609
SWIDTH 1000 0
DWIDTH 10 0
BBX 9 7 1 -1
BITMAP
7700
FF80
F780
F780
F780
7700
3600
ENDCHAR
STARTCHAR C024562
ENCODING 10610
SWIDTH 1000 0
DWIDTH 10 0
BBX 9 7 1 -1
BITMAP
7F00
FF80
F780
FD80
F980
7B00
3E00
ENDCHAR
STARTCHAR C024563
ENCODING 10611
SWIDTH 1000 0
DWIDTH 10 0
BBX 9 7 1 -1
BITMAP
7F00
F780
FF80
F780
FF80
7F00
3600
ENDCHAR
STARTCHAR C024564
ENCODING 10612
SWIDTH 1000 0
DWIDTH 10 0
BBX 9 7 1 -1
BITMAP
7F00
FF80
FF80
FF80
FF80
7700
3600
ENDCHAR
STARTCHAR C024565
ENCODING 10613
SWIDTH 1000 0
DWIDTH 10 0
BBX 9 7 1 -1
BITMAP
7F00
FD80
FF80
F380
F380
7F00
3700
ENDCHAR
STARTCHAR C024566
ENCODING 10614
SWIDTH 1000 0
DWIDTH 10 0
BBX 3 4 4 3
BITMAP
E0
60
60
60
ENDCHAR
STARTCHAR C024567
ENCODING 10615
SWIDTH 1000 0
DWIDTH 10 0
BBX 3 5 4 3
BITMAP
E0
60
C0
00
E0
ENDCHAR
STARTCHAR C024570
ENCODING 10616
SWIDTH 1000 0
DWIDTH 10 0
BBX 4 5 3 3
BITMAP
70
30
70
F0
70
ENDCHAR
STARTCHAR C024571
ENCODING 10617
SWIDTH 1000 0
DWIDTH 10 0
BBX 5 4 3 4
BITMAP
30
70
F0
F8
ENDCHAR
STARTCHAR C024572
ENCODING 10618
SWIDTH 1000 0
DWIDTH 10 0
BBX 2 3 5 4
BITMAP
C0
C0
C0
ENDCHAR
STARTCHAR C024573
ENCODING 10619
SWIDTH 1000 0
DWIDTH 10 0
BBX 3 4 4 -1
BITMAP
60
E0
60
60
ENDCHAR
STARTCHAR C024574
ENCODING 10620
SWIDTH 1000 0
DWIDTH 10 0
BBX 3 5 4 -1
BITMAP
C0
60
C0
00
E0
ENDCHAR
STARTCHAR C024575
ENCODING 10621
SWIDTH 1000 0
DWIDTH 10 0
BBX 3 4 4 -1
BITMAP
E0
60
60
E0
ENDCHAR
STARTCHAR C024576
ENCODING 10622
SWIDTH 1000 0
DWIDTH 10 0
BBX 5 5 3 -1
BITMAP
30
70
F0
F8
30
ENDCHAR
STARTCHAR C024577
ENCODING 10623
SWIDTH 1000 0
DWIDTH 10 0
BBX 0 0 0 0
BITMAP
ENDCHAR
STARTCHAR C025040
ENCODING 10784
SWIDTH 1000 0
DWIDTH 10 0
BBX 1 6 10 2
BITMAP
80
80
00
00
00
80
ENDCHAR
STARTCHAR C025041
ENCODING 10785
SWIDTH 1000 0
DWIDTH 10 0
BBX 6 6 2 -1
BITMAP
30
60
38
7C
FC
7C
ENDCHAR
STARTCHAR C025042
ENCODING 10786
SWIDTH 1000 0
DWIDTH 10 0
BBX 8 9 1 -1
BITMAP
30
30
F8
6C
3C
7F
DB
F3
6E
ENDCHAR
STARTCHAR C025043
ENCODING 10787
SWIDTH 1000 0
DWIDTH 10 0
BBX 5 3 3 -1
BITMAP
18
00
C0
ENDCHAR
STARTCHAR C025044
ENCODING 10788
SWIDTH 1000 0
DWIDTH 10 0
BBX 7 6 2 0
BITMAP
0C
0C
06
06
F0
E0
ENDCHAR
STARTCHAR C025045
ENCODING 10789
SWIDTH 1000 0
DWIDTH 10 0
BBX 4 5 3 0
BITMAP
60
30
F0
30
30
ENDCHAR
STARTCHAR C025046
ENCODING 10790
SWIDTH 1000 0
DWIDTH 10 0
BBX 6 7 2 0
BITMAP
30
18
38
EC
0C
0C
18
ENDCHAR
STARTCHAR C025047
ENCODING 10791
SWIDTH 1000 0
DWIDTH 10 0
BBX 5 5 3 -1
BITMAP
30
F0
60
F0
38
ENDCHAR
STARTCHAR C025050
ENCODING 10792
SWIDTH 1000 0
DWIDTH 10 0
BBX 7 8 2 -1
BITMAP
30
18
38
70
30
78
D8
0E
ENDCHAR
STARTCHAR C025051
ENCODING 10793
SWIDTH 1000 0
DWIDTH 10 0
BBX 5 5 3 -1
BITMAP
78
60
78
F8
F0
ENDCHAR
STARTCHAR C025052
ENCODING 10794
SWIDTH 1000 0
DWIDTH 10 0
BBX 8 8 2 -1
BITMAP
60
66
63
60
7E
E6
6C
F8
ENDCHAR
STARTCHAR C025053
ENCODING 10795
SWIDTH 1000 0
DWIDTH 10 0
BBX 9 7 1 0
BITMAP
3000
6000
7F00
6F00
6D80
CC00
D800
ENDCHAR
STARTCHAR C025054
ENCODING 10796
SWIDTH 1000 0
DWIDTH 10 0
BBX 9 7 1 0
BITMAP
3180
6000
7F00
6F00
6D80
CC00
D800
ENDCHAR
STARTCHAR C025055
ENCODING 10797
SWIDTH 1000 0
DWIDTH 10 0
BBX 6 8 2 -1
BITMAP
3C
78
1C
F8
18
FC
C0
78
ENDCHAR
STARTCHAR C025056
ENCODING 10798
SWIDTH 1000 0
DWIDTH 10 0
BBX 8 8 2 -1
BITMAP
3F
78
1C
F8
18
FC
C0
78
ENDCHAR
STARTCHAR C025057
ENCODING 10799
SWIDTH 1000 0
DWIDTH 10 0
BBX 4 8 3 -1
BITMAP
30
60
60
C0
C0
60
60
30
ENDCHAR
STARTCHAR C025060
ENCODING 10800
SWIDTH 1000 0
DWIDTH 10 0
BBX 6 8 3 -1
BITMAP
30
6C
60
C0
C0
60
60
30
ENDCHAR
STARTCHAR C025061
ENCODING 10801
SWIDTH 1000 0
DWIDTH 10 0
BBX 7 8 2 -1
BITMAP
0C
CC
FE
CC
CC
CC
78
18
ENDCHAR
STARTCHAR C025062
ENCODING 10802
SWIDTH 1000 0
DWIDTH 10 0
BBX 7 8 2 -1
BITMAP
6C
CC
FE
CC
CC
CC
78
18
ENDCHAR
STARTCHAR C025063
ENCODING 10803
SWIDTH 1000 0
DWIDTH 10 0
BBX 5 6 3 0
BITMAP
F8
00
00
00
00
F8
ENDCHAR
STARTCHAR C025064
ENCODING 10804
SWIDTH 1000 0
DWIDTH 10 0
BBX 7 6 3 0
BITMAP
FE
00
00
00
00
F8
ENDCHAR
STARTCHAR C025065
ENCODING 10805
SWIDTH 1000 0
DWIDTH 10 0
BBX 6 9 2 -2
BITMAP
30
3C
F8
18
0C
FC
C0
60
30
ENDCHAR
STARTCHAR C025066
ENCODING 10806
SWIDTH 1000 0
DWIDTH 10 0
BBX 7 8 2 -1
BITMAP
36
3C
78
18
FC
C0
00
70
ENDCHAR
STARTCHAR C025067
ENCODING 10807
SWIDTH 1000 0
DWIDTH 10 0
BBX 5 3 4 -1
BITMAP
18
30
E0
ENDCHAR
STARTCHAR C025070
ENCODING 10808
SWIDTH 1000 0
DWIDTH 10 0
BBX 5 3 4 -1
BITMAP
18
30
E0
ENDCHAR
STARTCHAR C025071
ENCODING 10809
SWIDTH 1000 0
DWIDTH 10 0
BBX 9 7 1 -1
BITMAP
FF80
0C00
3C00
6C00
3C00
1800
1800
ENDCHAR
STARTCHAR C025072
ENCODING 10810
SWIDTH 1000 0
DWIDTH 10 0
BBX 9 9 1 -1
BITMAP
0300
0380
FF80
0C00
3C00
6C00
3C00
1800
1800
ENDCHAR
STARTCHAR C025073
ENCODING 10811
SWIDTH 1000 0
DWIDTH 10 0
BBX 9 8 1 -1
BITMAP
3600
3600
FF80
3600
3600
3000
3000
1F00
ENDCHAR
STARTCHAR C025074
ENCODING 10812
SWIDTH 1000 0
DWIDTH 10 0
BBX 9 8 1 -1
BITMAP
3780
3600
FF80
3600
3600
3000
3000
1F00
ENDCHAR
STARTCHAR C025075
ENCODING 10813
SWIDTH 1000 0
DWIDTH 10 0
BBX 8 8 2 -1
BITMAP
0C
78
1F
F8
30
30
18
0C
ENDCHAR
STARTCHAR C025076
ENCODING 10814
SWIDTH 1000 0
DWIDTH 10 0
BBX 8 8 2 -1
BITMAP
0C
78
1F
F8
30
30
18
0C
ENDCHAR
STARTCHAR C025077
ENCODING 10815
SWIDTH 1000 0
DWIDTH 10 0
BBX 7 8 2 -1
BITMAP
60
60
F0
7E
C0
C0
00
0E
ENDCHAR
STARTCHAR C025100
ENCODING 10816
SWIDTH 1000 0
DWIDTH 10 0
BBX 7 8 2 -1
BITMAP
60
66
F0
7E
C0
C0
00
0E
ENDCHAR
STARTCHAR C025101
ENCODING 10817
SWIDTH 1000 0
DWIDTH 10 0
BBX 7 9 2 -1
BITMAP
60
60
F0
60
7C
76
06
06
3C
ENDCHAR
STARTCHAR C025102
ENCODING 10818
SWIDTH 1000 0
DWIDTH 10 0
BBX 8 9 2 -1
BITMAP
60
60
F7
60
7C
76
06
06
3C
ENDCHAR
STARTCHAR C025103
ENCODING 10819
SWIDTH 1000 0
DWIDTH 10 0
BBX 6 5 2 -2
BITMAP
38
EC
0C
0C
38
ENDCHAR
STARTCHAR C025104
ENCODING 10820
SWIDTH 1000 0
DWIDTH 10 0
BBX 7 6 2 0
BITMAP
18
FE
06
06
06
3C
ENDCHAR
STARTCHAR C025105
ENCODING 10821
SWIDTH 1000 0
DWIDTH 10 0
BBX 7 7 3 0
BITMAP
06
F8
0C
0C
0C
18
70
ENDCHAR
STARTCHAR C025106
ENCODING 10822
SWIDTH 1000 0
DWIDTH 10 0
BBX 7 8 2 -1
BITMAP
3E
F8
30
30
30
30
30
1C
ENDCHAR
STARTCHAR C025107
ENCODING 10823
SWIDTH 1000 0
DWIDTH 10 0
BBX 8 8 2 -1
BITMAP
3E
F8
33
30
30
30
30
1C
ENDCHAR
STARTCHAR C025110
ENCODING 10824
SWIDTH 1000 0
DWIDTH 10 0
BBX 5 8 2 -1
BITMAP
60
60
78
30
E0
C0
C0
78
ENDCHAR
STARTCHAR C025111
ENCODING 10825
SWIDTH 1000 0
DWIDTH 10 0
BBX 5 8 2 -1
BITMAP
60
60
78
30
E0
C0
C0
78
ENDCHAR
STARTCHAR C025112
ENCODING 10826
SWIDTH 1000 0
DWIDTH 10 0
BBX 8 7 1 -1
BITMAP
38
33
6C
6C
CC
7E
3B
ENDCHAR
STARTCHAR C025113
ENCODING 10827
SWIDTH 1000 0
DWIDTH 10 0
BBX 7 6 2 0
BITMAP
7E
C0
C0
C0
F0
DE
ENDCHAR
STARTCHAR C025114
ENCODING 10828
SWIDTH 1000 0
DWIDTH 10 0
BBX 9 7 1 -1
BITMAP
1800
7E00
7B00
FB00
F700
6F00
0780
ENDCHAR
STARTCHAR C025115
ENCODING 10829
SWIDTH 1000 0
DWIDTH 10 0
BBX 8 8 2 -1
BITMAP
60
60
FE
F6
66
FE
FF
D8
ENDCHAR
STARTCHAR C025116
ENCODING 10830
SWIDTH 1000 0
DWIDTH 10 0
BBX 9 6 1 0
BITMAP
3E00
7B00
D980
D980
F300
7000
ENDCHAR
STARTCHAR C025117
ENCODING 10831
SWIDTH 1000 0
DWIDTH 10 0
BBX 8 8 2 -1
BITMAP
0C
0C
3E
0C
0C
0C
FE
3B
ENDCHAR
STARTCHAR C025120
ENCODING 10832
SWIDTH 1000 0
DWIDTH 10 0
BBX 8 8 2 -1
BITMAP
0F
0C
3E
0C
0C
0C
FE
38
ENDCHAR
STARTCHAR C025121
ENCODING 10833
SWIDTH 1000 0
DWIDTH 10 0
BBX 8 9 2 -1
BITMAP
07
0F
0F
3E
0C
0C
0C
FE
38
ENDCHAR
STARTCHAR C025122
ENCODING 10834
SWIDTH 1000 0
DWIDTH 10 0
BBX 8 8 1 -1
BITMAP
06
F6
67
66
C6
CC
6C
38
ENDCHAR
STARTCHAR C025123
ENCODING 10835
SWIDTH 1000 0
DWIDTH 10 0
BBX 9 8 1 -1
BITMAP
0780
F600
6700
6600
C600
CC00
6C00
3800
ENDCHAR
STARTCHAR C025124
ENCODING 10836
SWIDTH 1000 0
DWIDTH 10 0
BBX 9 8 1 -1
BITMAP
0780
F780
6700
6600
C600
CC00
6C00
3800
ENDCHAR
STARTCHAR C025125
ENCODING 10837
SWIDTH 1000 0
DWIDTH 10 0
BBX 9 6 1 0
BITMAP
0C00
0000
3000
1800
0F00
ED80
ENDCHAR
STARTCHAR C025126
ENCODING 10838
SWIDTH 1000 0
DWIDTH 10 0
BBX 9 6 1 0
BITMAP
0F00
0000
3300
1800
0F00
ED80
ENDCHAR
STARTCHAR C025127
ENCODING 10839
SWIDTH 1000 0
DWIDTH 10 0
BBX 9 6 1 0
BITMAP
0F80
0780
3000
1800
0F00
ED80
ENDCHAR
STARTCHAR C025130
ENCODING 10840
SWIDTH 1000 0
DWIDTH 10 0
BBX 9 4 1 1
BITMAP
3800
6C00
C600
0380
ENDCHAR
STARTCHAR C025131
ENCODING 10841
SWIDTH 1000 0
DWIDTH 10 0
BBX 9 4 1 1
BITMAP
3E00
6C00
C600
0380
ENDCHAR
STARTCHAR C025132
ENCODING 10842
SWIDTH 1000 0
DWIDTH 10 0
BBX 9 5 1 1
BITMAP
0700
3F00
6C00
C600
0380
ENDCHAR
STARTCHAR C025133
ENCODING 10843
SWIDTH 1000 0
DWIDTH 10 0
BBX 8 7 2 -1
BITMAP
3E
0C
3C
0C
0C
FE
FF
ENDCHAR
STARTCHAR C025134
ENCODING 10844
SWIDTH 1000 0
DWIDTH 10 0
BBX 8 8 1 -1
BITMAP
3E
0F
CC
FE
CC
CC
FE
3F
ENDCHAR
STARTCHAR C025135
ENCODING 10845
SWIDTH 1000 0
DWIDTH 10 0
BBX 9 8 1 -1
BITMAP
3E00
0F80
CD80
FE00
CC00
CC00
FE00
3F00
ENDCHAR
STARTCHAR C025136
ENCODING 10846
SWIDTH 1000 0
DWIDTH 10 0
BBX 6 8 2 -1
BITMAP
30
F8
30
F8
30
70
FC
E0
ENDCHAR
STARTCHAR C025137
ENCODING 10847
SWIDTH 1000 0
DWIDTH 10 0
BBX 8 6 1 0
BITMAP
38
18
1E
7E
F7
EC
ENDCHAR
STARTCHAR C025140
ENCODING 10848
SWIDTH 1000 0
DWIDTH 10 0
BBX 8 9 1 -2
BITMAP
30
30
33
30
F0
F3
73
3E
0C
ENDCHAR
STARTCHAR C025141
ENCODING 10849
SWIDTH 1000 0
DWIDTH 10 0
BBX 8 7 1 -1
BITMAP
D8
DC
7E
F3
F3
F6
0C
ENDCHAR
STARTCHAR C025142
ENCODING 10850
SWIDTH 1000 0
DWIDTH 10 0
BBX 6 8 3 -1
BITMAP
60
C0
E0
D8
F8
CC
D8
78
ENDCHAR
STARTCHAR C025143
ENCODING 10851
SWIDTH 1000 0
DWIDTH 10 0
BBX 5 4 3 0
BITMAP
F8
F8
F8
60
ENDCHAR
STARTCHAR C025144
ENCODING 10852
SWIDTH 1000 0
DWIDTH 10 0
BBX 8 7 1 0
BITMAP
18
60
7F
73
F3
36
18
ENDCHAR
STARTCHAR C025145
ENCODING 10853
SWIDTH 1000 0
DWIDTH 10 0
BBX 6 4 2 0
BITMAP
18
FC
DC
1C
ENDCHAR
STARTCHAR C025146
ENCODING 10854
SWIDTH 1000 0
DWIDTH 10 0
BBX 8 7 1 0
BITMAP
D8
DE
FF
CF
CF
DE
0C
ENDCHAR
STARTCHAR C025147
ENCODING 10855
SWIDTH 1000 0
DWIDTH 10 0
BBX 5 6 3 -1
BITMAP
60
78
70
60
F0
18
ENDCHAR
STARTCHAR C025150
ENCODING 10856
SWIDTH 1000 0
DWIDTH 10 0
BBX 6 8 2 -1
BITMAP
30
30
3C
30
30
70
FC
F0
ENDCHAR
STARTCHAR C025151
ENCODING 10857
SWIDTH 1000 0
DWIDTH 10 0
BBX 6 8 2 -1
BITMAP
60
F0
C0
FC
EC
CC
0C
38
ENDCHAR
STARTCHAR C025152
ENCODING 10858
SWIDTH 1000 0
DWIDTH 10 0
BBX 5 8 3 -1
BITMAP
18
D8
D8
D8
D8
18
30
30
ENDCHAR
STARTCHAR C025153
ENCODING 10859
SWIDTH 1000 0
DWIDTH 10 0
BBX 7 8 2 -1
BITMAP
18
30
30
7C
C6
36
7C
38
ENDCHAR
STARTCHAR C025154
ENCODING 10860
SWIDTH 1000 0
DWIDTH 10 0
BBX 8 8 1 -1
BITMAP
30
30
7E
3E
36
76
F7
30
ENDCHAR
STARTCHAR C025155
ENCODING 10861
SWIDTH 1000 0
DWIDTH 10 0
BBX 7 8 2 -1
BITMAP
78
30
30
7C
C6
06
06
3C
ENDCHAR
STARTCHAR C025156
ENCODING 10862
SWIDTH 1000 0
DWIDTH 10 0
BBX 5 6 3 -1
BITMAP
C0
C0
F8
D8
D8
F0
ENDCHAR
STARTCHAR C025157
ENCODING 10863
SWIDTH 1000 0
DWIDTH 10 0
BBX 9 8 1 -1
BITMAP
3000
3800
FF00
3B00
3180
7300
F300
3000
ENDCHAR
STARTCHAR C025160
ENCODING 10864
SWIDTH 1000 0
DWIDTH 10 0
BBX 6 8 2 -1
BITMAP
30
70
60
FC
EC
CC
FC
18
ENDCHAR
STARTCHAR C025161
ENCODING 10865
SWIDTH 1000 0
DWIDTH 10 0
BBX 8 7 2 -1
BITMAP
38
30
7E
3E
3E
FB
03
ENDCHAR
STARTCHAR C025162
ENCODING 10866
SWIDTH 1000 0
DWIDTH 10 0
BBX 7 7 2 -1
BITMAP
F8
60
FE
1C
78
60
3C
ENDCHAR
STARTCHAR C025163
ENCODING 10867
SWIDTH 1000 0
DWIDTH 10 0
BBX 7 8 2 -1
BITMAP
30
30
60
60
70
D8
1E
0C
ENDCHAR
STARTCHAR C025164
ENCODING 10868
SWIDTH 1000 0
DWIDTH 10 0
BBX 0 0 0 0
BITMAP
ENDCHAR
STARTCHAR C025165
ENCODING 10869
SWIDTH 1000 0
DWIDTH 10 0
BBX 1 8 10 0
BITMAP
80
80
80
00
00
00
00
80
ENDCHAR
STARTCHAR C025166
ENCODING 10870
SWIDTH 1000 0
DWIDTH 10 0
BBX 0 0 0 0
BITMAP
ENDCHAR
STARTCHAR C025167
ENCODING 10871
SWIDTH 1000 0
DWIDTH 10 0
BBX 0 0 0 0
BITMAP
ENDCHAR
STARTCHAR C025170
ENCODING 10872
SWIDTH 1000 0
DWIDTH 10 0
BBX 0 0 0 0
BITMAP
ENDCHAR
STARTCHAR C025171
ENCODING 10873
SWIDTH 1000 0
DWIDTH 10 0
BBX 0 0 0 0
BITMAP
ENDCHAR
STARTCHAR C025172
ENCODING 10874
SWIDTH 1000 0
DWIDTH 10 0
BBX 1 6 10 2
BITMAP
80
80
00
00
00
80
ENDCHAR
STARTCHAR C025173
ENCODING 10875
SWIDTH 1000 0
DWIDTH 10 0
BBX 0 0 0 0
BITMAP
ENDCHAR
STARTCHAR C025174
ENCODING 10876
SWIDTH 1000 0
DWIDTH 10 0
BBX 0 0 0 0
BITMAP
ENDCHAR
STARTCHAR C025175
ENCODING 10877
SWIDTH 1000 0
DWIDTH 10 0
BBX 0 0 0 0
BITMAP
ENDCHAR
STARTCHAR C025176
ENCODING 10878
SWIDTH 1000 0
DWIDTH 10 0
BBX 0 0 0 0
BITMAP
ENDCHAR
STARTCHAR C025177
ENCODING 10879
SWIDTH 1000 0
DWIDTH 10 0
BBX 0 0 0 0
BITMAP
ENDCHAR
STARTCHAR C025440
ENCODING 11040
SWIDTH 1000 0
DWIDTH 10 0
BBX 1 4 10 0
BITMAP
80
00
00
80
ENDCHAR
STARTCHAR C025441
ENCODING 11041
SWIDTH 1000 0
DWIDTH 10 0
BBX 5 4 3 0
BITMAP
F8
78
70
C0
ENDCHAR
STARTCHAR C025442
ENCODING 11042
SWIDTH 1000 0
DWIDTH 10 0
BBX 7 5 2 1
BITMAP
FE
36
3C
30
60
ENDCHAR
STARTCHAR C025443
ENCODING 11043
SWIDTH 1000 0
DWIDTH 10 0
BBX 5 5 2 -1
BITMAP
18
30
F0
30
30
ENDCHAR
STARTCHAR C025444
ENCODING 11044
SWIDTH 1000 0
DWIDTH 10 0
BBX 5 7 3 -1
BITMAP
18
30
E0
60
60
60
60
ENDCHAR
STARTCHAR C025445
ENCODING 11045
SWIDTH 1000 0
DWIDTH 10 0
BBX 5 4 3 0
BITMAP
F8
D8
D8
30
ENDCHAR
STARTCHAR C025446
ENCODING 11046
SWIDTH 1000 0
DWIDTH 10 0
BBX 7 7 2 0
BITMAP
30
FE
C6
C6
0C
0C
18
ENDCHAR
STARTCHAR C025447
ENCODING 11047
SWIDTH 1000 0
DWIDTH 10 0
BBX 6 4 2 -1
BITMAP
FC
30
30
FC
ENDCHAR
STARTCHAR C025450
ENCODING 11048
SWIDTH 1000 0
DWIDTH 10 0
BBX 8 6 1 0
BITMAP
FF
18
18
18
18
FF
ENDCHAR
STARTCHAR C025451
ENCODING 11049
SWIDTH 1000 0
DWIDTH 10 0
BBX 6 5 3 -1
BITMAP
30
FC
70
30
70
ENDCHAR
STARTCHAR C025452
ENCODING 11050
SWIDTH 1000 0
DWIDTH 10 0
BBX 7 8 2 -1
BITMAP
18
18
FE
38
78
D8
18
78
ENDCHAR
STARTCHAR C025453
ENCODING 11051
SWIDTH 1000 0
DWIDTH 10 0
BBX 7 7 2 0
BITMAP
30
30
FE
36
36
6C
DC
ENDCHAR
STARTCHAR C025454
ENCODING 11052
SWIDTH 1000 0
DWIDTH 10 0
BBX 8 7 2 0
BITMAP
33
30
FE
36
36
6C
DC
ENDCHAR
STARTCHAR C025455
ENCODING 11053
SWIDTH 1000 0
DWIDTH 10 0
BBX 6 8 2 -1
BITMAP
30
30
F8
30
FC
30
30
18
ENDCHAR
STARTCHAR C025456
ENCODING 11054
SWIDTH 1000 0
DWIDTH 10 0
BBX 7 8 2 -1
BITMAP
36
30
F8
30
FC
30
30
18
ENDCHAR
STARTCHAR C025457
ENCODING 11055
SWIDTH 1000 0
DWIDTH 10 0
BBX 6 7 2 -1
BITMAP
30
3C
6C
D8
18
30
60
ENDCHAR
STARTCHAR C025460
ENCODING 11056
SWIDTH 1000 0
DWIDTH 10 0
BBX 8 8 2 -1
BITMAP
33
3C
6C
CC
18
30
60
C0
ENDCHAR
STARTCHAR C025461
ENCODING 11057
SWIDTH 1000 0
DWIDTH 10 0
BBX 8 7 1 -1
BITMAP
30
3F
6C
CC
18
18
30
ENDCHAR
STARTCHAR C025462
ENCODING 11058
SWIDTH 1000 0
DWIDTH 10 0
BBX 9 8 1 -1
BITMAP
0180
3000
3F00
6C00
CC00
1800
1800
3000
ENDCHAR
STARTCHAR C025463
ENCODING 11059
SWIDTH 1000 0
DWIDTH 10 0
BBX 6 6 2 0
BITMAP
FC
0C
0C
0C
0C
FC
ENDCHAR
STARTCHAR C025464
ENCODING 11060
SWIDTH 1000 0
DWIDTH 10 0
BBX 7 7 2 0
BITMAP
06
FC
0C
0C
0C
0C
FC
ENDCHAR
STARTCHAR C025465
ENCODING 11061
SWIDTH 1000 0
DWIDTH 10 0
BBX 9 8 1 -1
BITMAP
3600
3600
FF80
3600
3600
0C00
0C00
1800
ENDCHAR
STARTCHAR C025466
ENCODING 11062
SWIDTH 1000 0
DWIDTH 10 0
BBX 9 8 1 -1
BITMAP
3780
3600
FF80
3600
3600
0C00
0C00
1800
ENDCHAR
STARTCHAR C025467
ENCODING 11063
SWIDTH 1000 0
DWIDTH 10 0
BBX 6 6 3 0
BITMAP
C0
60
CC
18
30
E0
ENDCHAR
STARTCHAR C025470
ENCODING 11064
SWIDTH 1000 0
DWIDTH 10 0
BBX 6 5 3 0
BITMAP
60
CC
18
30
E0
ENDCHAR
STARTCHAR C025471
ENCODING 11065
SWIDTH 1000 0
DWIDTH 10 0
BBX 7 6 2 0
BITMAP
FC
0C
18
18
3C
66
ENDCHAR
STARTCHAR C025472
ENCODING 11066
SWIDTH 1000 0
DWIDTH 10 0
BBX 7 7 2 0
BITMAP
06
FC
0C
18
18
3C
66
ENDCHAR
STARTCHAR C025473
ENCODING 11067
SWIDTH 1000 0
DWIDTH 10 0
BBX 7 7 2 0
BITMAP
60
60
FE
6C
60
60
3E
ENDCHAR
STARTCHAR C025474
ENCODING 11068
SWIDTH 1000 0
DWIDTH 10 0
BBX 9 7 1 0
BITMAP
3180
3700
FE00
3600
3000
3000
1F00
ENDCHAR
STARTCHAR C025475
ENCODING 11069
SWIDTH 1000 0
DWIDTH 10 0
BBX 6 7 2 -1
BITMAP
C0
CC
6C
18
18
30
60
ENDCHAR
STARTCHAR C025476
ENCODING 11070
SWIDTH 1000 0
DWIDTH 10 0
BBX 8 9 2 -1
BITMAP
03
00
C3
CC
6C
18
18
30
60
ENDCHAR
STARTCHAR C025477
ENCODING 11071
SWIDTH 1000 0
DWIDTH 10 0
BBX 6 8 2 -1
BITMAP
30
3C
6C
FC
18
18
30
E0
ENDCHAR
STARTCHAR C025500
ENCODING 11072
SWIDTH 1000 0
DWIDTH 10 0
BBX 7 8 2 -1
BITMAP
36
3C
6C
FC
18
18
30
E0
ENDCHAR
STARTCHAR C025501
ENCODING 11073
SWIDTH 1000 0
DWIDTH 10 0
BBX 8 8 2 -1
BITMAP
0C
F8
18
FF
18
30
30
60
ENDCHAR
STARTCHAR C025502
ENCODING 11074
SWIDTH 1000 0
DWIDTH 10 0
BBX 8 8 2 -1
BITMAP
0C
F8
18
FF
18
30
30
60
ENDCHAR
STARTCHAR C025503
ENCODING 11075
SWIDTH 1000 0
DWIDTH 10 0
BBX 5 5 3 -1
BITMAP
60
D8
30
30
60
ENDCHAR
STARTCHAR C025504
ENCODING 11076
SWIDTH 1000 0
DWIDTH 10 0
BBX 7 7 2 -1
BITMAP
36
F6
0C
0C
18
30
60
ENDCHAR
STARTCHAR C025505
ENCODING 11077
SWIDTH 1000 0
DWIDTH 10 0
BBX 7 7 2 -1
BITMAP
36
F6
0C
0C
18
30
60
ENDCHAR
STARTCHAR C025506
ENCODING 11078
SWIDTH 1000 0
DWIDTH 10 0
BBX 8 6 2 0
BITMAP
7C
00
FF
18
18
30
ENDCHAR
STARTCHAR C025507
ENCODING 11079
SWIDTH 1000 0
DWIDTH 10 0
BBX 8 6 1 0
BITMAP
3E
00
FF
18
18
30
ENDCHAR
STARTCHAR C025510
ENCODING 11080
SWIDTH 1000 0
DWIDTH 10 0
BBX 4 7 4 -1
BITMAP
C0
C0
E0
F0
C0
C0
C0
ENDCHAR
STARTCHAR C025511
ENCODING 11081
SWIDTH 1000 0
DWIDTH 10 0
BBX 4 7 4 -1
BITMAP
C0
C0
E0
F0
C0
C0
C0
ENDCHAR
STARTCHAR C025512
ENCODING 11082
SWIDTH 1000 0
DWIDTH 10 0
BBX 8 8 2 -1
BITMAP
18
18
FF
18
18
30
60
60
ENDCHAR
STARTCHAR C025513
ENCODING 11083
SWIDTH 1000 0
DWIDTH 10 0
BBX 7 6 2 0
BITMAP
7C
00
00
00
00
FE
ENDCHAR
STARTCHAR C025514
ENCODING 11084
SWIDTH 1000 0
DWIDTH 10 0
BBX 6 7 2 -1
BITMAP
FC
0C
6C
38
3C
30
E0
ENDCHAR
STARTCHAR C025515
ENCODING 11085
SWIDTH 1000 0
DWIDTH 10 0
BBX 7 8 2 -1
BITMAP
18
FE
0C
18
38
FE
18
18
ENDCHAR
STARTCHAR C025516
ENCODING 11086
SWIDTH 1000 0
DWIDTH 10 0
BBX 5 6 3 0
BITMAP
18
30
30
60
60
C0
ENDCHAR
STARTCHAR C025517
ENCODING 11087
SWIDTH 1000 0
DWIDTH 10 0
BBX 7 4 2 1
BITMAP
6C
6C
C6
06
ENDCHAR
STARTCHAR C025520
ENCODING 11088
SWIDTH 1000 0
DWIDTH 10 0
BBX 7 4 2 1
BITMAP
6C
6C
C6
06
ENDCHAR
STARTCHAR C025521
ENCODING 11089
SWIDTH 1000 0
DWIDTH 10 0
BBX 8 6 2 1
BITMAP
07
06
6C
6C
C6
06
ENDCHAR
STARTCHAR C025522
ENCODING 11090
SWIDTH 1000 0
DWIDTH 10 0
BBX 6 7 3 0
BITMAP
C0
CC
F8
E0
C0
C0
7C
ENDCHAR
STARTCHAR C025523
ENCODING 11091
SWIDTH 1000 0
DWIDTH 10 0
BBX 6 7 3 0
BITMAP
C0
CC
F8
E0
C0
C0
7C
ENDCHAR
STARTCHAR C025524
ENCODING 11092
SWIDTH 1000 0
DWIDTH 10 0
BBX 7 7 3 0
BITMAP
CE
CE
F8
E0
C0
C0
7C
ENDCHAR
STARTCHAR C025525
ENCODING 11093
SWIDTH 1000 0
DWIDTH 10 0
BBX 7 7 2 -1
BITMAP
FE
06
0C
0C
18
30
60
ENDCHAR
STARTCHAR C025526
ENCODING 11094
SWIDTH 1000 0
DWIDTH 10 0
BBX 7 7 2 -1
BITMAP
FE
06
0C
0C
18
30
60
ENDCHAR
STARTCHAR C025527
ENCODING 11095
SWIDTH 1000 0
DWIDTH 10 0
BBX 8 9 2 -1
BITMAP
03
07
FE
06
0C
0C
18
30
60
ENDCHAR
STARTCHAR C025530
ENCODING 11096
SWIDTH 1000 0
DWIDTH 10 0
BBX 9 4 1 0
BITMAP
7800
CE00
0300
0180
ENDCHAR
STARTCHAR C025531
ENCODING 11097
SWIDTH 1000 0
DWIDTH 10 0
BBX 9 4 1 0
BITMAP
7800
CE00
0300
0180
ENDCHAR
STARTCHAR C025532
ENCODING 11098
SWIDTH 1000 0
DWIDTH 10 0
BBX 9 5 1 1
BITMAP
0E00
3E00
6C00
C600
0380
ENDCHAR
STARTCHAR C025533
ENCODING 11099
SWIDTH 1000 0
DWIDTH 10 0
BBX 8 8 2 -1
BITMAP
18
18
FF
18
1E
DE
18
78
ENDCHAR
STARTCHAR C025534
ENCODING 11100
SWIDTH 1000 0
DWIDTH 10 0
BBX 8 8 2 -1
BITMAP
18
1E
FF
18
1E
DE
18
78
ENDCHAR
STARTCHAR C025535
ENCODING 11101
SWIDTH 1000 0
DWIDTH 10 0
BBX 8 8 2 -1
BITMAP
1E
1E
FF
18
1E
DE
18
78
ENDCHAR
STARTCHAR C025536
ENCODING 11102
SWIDTH 1000 0
DWIDTH 10 0
BBX 7 5 2 1
BITMAP
FE
06
0C
38
30
ENDCHAR
STARTCHAR C025537
ENCODING 11103
SWIDTH 1000 0
DWIDTH 10 0
BBX 5 6 3 0
BITMAP
30
00
70
00
E0
38
ENDCHAR
STARTCHAR C025540
ENCODING 11104
SWIDTH 1000 0
DWIDTH 10 0
BBX 7 6 2 0
BITMAP
30
30
60
6C
CC
FE
ENDCHAR
STARTCHAR C025541
ENCODING 11105
SWIDTH 1000 0
DWIDTH 10 0
BBX 6 6 2 0
BITMAP
0C
18
38
18
7C
C0
ENDCHAR
STARTCHAR C025542
ENCODING 11106
SWIDTH 1000 0
DWIDTH 10 0
BBX 8 7 2 -1
BITMAP
FE
30
FF
30
30
30
3E
ENDCHAR
STARTCHAR C025543
ENCODING 11107
SWIDTH 1000 0
DWIDTH 10 0
BBX 5 3 3 0
BITMAP
F8
60
60
ENDCHAR
STARTCHAR C025544
ENCODING 11108
SWIDTH 1000 0
DWIDTH 10 0
BBX 6 6 3 0
BITMAP
C0
7C
D8
78
60
60
ENDCHAR
STARTCHAR C025545
ENCODING 11109
SWIDTH 1000 0
DWIDTH 10 0
BBX 6 4 2 -1
BITMAP
78
18
18
FC
ENDCHAR
STARTCHAR C025546
ENCODING 11110
SWIDTH 1000 0
DWIDTH 10 0
BBX 8 6 1 0
BITMAP
7C
0C
0C
0C
0C
FF
ENDCHAR
STARTCHAR C025547
ENCODING 11111
SWIDTH 1000 0
DWIDTH 10 0
BBX 5 5 3 -1
BITMAP
F8
18
F8
18
F8
ENDCHAR
STARTCHAR C025550
ENCODING 11112
SWIDTH 1000 0
DWIDTH 10 0
BBX 6 7 2 -1
BITMAP
FC
0C
FC
0C
0C
FC
0C
ENDCHAR
STARTCHAR C025551
ENCODING 11113
SWIDTH 1000 0
DWIDTH 10 0
BBX 6 8 2 -1
BITMAP
7C
00
00
FC
0C
0C
18
30
ENDCHAR
STARTCHAR C025552
ENCODING 11114
SWIDTH 1000 0
DWIDTH 10 0
BBX 5 8 3 -1
BITMAP
D8
D8
D8
D8
D8
30
30
60
ENDCHAR
STARTCHAR C025553
ENCODING 11115
SWIDTH 1000 0
DWIDTH 10 0
BBX 8 6 2 0
BITMAP
78
78
78
7B
DE
DC
ENDCHAR
STARTCHAR C025554
ENCODING 11116
SWIDTH 1000 0
DWIDTH 10 0
BBX 6 7 2 -1
BITMAP
C0
C0
C0
CC
D8
F0
60
ENDCHAR
STARTCHAR C025555
ENCODING 11117
SWIDTH 1000 0
DWIDTH 10 0
BBX 6 6 3 0
BITMAP
FC
0C
0C
0C
0C
FC
ENDCHAR
STARTCHAR C025556
ENCODING 11118
SWIDTH 1000 0
DWIDTH 10 0
BBX 5 4 3 0
BITMAP
F8
D8
D8
30
ENDCHAR
STARTCHAR C025557
ENCODING 11119
SWIDTH 1000 0
DWIDTH 10 0
BBX 7 6 2 0
BITMAP
FE
C6
C6
CC
0C
18
ENDCHAR
STARTCHAR C025560
ENCODING 11120
SWIDTH 1000 0
DWIDTH 10 0
BBX 8 8 1 -1
BITMAP
0C
0C
7F
3C
3C
FF
0C
0C
ENDCHAR
STARTCHAR C025561
ENCODING 11121
SWIDTH 1000 0
DWIDTH 10 0
BBX 8 6 1 0
BITMAP
7F
06
18
18
18
FF
ENDCHAR
STARTCHAR C025562
ENCODING 11122
SWIDTH 1000 0
DWIDTH 10 0
BBX 6 7 2 -1
BITMAP
FC
0C
FC
0C
18
30
60
ENDCHAR
STARTCHAR C025563
ENCODING 11123
SWIDTH 1000 0
DWIDTH 10 0
BBX 7 5 2 0
BITMAP
60
06
0C
38
E0
ENDCHAR
STARTCHAR C025564
ENCODING 11124
SWIDTH 1000 0
DWIDTH 10 0
BBX 7 7 2 0
BITMAP
36
FE
C6
C6
0C
0C
18
ENDCHAR
STARTCHAR C025565
ENCODING 11125
SWIDTH 1000 0
DWIDTH 10 0
BBX 5 5 3 -1
BITMAP
60
F8
78
D8
30
ENDCHAR
STARTCHAR C025566
ENCODING 11126
SWIDTH 1000 0
DWIDTH 10 0
BBX 6 4 3 -1
BITMAP
FC
30
60
60
ENDCHAR
STARTCHAR C025567
ENCODING 11127
SWIDTH 1000 0
DWIDTH 10 0
BBX 0 0 0 0
BITMAP
ENDCHAR
STARTCHAR C025570
ENCODING 11128
SWIDTH 1000 0
DWIDTH 10 0
BBX 0 0 0 0
BITMAP
ENDCHAR
STARTCHAR C025571
ENCODING 11129
SWIDTH 1000 0
DWIDTH 10 0
BBX 0 0 0 0
BITMAP
ENDCHAR
STARTCHAR C025572
ENCODING 11130
SWIDTH 1000 0
DWIDTH 10 0
BBX 0 0 0 0
BITMAP
ENDCHAR
STARTCHAR C025573
ENCODING 11131
SWIDTH 1000 0
DWIDTH 10 0
BBX 0 0 0 0
BITMAP
ENDCHAR
STARTCHAR C025574
ENCODING 11132
SWIDTH 1000 0
DWIDTH 10 0
BBX 0 0 0 0
BITMAP
ENDCHAR
STARTCHAR C025575
ENCODING 11133
SWIDTH 1000 0
DWIDTH 10 0
BBX 0 0 0 0
BITMAP
ENDCHAR
STARTCHAR C025576
ENCODING 11134
SWIDTH 1000 0
DWIDTH 10 0
BBX 1 8 10 0
BITMAP
80
80
80
00
00
00
00
80
ENDCHAR
STARTCHAR C025577
ENCODING 11135
SWIDTH 1000 0
DWIDTH 10 0
BBX 0 0 0 0
BITMAP
ENDCHAR
STARTCHAR C026040
ENCODING 11296
SWIDTH 1000 0
DWIDTH 10 0
BBX 1 3 10 -1
BITMAP
80
80
80
ENDCHAR
STARTCHAR C026041
ENCODING 11297
SWIDTH 1000 0
DWIDTH 10 0
BBX 6 8 2 -1
BITMAP
30
78
78
78
7C
CC
CC
C0
ENDCHAR
STARTCHAR C026042
ENCODING 11298
SWIDTH 1000 0
DWIDTH 10 0
BBX 5 7 3 0
BITMAP
F8
C0
C0
F8
D8
D8
F0
ENDCHAR
STARTCHAR C026043
ENCODING 11299
SWIDTH 1000 0
DWIDTH 10 0
BBX 6 8 3 -1
BITMAP
F8
18
18
F0
1C
0C
18
F0
ENDCHAR
STARTCHAR C026044
ENCODING 11300
SWIDTH 1000 0
DWIDTH 10 0
BBX 5 7 3 0
BITMAP
F8
C0
C0
C0
C0
C0
C0
ENDCHAR
STARTCHAR C026045
ENCODING 11301
SWIDTH 1000 0
DWIDTH 10 0
BBX 7 7 2 0
BITMAP
7C
6C
6C
6C
6C
FE
C6
ENDCHAR
STARTCHAR C026046
ENCODING 11302
SWIDTH 1000 0
DWIDTH 10 0
BBX 6 8 3 -1
BITMAP
FC
C0
C0
C0
F8
C0
C0
78
ENDCHAR
STARTCHAR C026047
ENCODING 11303
SWIDTH 1000 0
DWIDTH 10 0
BBX 6 6 3 0
BITMAP
FC
C0
C0
F8
C0
FC
ENDCHAR
STARTCHAR C026050
ENCODING 11304
SWIDTH 1000 0
DWIDTH 10 0
BBX 8 7 1 0
BITMAP
7E
7E
7E
7E
DE
DB
DB
ENDCHAR
STARTCHAR C026051
ENCODING 11305
SWIDTH 1000 0
DWIDTH 10 0
BBX 7 8 2 -1
BITMAP
78
CC
0C
38
0E
06
6C
38
ENDCHAR
STARTCHAR C026052
ENCODING 11306
SWIDTH 1000 0
DWIDTH 10 0
BBX 5 7 3 0
BITMAP
18
18
78
78
D8
18
18
ENDCHAR
STARTCHAR C026053
ENCODING 11307
SWIDTH 1000 0
DWIDTH 10 0
BBX 6 7 3 0
BITMAP
F0
6C
3C
6C
6C
CC
0C
ENDCHAR
STARTCHAR C026054
ENCODING 11308
SWIDTH 1000 0
DWIDTH 10 0
BBX 5 7 3 0
BITMAP
D8
F0
F0
F0
D8
D8
C0
ENDCHAR
STARTCHAR C026055
ENCODING 11309
SWIDTH 1000 0
DWIDTH 10 0
BBX 6 7 2 0
BITMAP
7C
6C
6C
6C
6C
6C
CC
ENDCHAR
STARTCHAR C026056
ENCODING 11310
SWIDTH 1000 0
DWIDTH 10 0
BBX 7 7 2 0
BITMAP
C6
C6
FE
FE
FE
F6
C6
ENDCHAR
STARTCHAR C026057
ENCODING 11311
SWIDTH 1000 0
DWIDTH 10 0
BBX 5 7 3 0
BITMAP
18
18
18
F8
18
18
18
ENDCHAR
STARTCHAR C026060
ENCODING 11312
SWIDTH 1000 0
DWIDTH 10 0
BBX 7 8 2 -1
BITMAP
7C
C6
C6
C6
C6
C6
6C
38
ENDCHAR
STARTCHAR C026061
ENCODING 11313
SWIDTH 1000 0
DWIDTH 10 0
BBX 5 7 3 0
BITMAP
F8
D8
D8
D8
D8
D8
D8
ENDCHAR
STARTCHAR C026062
ENCODING 11314
SWIDTH 1000 0
DWIDTH 10 0
BBX 6 7 3 0
BITMAP
F8
CC
CC
F8
C0
C0
C0
ENDCHAR
STARTCHAR C026063
ENCODING 11315
SWIDTH 1000 0
DWIDTH 10 0
BBX 7 8 2 -1
BITMAP
7C
C6
C0
C0
C6
C6
6C
38
ENDCHAR
STARTCHAR C026064
ENCODING 11316
SWIDTH 1000 0
DWIDTH 10 0
BBX 5 6 3 1
BITMAP
F8
60
60
60
60
60
ENDCHAR
STARTCHAR C026065
ENCODING 11317
SWIDTH 1000 0
DWIDTH 10 0
BBX 5 5 3 1
BITMAP
D8
F0
F0
60
60
ENDCHAR
STARTCHAR C026066
ENCODING 11318
SWIDTH 1000 0
DWIDTH 10 0
BBX 7 7 2 0
BITMAP
30
FC
36
36
36
FC
78
ENDCHAR
STARTCHAR C026067
ENCODING 11319
SWIDTH 1000 0
DWIDTH 10 0
BBX 5 8 3 -1
BITMAP
18
D8
70
60
70
F0
D8
18
ENDCHAR
STARTCHAR C026070
ENCODING 11320
SWIDTH 1000 0
DWIDTH 10 0
BBX 7 9 2 -1
BITMAP
CC
CC
CC
CC
CC
CC
FE
06
06
ENDCHAR
STARTCHAR C026071
ENCODING 11321
SWIDTH 1000 0
DWIDTH 10 0
BBX 5 7 3 0
BITMAP
D8
D8
D8
D8
78
18
18
ENDCHAR
STARTCHAR C026072
ENCODING 11322
SWIDTH 1000 0
DWIDTH 10 0
BBX 7 8 2 -1
BITMAP
F6
F6
F6
F6
F6
F6
F6
7C
ENDCHAR
STARTCHAR C026073
ENCODING 11323
SWIDTH 1000 0
DWIDTH 10 0
BBX 8 8 2 -1
BITMAP
36
36
36
36
36
36
FF
03
ENDCHAR
STARTCHAR C026074
ENCODING 11324
SWIDTH 1000 0
DWIDTH 10 0
BBX 7 8 2 -1
BITMAP
E0
60
60
7C
66
66
6E
38
ENDCHAR
STARTCHAR C026075
ENCODING 11325
SWIDTH 1000 0
DWIDTH 10 0
BBX 7 7 2 0
BITMAP
C6
C6
C6
FE
DE
DE
F6
ENDCHAR
STARTCHAR C026076
ENCODING 11326
SWIDTH 1000 0
DWIDTH 10 0
BBX 5 8 3 -1
BITMAP
C0
C0
C0
F8
D8
D8
F0
60
ENDCHAR
STARTCHAR C026077
ENCODING 11327
SWIDTH 1000 0
DWIDTH 10 0
BBX 7 8 2 -1
BITMAP
78
CC
06
3E
06
CC
78
30
ENDCHAR
STARTCHAR C026100
ENCODING 11328
SWIDTH 1000 0
DWIDTH 10 0
BBX 9 8 1 -1
BITMAP
DF00
F180
F180
F180
F180
F180
DB00
0E00
ENDCHAR
STARTCHAR C026101
ENCODING 11329
SWIDTH 1000 0
DWIDTH 10 0
BBX 6 7 2 0
BITMAP
7C
CC
CC
7C
CC
CC
CC
ENDCHAR
STARTCHAR C026102
ENCODING 11330
SWIDTH 1000 0
DWIDTH 10 0
BBX 0 0 0 0
BITMAP
ENDCHAR
STARTCHAR C026103
ENCODING 11331
SWIDTH 1000 0
DWIDTH 10 0
BBX 0 0 0 0
BITMAP
ENDCHAR
STARTCHAR C026104
ENCODING 11332
SWIDTH 1000 0
DWIDTH 10 0
BBX 0 0 0 0
BITMAP
ENDCHAR
STARTCHAR C026105
ENCODING 11333
SWIDTH 1000 0
DWIDTH 10 0
BBX 0 0 0 0
BITMAP
ENDCHAR
STARTCHAR C026106
ENCODING 11334
SWIDTH 1000 0
DWIDTH 10 0
BBX 0 0 0 0
BITMAP
ENDCHAR
STARTCHAR C026107
ENCODING 11335
SWIDTH 1000 0
DWIDTH 10 0
BBX 0 0 0 0
BITMAP
ENDCHAR
STARTCHAR C026110
ENCODING 11336
SWIDTH 1000 0
DWIDTH 10 0
BBX 0 0 0 0
BITMAP
ENDCHAR
STARTCHAR C026111
ENCODING 11337
SWIDTH 1000 0
DWIDTH 10 0
BBX 0 0 0 0
BITMAP
ENDCHAR
STARTCHAR C026112
ENCODING 11338
SWIDTH 1000 0
DWIDTH 10 0
BBX 0 0 0 0
BITMAP
ENDCHAR
STARTCHAR C026113
ENCODING 11339
SWIDTH 1000 0
DWIDTH 10 0
BBX 1 8 10 0
BITMAP
80
80
80
00
00
00
00
80
ENDCHAR
STARTCHAR C026114
ENCODING 11340
SWIDTH 1000 0
DWIDTH 10 0
BBX 0 0 0 0
BITMAP
ENDCHAR
STARTCHAR C026115
ENCODING 11341
SWIDTH 1000 0
DWIDTH 10 0
BBX 0 0 0 0
BITMAP
ENDCHAR
STARTCHAR C026116
ENCODING 11342
SWIDTH 1000 0
DWIDTH 10 0
BBX 0 0 0 0
BITMAP
ENDCHAR
STARTCHAR C026117
ENCODING 11343
SWIDTH 1000 0
DWIDTH 10 0
BBX 0 0 0 0
BITMAP
ENDCHAR
STARTCHAR C026120
ENCODING 11344
SWIDTH 1000 0
DWIDTH 10 0
BBX 1 6 10 2
BITMAP
80
80
00
00
00
80
ENDCHAR
STARTCHAR C026121
ENCODING 11345
SWIDTH 1000 0
DWIDTH 10 0
BBX 6 7 3 -1
BITMAP
78
D8
18
F8
D8
FC
60
ENDCHAR
STARTCHAR C026122
ENCODING 11346
SWIDTH 1000 0
DWIDTH 10 0
BBX 5 7 3 0
BITMAP
78
C0
F8
D8
D8
D8
70
ENDCHAR
STARTCHAR C026123
ENCODING 11347
SWIDTH 1000 0
DWIDTH 10 0
BBX 5 6 3 0
BITMAP
F8
D8
D8
F8
D8
F8
ENDCHAR
STARTCHAR C026124
ENCODING 11348
SWIDTH 1000 0
DWIDTH 10 0
BBX 3 1 4 5
BITMAP
E0
ENDCHAR
STARTCHAR C026125
ENCODING 11349
SWIDTH 1000 0
DWIDTH 10 0
BBX 7 7 2 -1
BITMAP
7C
6C
6C
6C
6C
FE
C6
ENDCHAR
STARTCHAR C026126
ENCODING 11350
SWIDTH 1000 0
DWIDTH 10 0
BBX 5 6 3 0
BITMAP
78
D8
D8
F8
C0
78
ENDCHAR
STARTCHAR C026127
ENCODING 11351
SWIDTH 1000 0
DWIDTH 10 0
BBX 5 7 3 0
BITMAP
30
70
D8
D8
F8
D8
70
ENDCHAR
STARTCHAR C026130
ENCODING 11352
SWIDTH 1000 0
DWIDTH 10 0
BBX 6 6 2 0
BITMAP
CC
FC
F8
FC
FC
FC
ENDCHAR
STARTCHAR C026131
ENCODING 11353
SWIDTH 1000 0
DWIDTH 10 0
BBX 5 6 3 0
BITMAP
70
D8
18
F8
D8
70
ENDCHAR
STARTCHAR C026132
ENCODING 11354
SWIDTH 1000 0
DWIDTH 10 0
BBX 5 5 3 0
BITMAP
D8
D8
F8
D8
D8
ENDCHAR
STARTCHAR C026133
ENCODING 11355
SWIDTH 1000 0
DWIDTH 10 0
BBX 5 7 3 0
BITMAP
70
00
D8
F8
F8
D8
D8
ENDCHAR
STARTCHAR C026134
ENCODING 11356
SWIDTH 1000 0
DWIDTH 10 0
BBX 5 5 3 0
BITMAP
D8
F0
F0
D8
D8
ENDCHAR
STARTCHAR C026135
ENCODING 11357
SWIDTH 1000 0
DWIDTH 10 0
BBX 5 5 3 0
BITMAP
F8
D8
D8
D8
D8
ENDCHAR
STARTCHAR C026136
ENCODING 11358
SWIDTH 1000 0
DWIDTH 10 0
BBX 5 5 3 0
BITMAP
18
F8
F8
78
78
ENDCHAR
STARTCHAR C026137
ENCODING 11359
SWIDTH 1000 0
DWIDTH 10 0
BBX 5 5 3 0
BITMAP
D8
D8
F8
D8
D8
ENDCHAR
STARTCHAR C026140
ENCODING 11360
SWIDTH 1000 0
DWIDTH 10 0
BBX 5 6 3 0
BITMAP
70
D8
D8
D8
D8
70
ENDCHAR
STARTCHAR C026141
ENCODING 11361
SWIDTH 1000 0
DWIDTH 10 0
BBX 5 6 3 0
BITMAP
F8
D8
D8
D8
D8
D8
ENDCHAR
STARTCHAR C026142
ENCODING 11362
SWIDTH 1000 0
DWIDTH 10 0
BBX 5 6 3 0
BITMAP
F0
D8
D8
D8
D8
F0
ENDCHAR
STARTCHAR C026143
ENCODING 11363
SWIDTH 1000 0
DWIDTH 10 0
BBX 5 6 3 0
BITMAP
70
D8
C0
C0
D8
70
ENDCHAR
STARTCHAR C026144
ENCODING 11364
SWIDTH 1000 0
DWIDTH 10 0
BBX 5 6 3 0
BITMAP
F8
60
60
60
60
60
ENDCHAR
STARTCHAR C026145
ENCODING 11365
SWIDTH 1000 0
DWIDTH 10 0
BBX 4 5 3 0
BITMAP
C0
F0
70
60
60
ENDCHAR
STARTCHAR C026146
ENCODING 11366
SWIDTH 1000 0
DWIDTH 10 0
BBX 7 7 2 0
BITMAP
30
FC
36
36
36
FC
30
ENDCHAR
STARTCHAR C026147
ENCODING 11367
SWIDTH 1000 0
DWIDTH 10 0
BBX 5 6 3 -1
BITMAP
C0
F0
60
F0
F0
18
ENDCHAR
STARTCHAR C026150
ENCODING 11368
SWIDTH 1000 0
DWIDTH 10 0
BBX 5 6 3 0
BITMAP
D8
D8
D8
D8
F8
18
ENDCHAR
STARTCHAR C026151
ENCODING 11369
SWIDTH 1000 0
DWIDTH 10 0
BBX 5 6 3 0
BITMAP
D8
D8
D8
D8
F8
18
ENDCHAR
STARTCHAR C026152
ENCODING 11370
SWIDTH 1000 0
DWIDTH 10 0
BBX 6 6 3 0
BITMAP
6C
6C
6C
6C
6C
FC
ENDCHAR
STARTCHAR C026153
ENCODING 11371
SWIDTH 1000 0
DWIDTH 10 0
BBX 7 6 2 0
BITMAP
CC
FC
FC
FC
FE
06
ENDCHAR
STARTCHAR C026154
ENCODING 11372
SWIDTH 1000 0
DWIDTH 10 0
BBX 4 6 4 -1
BITMAP
C0
C0
F0
F0
F0
60
ENDCHAR
STARTCHAR C026155
ENCODING 11373
SWIDTH 1000 0
DWIDTH 10 0
BBX 5 6 3 0
BITMAP
D8
D8
F8
F8
F8
F8
ENDCHAR
STARTCHAR C026156
ENCODING 11374
SWIDTH 1000 0
DWIDTH 10 0
BBX 5 6 3 -1
BITMAP
C0
C0
F8
D8
F0
60
ENDCHAR
STARTCHAR C026157
ENCODING 11375
SWIDTH 1000 0
DWIDTH 10 0
BBX 5 6 3 0
BITMAP
70
D8
18
78
18
70
ENDCHAR
STARTCHAR C026160
ENCODING 11376
SWIDTH 1000 0
DWIDTH 10 0
BBX 7 6 2 0
BITMAP
3C
E6
E6
E6
E6
FC
ENDCHAR
STARTCHAR C026161
ENCODING 11377
SWIDTH 1000 0
DWIDTH 10 0
BBX 5 6 3 0
BITMAP
F8
D8
D8
F8
D8
D8
ENDCHAR
STARTCHAR C026162
ENCODING 11378
SWIDTH 1000 0
DWIDTH 10 0
BBX 0 0 0 0
BITMAP
ENDCHAR
STARTCHAR C026163
ENCODING 11379
SWIDTH 1000 0
DWIDTH 10 0
BBX 0 0 0 0
BITMAP
ENDCHAR
STARTCHAR C026164
ENCODING 11380
SWIDTH 1000 0
DWIDTH 10 0
BBX 0 0 0 0
BITMAP
ENDCHAR
STARTCHAR C026165
ENCODING 11381
SWIDTH 1000 0
DWIDTH 10 0
BBX 0 0 0 0
BITMAP
ENDCHAR
STARTCHAR C026166
ENCODING 11382
SWIDTH 1000 0
DWIDTH 10 0
BBX 0 0 0 0
BITMAP
ENDCHAR
STARTCHAR C026167
ENCODING 11383
SWIDTH 1000 0
DWIDTH 10 0
BBX 0 0 0 0
BITMAP
ENDCHAR
STARTCHAR C026170
ENCODING 11384
SWIDTH 1000 0
DWIDTH 10 0
BBX 1 8 10 0
BITMAP
80
80
80
00
00
00
00
80
ENDCHAR
STARTCHAR C026171
ENCODING 11385
SWIDTH 1000 0
DWIDTH 10 0
BBX 0 0 0 0
BITMAP
ENDCHAR
STARTCHAR C026172
ENCODING 11386
SWIDTH 1000 0
DWIDTH 10 0
BBX 0 0 0 0
BITMAP
ENDCHAR
STARTCHAR C026173
ENCODING 11387
SWIDTH 1000 0
DWIDTH 10 0
BBX 0 0 0 0
BITMAP
ENDCHAR
STARTCHAR C026174
ENCODING 11388
SWIDTH 1000 0
DWIDTH 10 0
BBX 0 0 0 0
BITMAP
ENDCHAR
STARTCHAR C026175
ENCODING 11389
SWIDTH 1000 0
DWIDTH 10 0
BBX 1 6 10 2
BITMAP
80
80
00
00
00
80
ENDCHAR
STARTCHAR C026176
ENCODING 11390
SWIDTH 1000 0
DWIDTH 10 0
BBX 0 0 0 0
BITMAP
ENDCHAR
STARTCHAR C026177
ENCODING 11391
SWIDTH 1000 0
DWIDTH 10 0
BBX 0 0 0 0
BITMAP
ENDCHAR
STARTCHAR C030040
ENCODING 12320
SWIDTH 1000 0
DWIDTH 10 0
BBX 1 8 10 -1
BITMAP
80
00
00
00
00
00
00
80
ENDCHAR
STARTCHAR C030041
ENCODING 12321
SWIDTH 1000 0
DWIDTH 10 0
BBX 9 9 1 -2
BITMAP
FB00
1B00
1B00
1B80
3300
3300
6300
C300
0300
ENDCHAR
STARTCHAR C030042
ENCODING 12322
SWIDTH 1000 0
DWIDTH 10 0
BBX 9 8 1 -1
BITMAP
FB00
1B80
1B00
1B00
F300
FF00
0300
0300
ENDCHAR
STARTCHAR C030043
ENCODING 12323
SWIDTH 1000 0
DWIDTH 10 0
BBX 9 8 1 -1
BITMAP
FB00
1B00
1B80
1B00
7300
C300
C300
FF00
ENDCHAR
STARTCHAR C030044
ENCODING 12324
SWIDTH 1000 0
DWIDTH 10 0
BBX 9 8 1 -1
BITMAP
FB00
1B80
1B00
3300
E300
FF00
C000
FF00
ENDCHAR
STARTCHAR C030045
ENCODING 12325
SWIDTH 1000 0
DWIDTH 10 0
BBX 9 8 1 -1
BITMAP
FB00
1B80
1B00
3300
FF00
0300
FF00
FF00
ENDCHAR
STARTCHAR C030046
ENCODING 12326
SWIDTH 1000 0
DWIDTH 10 0
BBX 9 8 1 -1
BITMAP
FB00
1B80
1B00
3300
FF00
1B00
FB00
FB00
ENDCHAR
STARTCHAR C030047
ENCODING 12327
SWIDTH 1000 0
DWIDTH 10 0
BBX 9 8 1 -1
BITMAP
FB00
1B80
1B00
3300
FF00
3F00
FF00
FF00
ENDCHAR
STARTCHAR C030050
ENCODING 12328
SWIDTH 1000 0
DWIDTH 10 0
BBX 9 8 1 -1
BITMAP
FB00
1B80
1B00
3300
E000
FF00
C300
FF00
ENDCHAR
STARTCHAR C030051
ENCODING 12329
SWIDTH 1000 0
DWIDTH 10 0
BBX 9 8 1 -1
BITMAP
FB00
1B80
1B00
3300
E300
FF00
C300
FF00
ENDCHAR
STARTCHAR C030052
ENCODING 12330
SWIDTH 1000 0
DWIDTH 10 0
BBX 9 8 1 -1
BITMAP
FB00
1B80
1B00
F300
F000
F600
F700
FF00
ENDCHAR
STARTCHAR C030053
ENCODING 12331
SWIDTH 1000 0
DWIDTH 10 0
BBX 9 8 1 -1
BITMAP
FB00
1B80
1B00
1B00
7300
D800
3C00
E700
ENDCHAR
STARTCHAR C030054
ENCODING 12332
SWIDTH 1000 0
DWIDTH 10 0
BBX 9 9 1 -2
BITMAP
FB00
1B80
1B00
3300
E300
6600
6600
FF00
1980
ENDCHAR
STARTCHAR C030055
ENCODING 12333
SWIDTH 1000 0
DWIDTH 10 0
BBX 9 9 1 -2
BITMAP
FB00
1B80
1B00
3300
E300
7E00
C300
C300
7E00
ENDCHAR
STARTCHAR C030056
ENCODING 12334
SWIDTH 1000 0
DWIDTH 10 0
BBX 9 9 1 -2
BITMAP
FB00
1B80
1B00
3300
E300
FF00
1800
3C00
E700
ENDCHAR
STARTCHAR C030057
ENCODING 12335
SWIDTH 1000 0
DWIDTH 10 0
BBX 9 8 1 -1
BITMAP
FB00
1B80
1B00
3F00
E300
FF00
1C00
F700
ENDCHAR
STARTCHAR C030060
ENCODING 12336
SWIDTH 1000 0
DWIDTH 10 0
BBX 9 8 1 -1
BITMAP
FB00
1B80
1B00
3300
E300
FF00
FF00
FF00
ENDCHAR
STARTCHAR C030061
ENCODING 12337
SWIDTH 1000 0
DWIDTH 10 0
BBX 9 9 1 -2
BITMAP
FB00
1B80
1B00
3300
E000
7F00
3600
3E00
6000
ENDCHAR
STARTCHAR C030062
ENCODING 12338
SWIDTH 1000 0
DWIDTH 10 0
BBX 9 9 1 -2
BITMAP
FB00
1B80
1B00
3300
FF00
FF80
7F00
C300
7E00
ENDCHAR
STARTCHAR C030063
ENCODING 12339
SWIDTH 1000 0
DWIDTH 10 0
BBX 9 9 1 -2
BITMAP
FF80
1F80
1F80
1F80
3780
3780
6780
C780
0600
ENDCHAR
STARTCHAR C030064
ENCODING 12340
SWIDTH 1000 0
DWIDTH 10 0
BBX 8 9 2 -1
BITMAP
0F
FB
3F
3B
3B
6F
FF
03
03
ENDCHAR
STARTCHAR C030065
ENCODING 12341
SWIDTH 1000 0
DWIDTH 10 0
BBX 9 9 1 -1
BITMAP
0780
F780
1F80
3780
3780
6780
E780
6000
7F80
ENDCHAR
STARTCHAR C030066
ENCODING 12342
SWIDTH 1000 0
DWIDTH 10 0
BBX 9 9 1 -1
BITMAP
0180
FD80
1F80
3D80
3180
FF80
0180
3F80
3F80
ENDCHAR
STARTCHAR C030067
ENCODING 12343
SWIDTH 1000 0
DWIDTH 10 0
BBX 9 9 1 -1
BITMAP
0780
F780
1F80
1F80
3780
6780
FF80
6180
7F80
ENDCHAR
STARTCHAR C030070
ENCODING 12344
SWIDTH 1000 0
DWIDTH 10 0
BBX 9 9 1 -1
BITMAP
0780
F780
3780
3780
3780
E000
6180
7F80
7F80
ENDCHAR
STARTCHAR C030071
ENCODING 12345
SWIDTH 1000 0
DWIDTH 10 0
BBX 8 9 2 -1
BITMAP
0F
FB
3F
3B
3B
6F
D8
3C
E7
ENDCHAR
STARTCHAR C030072
ENCODING 12346
SWIDTH 1000 0
DWIDTH 10 0
BBX 9 9 1 -1
BITMAP
0780
7D80
1F80
1D80
1D80
7780
0000
7700
D980
ENDCHAR
STARTCHAR C030073
ENCODING 12347
SWIDTH 1000 0
DWIDTH 10 0
BBX 9 9 1 -2
BITMAP
F780
1F80
1F80
3780
6780
FF00
6180
6180
3F00
ENDCHAR
STARTCHAR C030074
ENCODING 12348
SWIDTH 1000 0
DWIDTH 10 0
BBX 9 9 1 -1
BITMAP
0300
FB00
1B00
1B80
1B00
3300
6380
C300
0300
ENDCHAR
STARTCHAR C030075
ENCODING 12349
SWIDTH 1000 0
DWIDTH 10 0
BBX 9 8 1 -1
BITMAP
FB00
1B80
1B00
1B80
F300
FF00
0300
0300
ENDCHAR
STARTCHAR C030076
ENCODING 12350
SWIDTH 1000 0
DWIDTH 10 0
BBX 9 8 1 -1
BITMAP
FB00
1B80
1B00
1B80
7300
C300
C000
FF00
ENDCHAR
STARTCHAR C030077
ENCODING 12351
SWIDTH 1000 0
DWIDTH 10 0
BBX 9 8 1 -1
BITMAP
FB00
1B80
1B00
3380
E300
FF00
FF00
FF00
ENDCHAR
STARTCHAR C030100
ENCODING 12352
SWIDTH 1000 0
DWIDTH 10 0
BBX 9 9 1 -1
BITMAP
0300
FB00
1B80
1B00
1B80
7300
C300
1C00
7700
ENDCHAR
STARTCHAR C030101
ENCODING 12353
SWIDTH 1000 0
DWIDTH 10 0
BBX 10 10 1 -2
BITMAP
0300
FB00
1B80
1B00
3380
E300
7E00
C300
C300
7E00
ENDCHAR
STARTCHAR C030102
ENCODING 12354
SWIDTH 1000 0
DWIDTH 10 0
BBX 10 10 1 -2
BITMAP
0180
F780
3D80
3780
3D80
3D80
6780
CD80
0D80
0180
ENDCHAR
STARTCHAR C030103
ENCODING 12355
SWIDTH 1000 0
DWIDTH 10 0
BBX 9 9 1 -1
BITMAP
0780
F780
3780
3780
3780
6780
E780
6000
7F80
ENDCHAR
STARTCHAR C030104
ENCODING 12356
SWIDTH 1000 0
DWIDTH 10 0
BBX 9 8 1 -1
BITMAP
F780
1F80
3780
3780
E000
3F80
3F80
3F80
ENDCHAR
STARTCHAR C030105
ENCODING 12357
SWIDTH 1000 0
DWIDTH 10 0
BBX 9 9 1 -1
BITMAP
0180
FD80
0D80
0D80
0F80
1980
3180
6180
C180
ENDCHAR
STARTCHAR C030106
ENCODING 12358
SWIDTH 1000 0
DWIDTH 10 0
BBX 9 9 1 -1
BITMAP
0180
FD80
0D80
0F80
1980
7180
FF80
0180
0180
ENDCHAR
STARTCHAR C030107
ENCODING 12359
SWIDTH 1000 0
DWIDTH 10 0
BBX 9 8 1 -1
BITMAP
FD80
0D80
0F80
1980
3180
E180
6000
7F80
ENDCHAR
STARTCHAR C030110
ENCODING 12360
SWIDTH 1000 0
DWIDTH 10 0
BBX 9 9 1 -1
BITMAP
0180
FD80
0D80
0F80
1980
7180
FF80
6000
7F80
ENDCHAR
STARTCHAR C030111
ENCODING 12361
SWIDTH 1000 0
DWIDTH 10 0
BBX 9 9 1 -1
BITMAP
0180
FD80
0F80
1980
1980
FF80
0180
7F80
7F80
ENDCHAR
STARTCHAR C030112
ENCODING 12362
SWIDTH 1000 0
DWIDTH 10 0
BBX 10 10 1 -2
BITMAP
0180
FD80
0F80
0D80
1980
FF80
1F80
7F80
7F80
7000
ENDCHAR
STARTCHAR C030113
ENCODING 12363
SWIDTH 1000 0
DWIDTH 10 0
BBX 9 8 1 -1
BITMAP
FD80
0D80
0F80
1980
F180
7F80
6180
7F80
ENDCHAR
STARTCHAR C030114
ENCODING 12364
SWIDTH 1000 0
DWIDTH 10 0
BBX 9 9 1 -1
BITMAP
0180
FD80
0D80
1F80
F180
0180
6180
7F80
7F80
ENDCHAR
STARTCHAR C030115
ENCODING 12365
SWIDTH 1000 0
DWIDTH 10 0
BBX 10 10 1 -2
BITMAP
0180
FD80
0D80
0F80
1980
7180
CD80
1C00
7700
0180
ENDCHAR
STARTCHAR C030116
ENCODING 12366
SWIDTH 1000 0
DWIDTH 10 0
BBX 9 9 1 -1
BITMAP
0180
F980
0D80
1F80
1980
7180
C000
7700
D980
ENDCHAR
STARTCHAR C030117
ENCODING 12367
SWIDTH 1000 0
DWIDTH 10 0
BBX 9 9 1 -2
BITMAP
FD80
0D80
0F80
1980
7180
FF00
6180
6180
3F00
ENDCHAR
STARTCHAR C030120
ENCODING 12368
SWIDTH 1000 0
DWIDTH 10 0
BBX 9 9 1 -2
BITMAP
FD80
0D80
0F80
1980
F180
7F80
0C00
1E00
7380
ENDCHAR
STARTCHAR C030121
ENCODING 12369
SWIDTH 1000 0
DWIDTH 10 0
BBX 9 8 1 -1
BITMAP
FD80
0D80
0F80
1980
F180
7F80
7F80
7F80
ENDCHAR
STARTCHAR C030122
ENCODING 12370
SWIDTH 1000 0
DWIDTH 10 0
BBX 9 9 1 -2
BITMAP
FD80
0D80
1F80
1980
F180
7F80
3300
3F00
6000
ENDCHAR
STARTCHAR C030123
ENCODING 12371
SWIDTH 1000 0
DWIDTH 10 0
BBX 9 9 1 -2
BITMAP
FD80
0D80
0F80
1980
FF80
7F80
7F00
6300
3F00
ENDCHAR
STARTCHAR C030124
ENCODING 12372
SWIDTH 1000 0
DWIDTH 10 0
BBX 9 9 1 -2
BITMAP
FF80
1F80
1F80
1F80
3780
3780
6780
C780
0600
ENDCHAR
STARTCHAR C030125
ENCODING 12373
SWIDTH 1000 0
DWIDTH 10 0
BBX 9 9 1 -1
BITMAP
0600
F780
1F80
3F80
3780
6780
E780
6180
7F80
ENDCHAR
STARTCHAR C030126
ENCODING 12374
SWIDTH 1000 0
DWIDTH 10 0
BBX 9 9 1 -1
BITMAP
0600
F780
1F80
3780
3780
E180
7F80
3F80
3F80
ENDCHAR
STARTCHAR C030127
ENCODING 12375
SWIDTH 1000 0
DWIDTH 10 0
BBX 9 8 1 -1
BITMAP
F780
1F80
1F80
3780
6780
FF80
6180
7F80
ENDCHAR
STARTCHAR C030130
ENCODING 12376
SWIDTH 1000 0
DWIDTH 10 0
BBX 9 8 1 -1
BITMAP
F780
1F80
1F80
3780
E780
6180
7F80
7F80
ENDCHAR
STARTCHAR C030131
ENCODING 12377
SWIDTH 1000 0
DWIDTH 10 0
BBX 10 10 1 -2
BITMAP
0180
F780
3780
3F80
3780
6780
CC00
1C00
7700
0180
ENDCHAR
STARTCHAR C030132
ENCODING 12378
SWIDTH 1000 0
DWIDTH 10 0
BBX 9 8 1 -1
BITMAP
F780
3780
3F80
3780
6780
C000
7700
D980
ENDCHAR
STARTCHAR C030133
ENCODING 12379
SWIDTH 1000 0
DWIDTH 10 0
BBX 9 9 1 -1
BITMAP
0180
F780
1F80
1F80
3780
6780
FF00
6180
3F00
ENDCHAR
STARTCHAR C030134
ENCODING 12380
SWIDTH 1000 0
DWIDTH 10 0
BBX 8 8 2 -1
BITMAP
FB
1B
1F
33
3F
63
63
C3
ENDCHAR
STARTCHAR C030135
ENCODING 12381
SWIDTH 1000 0
DWIDTH 10 0
BBX 9 8 1 -1
BITMAP
FD80
0F80
0D80
1F80
7180
FF80
0180
0180
ENDCHAR
STARTCHAR C030136
ENCODING 12382
SWIDTH 1000 0
DWIDTH 10 0
BBX 10 10 1 -2
BITMAP
0180
FD80
0F80
0D80
1F80
F180
FF80
1980
1980
1980
ENDCHAR
STARTCHAR C030137
ENCODING 12383
SWIDTH 1000 0
DWIDTH 10 0
BBX 9 8 1 -1
BITMAP
FD80
0F80
0D80
1F80
3180
E180
6000
7F80
ENDCHAR
STARTCHAR C030140
ENCODING 12384
SWIDTH 1000 0
DWIDTH 10 0
BBX 9 8 1 -1
BITMAP
FD80
0F80
1980
3780
E180
7F80
6000
7F80
ENDCHAR
STARTCHAR C030141
ENCODING 12385
SWIDTH 1000 0
DWIDTH 10 0
BBX 9 8 1 -1
BITMAP
FD80
0F80
1F80
3180
E000
7F80
7F80
7F80
ENDCHAR
STARTCHAR C030142
ENCODING 12386
SWIDTH 1000 0
DWIDTH 10 0
BBX 9 9 1 -1
BITMAP
0180
FD80
0F80
0D80
1F80
F180
7F80
6180
7F80
ENDCHAR
STARTCHAR C030143
ENCODING 12387
SWIDTH 1000 0
DWIDTH 10 0
BBX 9 8 1 -1
BITMAP
FD80
0F80
0D80
1F80
F180
6180
7F80
7F80
ENDCHAR
STARTCHAR C030144
ENCODING 12388
SWIDTH 1000 0
DWIDTH 10 0
BBX 9 8 1 -1
BITMAP
F980
0F80
1980
1F80
7180
CD80
1E00
7380
ENDCHAR
STARTCHAR C030145
ENCODING 12389
SWIDTH 1000 0
DWIDTH 10 0
BBX 9 8 1 -1
BITMAP
F980
0F80
1980
1F80
7180
C000
7700
DD80
ENDCHAR
STARTCHAR C030146
ENCODING 12390
SWIDTH 1000 0
DWIDTH 10 0
BBX 9 9 1 -2
BITMAP
FD80
0F80
0D80
1F80
7180
FF00
6180
6180
3F00
ENDCHAR
STARTCHAR C030147
ENCODING 12391
SWIDTH 1000 0
DWIDTH 10 0
BBX 9 8 1 -1
BITMAP
FD80
0F80
0D80
1F80
F180
7F80
7F80
7F80
ENDCHAR
STARTCHAR C030150
ENCODING 12392
SWIDTH 1000 0
DWIDTH 10 0
BBX 9 9 1 -1
BITMAP
0600
FF80
1F80
1F80
1F80
1F80
3780
6780
C780
ENDCHAR
STARTCHAR C030151
ENCODING 12393
SWIDTH 1000 0
DWIDTH 10 0
BBX 9 8 1 -1
BITMAP
F780
1F80
3780
3F80
6780
E780
6000
7F80
ENDCHAR
STARTCHAR C030152
ENCODING 12394
SWIDTH 1000 0
DWIDTH 10 0
BBX 9 9 1 -1
BITMAP
0600
FF80
1F80
3F80
3780
FF80
0180
7F80
7F80
ENDCHAR
STARTCHAR C030153
ENCODING 12395
SWIDTH 1000 0
DWIDTH 10 0
BBX 9 9 1 -1
BITMAP
0780
FF80
1F80
1F80
3780
E000
6180
7F80
7F80
ENDCHAR
STARTCHAR C030154
ENCODING 12396
SWIDTH 1000 0
DWIDTH 10 0
BBX 9 9 1 -2
BITMAP
F780
3F80
3780
3F80
6780
CD80
1C00
7700
0180
ENDCHAR
STARTCHAR C030155
ENCODING 12397
SWIDTH 1000 0
DWIDTH 10 0
BBX 9 8 1 -1
BITMAP
FF00
0300
0300
0300
1B00
1B00
1B00
FF80
ENDCHAR
STARTCHAR C030156
ENCODING 12398
SWIDTH 1000 0
DWIDTH 10 0
BBX 9 9 1 -2
BITMAP
FF00
1B00
1B00
FF80
0000
FF00
0300
0300
0300
ENDCHAR
STARTCHAR C030157
ENCODING 12399
SWIDTH 1000 0
DWIDTH 10 0
BBX 9 8 1 -1
BITMAP
FF00
0300
1B00
1B00
FF80
6000
6000
7F80
ENDCHAR
STARTCHAR C030160
ENCODING 12400
SWIDTH 1000 0
DWIDTH 10 0
BBX 9 8 1 -1
BITMAP
FF00
1B00
1B00
FF80
0000
7F80
6000
7F80
ENDCHAR
STARTCHAR C030161
ENCODING 12401
SWIDTH 1000 0
DWIDTH 10 0
BBX 9 8 1 -1
BITMAP
7F00
1B00
1B00
FF80
7F00
0300
7F00
7F00
ENDCHAR
STARTCHAR C030162
ENCODING 12402
SWIDTH 1000 0
DWIDTH 10 0
BBX 9 9 1 -2
BITMAP
FF00
1B00
1B00
FF80
FF80
3D80
FD80
FF80
E000
ENDCHAR
STARTCHAR C030163
ENCODING 12403
SWIDTH 1000 0
DWIDTH 10 0
BBX 9 8 1 -1
BITMAP
FF00
1B00
1B00
FF80
0000
7800
7F00
7D80
ENDCHAR
STARTCHAR C030164
ENCODING 12404
SWIDTH 1000 0
DWIDTH 10 0
BBX 9 8 1 -1
BITMAP
FF00
1B00
1B00
FF80
F700
3F80
FF00
FF00
ENDCHAR
STARTCHAR C030165
ENCODING 12405
SWIDTH 1000 0
DWIDTH 10 0
BBX 9 8 1 -1
BITMAP
FF00
1B00
1B00
FF80
0000
7F00
6300
7F00
ENDCHAR
STARTCHAR C030166
ENCODING 12406
SWIDTH 1000 0
DWIDTH 10 0
BBX 9 8 1 -1
BITMAP
FF00
1B00
1B00
FF80
6300
7F00
6300
7F00
ENDCHAR
STARTCHAR C030167
ENCODING 12407
SWIDTH 1000 0
DWIDTH 10 0
BBX 9 8 1 -1
BITMAP
FF00
0300
1B00
1B00
FF80
0000
1C00
7700
ENDCHAR
STARTCHAR C030170
ENCODING 12408
SWIDTH 1000 0
DWIDTH 10 0
BBX 9 8 1 -1
BITMAP
FF00
1B00
1B00
FF80
0000
7F00
C180
7F00
ENDCHAR
STARTCHAR C030171
ENCODING 12409
SWIDTH 1000 0
DWIDTH 10 0
BBX 9 9 1 -2
BITMAP
FF00
1B00
1B00
FF80
0000
7F00
1C00
3600
0300
ENDCHAR
STARTCHAR C030172
ENCODING 12410
SWIDTH 1000 0
DWIDTH 10 0
BBX 9 9 1 -2
BITMAP
FF00
0F00
0F00
6F80
6F00
6300
FF00
0300
0300
ENDCHAR
STARTCHAR C030173
ENCODING 12411
SWIDTH 1000 0
DWIDTH 10 0
BBX 9 9 1 -1
BITMAP
0300
FF00
6F00
6F80
FF00
0700
FF00
0300
0300
ENDCHAR
STARTCHAR C030174
ENCODING 12412
SWIDTH 1000 0
DWIDTH 10 0
BBX 9 8 1 -1
BITMAP
FF00
0F00
6F80
6F00
FF00
C300
C300
FF00
ENDCHAR
STARTCHAR C030175
ENCODING 12413
SWIDTH 1000 0
DWIDTH 10 0
BBX 9 9 1 -1
BITMAP
0300
FB00
7B00
7B80
FF00
0300
FF00
7F00
7F00
ENDCHAR
STARTCHAR C030176
ENCODING 12414
SWIDTH 1000 0
DWIDTH 10 0
BBX 9 9 1 -1
BITMAP
0300
FF00
6F80
6F00
FF00
FF00
1F00
FF00
FF00
ENDCHAR
STARTCHAR C030177
ENCODING 12415
SWIDTH 1000 0
DWIDTH 10 0
BBX 0 0 0 0
BITMAP
ENDCHAR
STARTCHAR C030440
ENCODING 12576
SWIDTH 1000 0
DWIDTH 10 0
BBX 1 8 10 -1
BITMAP
80
00
00
80
00
80
80
80
ENDCHAR
STARTCHAR C030441
ENCODING 12577
SWIDTH 1000 0
DWIDTH 10 0
BBX 9 9 1 -1
BITMAP
0300
FF00
6F80
6F00
FF00
0700
FF00
C300
FF00
ENDCHAR
STARTCHAR C030442
ENCODING 12578
SWIDTH 1000 0
DWIDTH 10 0
BBX 9 9 1 -1
BITMAP
0300
FF00
6F80
6F00
FF00
0300
C300
FF00
FF00
ENDCHAR
STARTCHAR C030443
ENCODING 12579
SWIDTH 1000 0
DWIDTH 10 0
BBX 9 9 1 -1
BITMAP
0300
FF00
0F80
6F00
6F00
FF00
0300
1C00
F700
ENDCHAR
STARTCHAR C030444
ENCODING 12580
SWIDTH 1000 0
DWIDTH 10 0
BBX 9 9 1 -1
BITMAP
0300
FF00
6F80
6F00
FF00
7F00
C300
C300
7E00
ENDCHAR
STARTCHAR C030445
ENCODING 12581
SWIDTH 1000 0
DWIDTH 10 0
BBX 9 9 1 -2
BITMAP
FF80
1F80
1F80
7F80
7F80
7F80
FF80
0780
0780
ENDCHAR
STARTCHAR C030446
ENCODING 12582
SWIDTH 1000 0
DWIDTH 10 0
BBX 9 9 1 -1
BITMAP
0780
FF80
1F80
7F80
7F80
FF80
6780
6780
7F80
ENDCHAR
STARTCHAR C030447
ENCODING 12583
SWIDTH 1000 0
DWIDTH 10 0
BBX 9 8 1 -1
BITMAP
7F80
7F80
7F80
FF80
0180
7F80
7F80
7F80
ENDCHAR
STARTCHAR C030450
ENCODING 12584
SWIDTH 1000 0
DWIDTH 10 0
BBX 9 8 1 -1
BITMAP
7F80
7F80
7F80
FF80
0180
6180
7F80
7F80
ENDCHAR
STARTCHAR C030451
ENCODING 12585
SWIDTH 1000 0
DWIDTH 10 0
BBX 9 8 1 -1
BITMAP
FF80
7F80
7F80
FF80
0180
0000
7700
DD80
ENDCHAR
STARTCHAR C030452
ENCODING 12586
SWIDTH 1000 0
DWIDTH 10 0
BBX 9 9 1 -2
BITMAP
7F80
7F80
7F80
7F80
F180
3E00
6380
6180
3F00
ENDCHAR
STARTCHAR C030453
ENCODING 12587
SWIDTH 1000 0
DWIDTH 10 0
BBX 9 9 1 -2
BITMAP
FD80
0D80
0D80
3D80
3D80
3D80
FF80
0180
0180
ENDCHAR
STARTCHAR C030454
ENCODING 12588
SWIDTH 1000 0
DWIDTH 10 0
BBX 9 9 1 -1
BITMAP
0180
7F80
3780
3780
FF80
0180
7F80
0180
0180
ENDCHAR
STARTCHAR C030455
ENCODING 12589
SWIDTH 1000 0
DWIDTH 10 0
BBX 9 8 1 -1
BITMAP
FD80
0D80
3D80
3D80
FF80
6180
6180
7F80
ENDCHAR
STARTCHAR C030456
ENCODING 12590
SWIDTH 1000 0
DWIDTH 10 0
BBX 9 9 1 -1
BITMAP
0180
7D80
3D80
3180
FF80
0180
7F80
7F80
7F80
ENDCHAR
STARTCHAR C030457
ENCODING 12591
SWIDTH 1000 0
DWIDTH 10 0
BBX 9 9 1 -1
BITMAP
0180
7F80
3780
3780
FF80
0180
7F80
6180
7F80
ENDCHAR
STARTCHAR C030460
ENCODING 12592
SWIDTH 1000 0
DWIDTH 10 0
BBX 9 9 1 -1
BITMAP
0180
FD80
3D80
3D80
FF80
0180
6180
7F80
7F80
ENDCHAR
STARTCHAR C030461
ENCODING 12593
SWIDTH 1000 0
DWIDTH 10 0
BBX 9 9 1 -1
BITMAP
0180
FD80
0D80
3D80
3F80
F980
0C00
1E00
7380
ENDCHAR
STARTCHAR C030462
ENCODING 12594
SWIDTH 1000 0
DWIDTH 10 0
BBX 9 9 1 -1
BITMAP
0180
7F80
3780
3780
FF80
0180
3F00
6180
3F00
ENDCHAR
STARTCHAR C030463
ENCODING 12595
SWIDTH 1000 0
DWIDTH 10 0
BBX 9 8 1 -1
BITMAP
FF00
0300
0300
3F00
3F00
3F00
3F00
FF80
ENDCHAR
STARTCHAR C030464
ENCODING 12596
SWIDTH 1000 0
DWIDTH 10 0
BBX 9 8 1 -1
BITMAP
7F00
0300
3F00
3C00
FF80
6000
6000
7F80
ENDCHAR
STARTCHAR C030465
ENCODING 12597
SWIDTH 1000 0
DWIDTH 10 0
BBX 9 8 1 -1
BITMAP
FF00
3700
3700
FF80
FF00
0300
FF00
FF00
ENDCHAR
STARTCHAR C030466
ENCODING 12598
SWIDTH 1000 0
DWIDTH 10 0
BBX 9 8 1 -1
BITMAP
7F00
3F00
3F00
FF80
6300
7F00
6300
7F00
ENDCHAR
STARTCHAR C030467
ENCODING 12599
SWIDTH 1000 0
DWIDTH 10 0
BBX 9 8 1 -1
BITMAP
7F00
0300
3F00
3C00
FF80
0C00
1C00
F700
ENDCHAR
STARTCHAR C030470
ENCODING 12600
SWIDTH 1000 0
DWIDTH 10 0
BBX 9 8 1 -1
BITMAP
7F80
0180
0180
0180
FF80
0C00
0C00
0C00
ENDCHAR
STARTCHAR C030471
ENCODING 12601
SWIDTH 1000 0
DWIDTH 10 0
BBX 9 9 1 -2
BITMAP
FF00
0300
0300
FF80
0C00
7F80
0180
0180
0180
ENDCHAR
STARTCHAR C030472
ENCODING 12602
SWIDTH 1000 0
DWIDTH 10 0
BBX 9 8 1 -1
BITMAP
FF00
0300
0300
FF80
0C00
6C00
6000
7F80
ENDCHAR
STARTCHAR C030473
ENCODING 12603
SWIDTH 1000 0
DWIDTH 10 0
BBX 9 8 1 -1
BITMAP
FF00
0300
0300
FF80
0C00
7F80
6000
7F80
ENDCHAR
STARTCHAR C030474
ENCODING 12604
SWIDTH 1000 0
DWIDTH 10 0
BBX 9 8 1 -1
BITMAP
7F00
0300
0300
FF80
7F00
0300
7F00
7F00
ENDCHAR
STARTCHAR C030475
ENCODING 12605
SWIDTH 1000 0
DWIDTH 10 0
BBX 9 8 1 -1
BITMAP
FF00
0300
0300
FF80
7F80
1980
7980
7980
ENDCHAR
STARTCHAR C030476
ENCODING 12606
SWIDTH 1000 0
DWIDTH 10 0
BBX 9 9 1 -2
BITMAP
FF00
0300
FF80
1800
FF80
3D80
FD80
FF80
E000
ENDCHAR
STARTCHAR C030477
ENCODING 12607
SWIDTH 1000 0
DWIDTH 10 0
BBX 9 8 1 -1
BITMAP
FF00
0300
FF80
1800
F700
3F80
FF80
FF00
ENDCHAR
STARTCHAR C030500
ENCODING 12608
SWIDTH 1000 0
DWIDTH 10 0
BBX 9 8 1 -1
BITMAP
FF00
0300
0300
FF80
0C00
7F80
6180
7F80
ENDCHAR
STARTCHAR C030501
ENCODING 12609
SWIDTH 1000 0
DWIDTH 10 0
BBX 9 8 1 -1
BITMAP
FF00
0300
0300
FF80
6F00
7F00
6300
7F00
ENDCHAR
STARTCHAR C030502
ENCODING 12610
SWIDTH 1000 0
DWIDTH 10 0
BBX 9 8 1 -1
BITMAP
FF00
0300
0300
FF80
0C00
0000
1C00
F700
ENDCHAR
STARTCHAR C030503
ENCODING 12611
SWIDTH 1000 0
DWIDTH 10 0
BBX 9 8 1 -1
BITMAP
FF00
0300
0300
FF80
7F00
C380
E180
7F00
ENDCHAR
STARTCHAR C030504
ENCODING 12612
SWIDTH 1000 0
DWIDTH 10 0
BBX 9 9 1 -2
BITMAP
FF00
0300
0300
FF80
1800
FF00
1800
7E00
0300
ENDCHAR
STARTCHAR C030505
ENCODING 12613
SWIDTH 1000 0
DWIDTH 10 0
BBX 10 10 1 -2
BITMAP
0180
FD80
0D80
0D80
0F80
7D80
1F80
1980
1980
1980
ENDCHAR
STARTCHAR C030506
ENCODING 12614
SWIDTH 1000 0
DWIDTH 10 0
BBX 9 9 1 -1
BITMAP
0180
FD80
0D80
FF80
3780
3180
7F80
0180
0180
ENDCHAR
STARTCHAR C030507
ENCODING 12615
SWIDTH 1000 0
DWIDTH 10 0
BBX 9 8 1 -1
BITMAP
FD80
0D80
0D80
FF80
3780
7180
6000
7F80
ENDCHAR
STARTCHAR C030510
ENCODING 12616
SWIDTH 1000 0
DWIDTH 10 0
BBX 9 8 1 -1
BITMAP
7D80
0D80
FF80
3780
3180
3F80
3F80
3F80
ENDCHAR
STARTCHAR C030511
ENCODING 12617
SWIDTH 1000 0
DWIDTH 10 0
BBX 9 9 1 -1
BITMAP
0180
FD80
0D80
FF80
3180
3780
0000
7700
DD80
ENDCHAR
STARTCHAR C030512
ENCODING 12618
SWIDTH 1000 0
DWIDTH 10 0
BBX 9 9 1 -1
BITMAP
0180
FD80
0D80
FF80
3780
3180
3F00
6180
3F00
ENDCHAR
STARTCHAR C030513
ENCODING 12619
SWIDTH 1000 0
DWIDTH 10 0
BBX 10 10 1 -2
BITMAP
0180
7F80
1F80
1F80
1F80
FF80
3F80
3780
3780
0600
ENDCHAR
STARTCHAR C030514
ENCODING 12620
SWIDTH 1000 0
DWIDTH 10 0
BBX 9 9 1 -1
BITMAP
0600
FF80
1F80
1F80
FF80
3F80
3E00
1E00
7380
ENDCHAR
STARTCHAR C030515
ENCODING 12621
SWIDTH 1000 0
DWIDTH 10 0
BBX 9 8 1 -1
BITMAP
FD80
0D80
0D80
0D80
FF80
1980
1980
1980
ENDCHAR
STARTCHAR C030516
ENCODING 12622
SWIDTH 1000 0
DWIDTH 10 0
BBX 9 8 1 -1
BITMAP
7F80
0780
0780
FF80
1980
7F80
0180
0180
ENDCHAR
STARTCHAR C030517
ENCODING 12623
SWIDTH 1000 0
DWIDTH 10 0
BBX 9 8 1 -1
BITMAP
FD80
0D80
0D80
FF80
1980
7980
6000
7F80
ENDCHAR
STARTCHAR C030520
ENCODING 12624
SWIDTH 1000 0
DWIDTH 10 0
BBX 9 8 1 -1
BITMAP
7D80
0D80
0D80
FF80
0180
7F80
7F80
7F80
ENDCHAR
STARTCHAR C030521
ENCODING 12625
SWIDTH 1000 0
DWIDTH 10 0
BBX 9 8 1 -1
BITMAP
7F80
0780
0780
FF80
1980
7F80
6180
7F80
ENDCHAR
STARTCHAR C030522
ENCODING 12626
SWIDTH 1000 0
DWIDTH 10 0
BBX 9 8 1 -1
BITMAP
FD80
0D80
0D80
FF80
1980
6180
7F80
7F80
ENDCHAR
STARTCHAR C030523
ENCODING 12627
SWIDTH 1000 0
DWIDTH 10 0
BBX 9 8 1 -1
BITMAP
FD80
0D80
0D80
FF80
3180
3D80
1E00
7380
ENDCHAR
STARTCHAR C030524
ENCODING 12628
SWIDTH 1000 0
DWIDTH 10 0
BBX 9 9 1 -2
BITMAP
FF00
0300
0300
0300
FF80
3600
3600
3600
3000
ENDCHAR
STARTCHAR C030525
ENCODING 12629
SWIDTH 1000 0
DWIDTH 10 0
BBX 9 8 1 -1
BITMAP
FF00
0300
0300
FF80
3600
F600
C000
FF00
ENDCHAR
STARTCHAR C030526
ENCODING 12630
SWIDTH 1000 0
DWIDTH 10 0
BBX 9 8 1 -1
BITMAP
7F00
0300
0300
FF80
7F00
0300
7F00
7F00
ENDCHAR
STARTCHAR C030527
ENCODING 12631
SWIDTH 1000 0
DWIDTH 10 0
BBX 9 8 1 -1
BITMAP
FF00
0300
0300
0300
0300
0300
0300
FF80
ENDCHAR
STARTCHAR C030530
ENCODING 12632
SWIDTH 1000 0
DWIDTH 10 0
BBX 9 9 1 -2
BITMAP
FF00
0300
0300
FF80
0000
FF00
0300
0300
0300
ENDCHAR
STARTCHAR C030531
ENCODING 12633
SWIDTH 1000 0
DWIDTH 10 0
BBX 9 8 1 -1
BITMAP
7F00
0300
0300
FF80
0000
6000
6000
7F80
ENDCHAR
STARTCHAR C030532
ENCODING 12634
SWIDTH 1000 0
DWIDTH 10 0
BBX 9 8 1 -1
BITMAP
7F00
0300
0300
FF80
0000
7F80
6000
7F80
ENDCHAR
STARTCHAR C030533
ENCODING 12635
SWIDTH 1000 0
DWIDTH 10 0
BBX 9 8 1 -1
BITMAP
7F00
0300
0300
FF80
7F00
0300
7F00
7F00
ENDCHAR
STARTCHAR C030534
ENCODING 12636
SWIDTH 1000 0
DWIDTH 10 0
BBX 9 8 1 -1
BITMAP
FF00
0300
0300
FF80
FF00
3300
F300
FB00
ENDCHAR
STARTCHAR C030535
ENCODING 12637
SWIDTH 1000 0
DWIDTH 10 0
BBX 9 8 1 -1
BITMAP
FF00
0300
0300
FF80
0000
7F80
6180
7F80
ENDCHAR
STARTCHAR C030536
ENCODING 12638
SWIDTH 1000 0
DWIDTH 10 0
BBX 9 8 1 -1
BITMAP
FF00
0300
0300
FF80
6300
7F00
6300
7F00
ENDCHAR
STARTCHAR C030537
ENCODING 12639
SWIDTH 1000 0
DWIDTH 10 0
BBX 9 8 1 -1
BITMAP
FF00
0300
0300
FF80
0000
0C00
1C00
7700
ENDCHAR
STARTCHAR C030540
ENCODING 12640
SWIDTH 1000 0
DWIDTH 10 0
BBX 9 8 1 -1
BITMAP
FF00
0300
0300
FF80
3F00
6180
6180
3F00
ENDCHAR
STARTCHAR C030541
ENCODING 12641
SWIDTH 1000 0
DWIDTH 10 0
BBX 9 8 1 -1
BITMAP
FD80
0D80
0D80
0D80
0D80
0D80
FF80
0180
ENDCHAR
STARTCHAR C030542
ENCODING 12642
SWIDTH 1000 0
DWIDTH 10 0
BBX 9 9 1 -1
BITMAP
0180
FD80
0D80
0D80
0D80
1980
1980
7180
C180
ENDCHAR
STARTCHAR C030543
ENCODING 12643
SWIDTH 1000 0
DWIDTH 10 0
BBX 9 8 1 -1
BITMAP
FD80
0D80
0D80
1980
3180
FF80
0180
0180
ENDCHAR
STARTCHAR C030544
ENCODING 12644
SWIDTH 1000 0
DWIDTH 10 0
BBX 9 8 1 -1
BITMAP
FD80
0D80
0D80
1980
3180
E180
6000
7F80
ENDCHAR
STARTCHAR C030545
ENCODING 12645
SWIDTH 1000 0
DWIDTH 10 0
BBX 9 8 1 -1
BITMAP
FD80
0D80
0D80
1980
7000
FF80
6000
7F80
ENDCHAR
STARTCHAR C030546
ENCODING 12646
SWIDTH 1000 0
DWIDTH 10 0
BBX 9 8 1 -1
BITMAP
FD80
0D80
0D80
1980
F000
7F80
3F80
3F80
ENDCHAR
STARTCHAR C030547
ENCODING 12647
SWIDTH 1000 0
DWIDTH 10 0
BBX 9 9 1 -2
BITMAP
FD80
0D80
1980
F180
7F80
1F80
7F80
7F80
7000
ENDCHAR
STARTCHAR C030550
ENCODING 12648
SWIDTH 1000 0
DWIDTH 10 0
BBX 9 8 1 -1
BITMAP
FD80
0D80
0D80
1980
7000
FF80
6180
7F80
ENDCHAR
STARTCHAR C030551
ENCODING 12649
SWIDTH 1000 0
DWIDTH 10 0
BBX 9 9 1 -1
BITMAP
0180
FD80
0D80
0D80
1980
F180
7F80
6180
7F80
ENDCHAR
STARTCHAR C030552
ENCODING 12650
SWIDTH 1000 0
DWIDTH 10 0
BBX 9 8 1 -1
BITMAP
F980
0D80
0D80
1980
3180
EC00
1E00
7380
ENDCHAR
STARTCHAR C030553
ENCODING 12651
SWIDTH 1000 0
DWIDTH 10 0
BBX 10 10 1 -2
BITMAP
0180
FD80
0D80
0D80
1980
7F00
F380
6180
7380
1F00
ENDCHAR
STARTCHAR C030554
ENCODING 12652
SWIDTH 1000 0
DWIDTH 10 0
BBX 9 9 1 -2
BITMAP
7D80
0D80
1980
3180
E180
FF80
0C00
1E00
7380
ENDCHAR
STARTCHAR C030555
ENCODING 12653
SWIDTH 1000 0
DWIDTH 10 0
BBX 9 9 1 -2
BITMAP
FD80
0D80
1980
1980
F180
7F80
3300
3F00
6000
ENDCHAR
STARTCHAR C030556
ENCODING 12654
SWIDTH 1000 0
DWIDTH 10 0
BBX 11 10 0 -2
BITMAP
0020
FFA0
3780
3780
37C0
37A0
6780
6D80
0180
0180
ENDCHAR
STARTCHAR C030557
ENCODING 12655
SWIDTH 1000 0
DWIDTH 10 0
BBX 9 8 1 -1
BITMAP
FF00
3F00
3F80
6F00
DB00
FF00
0300
0300
ENDCHAR
STARTCHAR C030560
ENCODING 12656
SWIDTH 1000 0
DWIDTH 10 0
BBX 9 9 1 -2
BITMAP
FF00
3F80
3F00
6F00
D800
FF00
3300
3300
3300
ENDCHAR
STARTCHAR C030561
ENCODING 12657
SWIDTH 1000 0
DWIDTH 10 0
BBX 9 8 1 -1
BITMAP
FF00
3F00
3F80
3F00
7B00
F300
C000
FF00
ENDCHAR
STARTCHAR C030562
ENCODING 12658
SWIDTH 1000 0
DWIDTH 10 0
BBX 9 9 1 -1
BITMAP
0300
FF00
6F80
6F00
6F00
D800
7F00
7F00
7F00
ENDCHAR
STARTCHAR C030563
ENCODING 12659
SWIDTH 1000 0
DWIDTH 10 0
BBX 9 9 1 -2
BITMAP
FF00
6F00
6F80
6F00
FF00
3F00
FF00
FF00
E000
ENDCHAR
STARTCHAR C030564
ENCODING 12660
SWIDTH 1000 0
DWIDTH 10 0
BBX 9 8 1 -1
BITMAP
FF00
3F00
3F80
6F00
DB00
7F00
6300
7F00
ENDCHAR
STARTCHAR C030565
ENCODING 12661
SWIDTH 1000 0
DWIDTH 10 0
BBX 9 8 1 -1
BITMAP
FF00
3F00
3F80
6F00
FB00
7F00
6300
7F00
ENDCHAR
STARTCHAR C030566
ENCODING 12662
SWIDTH 1000 0
DWIDTH 10 0
BBX 10 8 1 -1
BITMAP
FF40
3F00
3F80
7B00
DB40
1B00
3C00
E740
ENDCHAR
STARTCHAR C030567
ENCODING 12663
SWIDTH 1000 0
DWIDTH 10 0
BBX 9 8 1 -1
BITMAP
FF00
3F00
3F80
6F00
DB00
0000
7700
DD80
ENDCHAR
STARTCHAR C030570
ENCODING 12664
SWIDTH 1000 0
DWIDTH 10 0
BBX 11 10 0 -2
BITMAP
0020
7FA0
37A0
37C0
3780
6D80
3F00
61A0
6180
3F00
ENDCHAR
STARTCHAR C030571
ENCODING 12665
SWIDTH 1000 0
DWIDTH 10 0
BBX 10 8 1 -1
BITMAP
FF00
3F00
3F80
6F00
DB00
FF40
FF00
FF00
ENDCHAR
STARTCHAR C030572
ENCODING 12666
SWIDTH 1000 0
DWIDTH 10 0
BBX 9 9 1 -1
BITMAP
7780
3F80
3F80
3F80
6F80
6F80
CF80
1F80
0780
ENDCHAR
STARTCHAR C030573
ENCODING 12667
SWIDTH 1000 0
DWIDTH 10 0
BBX 9 8 1 -1
BITMAP
FF80
3F80
3F80
6F80
7F80
7F80
0180
0180
ENDCHAR
STARTCHAR C030574
ENCODING 12668
SWIDTH 1000 0
DWIDTH 10 0
BBX 9 9 1 -1
BITMAP
0600
FF80
3F80
3F80
3F80
7F80
6780
6000
7F80
ENDCHAR
STARTCHAR C030575
ENCODING 12669
SWIDTH 1000 0
DWIDTH 10 0
BBX 9 9 1 -1
BITMAP
0600
FF80
6F80
7F80
7F80
FF80
0180
7F80
7F80
ENDCHAR
STARTCHAR C030576
ENCODING 12670
SWIDTH 1000 0
DWIDTH 10 0
BBX 9 8 1 -1
BITMAP
FF80
3F80
3F80
7F80
FF80
7F80
6180
7F80
ENDCHAR
STARTCHAR C030577
ENCODING 12671
SWIDTH 1000 0
DWIDTH 10 0
BBX 0 0 0 0
BITMAP
ENDCHAR
STARTCHAR C031040
ENCODING 12832
SWIDTH 1000 0
DWIDTH 10 0
BBX 0 0 0 0
BITMAP
ENDCHAR
STARTCHAR C031041
ENCODING 12833
SWIDTH 1000 0
DWIDTH 10 0
BBX 8 8 2 -1
BITMAP
FF
7F
7F
DF
3F
C3
FF
FF
ENDCHAR
STARTCHAR C031042
ENCODING 12834
SWIDTH 1000 0
DWIDTH 10 0
BBX 9 8 1 -1
BITMAP
FF80
6F80
6F80
6F80
DF80
0D80
1C00
F780
ENDCHAR
STARTCHAR C031043
ENCODING 12835
SWIDTH 1000 0
DWIDTH 10 0
BBX 9 8 1 -1
BITMAP
FF80
6F80
6F80
CF80
1F80
0000
7700
DD80
ENDCHAR
STARTCHAR C031044
ENCODING 12836
SWIDTH 1000 0
DWIDTH 10 0
BBX 8 9 2 -2
BITMAP
FF
7F
7F
DF
FF
7E
C3
C3
7E
ENDCHAR
STARTCHAR C031045
ENCODING 12837
SWIDTH 1000 0
DWIDTH 10 0
BBX 10 8 0 -1
BITMAP
FF80
3780
37C0
3780
3780
37C0
6D80
0180
ENDCHAR
STARTCHAR C031046
ENCODING 12838
SWIDTH 1000 0
DWIDTH 10 0
BBX 9 8 1 -1
BITMAP
FF00
3F80
3F00
6F80
DB00
FF00
0300
0300
ENDCHAR
STARTCHAR C031047
ENCODING 12839
SWIDTH 1000 0
DWIDTH 10 0
BBX 10 9 1 -1
BITMAP
0340
FFC0
6F40
6F80
6F00
D800
7F00
7F40
7F00
ENDCHAR
STARTCHAR C031050
ENCODING 12840
SWIDTH 1000 0
DWIDTH 10 0
BBX 9 8 1 -1
BITMAP
FF80
3780
3780
3780
3780
6780
6D80
0180
ENDCHAR
STARTCHAR C031051
ENCODING 12841
SWIDTH 1000 0
DWIDTH 10 0
BBX 9 8 1 -1
BITMAP
FF80
3780
3780
6D80
CD80
7F80
0180
0180
ENDCHAR
STARTCHAR C031052
ENCODING 12842
SWIDTH 1000 0
DWIDTH 10 0
BBX 9 9 1 -2
BITMAP
FF80
3780
3780
6D80
CD80
7F80
1980
1980
1980
ENDCHAR
STARTCHAR C031053
ENCODING 12843
SWIDTH 1000 0
DWIDTH 10 0
BBX 9 9 1 -1
BITMAP
0180
FF80
3780
3780
3D80
7980
6180
6000
7F80
ENDCHAR
STARTCHAR C031054
ENCODING 12844
SWIDTH 1000 0
DWIDTH 10 0
BBX 9 8 1 -1
BITMAP
FF80
3780
3780
6D80
D980
7F80
7F80
7F80
ENDCHAR
STARTCHAR C031055
ENCODING 12845
SWIDTH 1000 0
DWIDTH 10 0
BBX 9 8 1 -1
BITMAP
FF80
3780
3780
6D80
CD80
7F80
6180
7F80
ENDCHAR
STARTCHAR C031056
ENCODING 12846
SWIDTH 1000 0
DWIDTH 10 0
BBX 9 8 1 -1
BITMAP
FF80
3780
3780
6D80
ED80
7F80
6180
7F80
ENDCHAR
STARTCHAR C031057
ENCODING 12847
SWIDTH 1000 0
DWIDTH 10 0
BBX 9 9 1 -1
BITMAP
0180
FF80
3780
3780
6D80
CD80
0D80
1E00
7380
ENDCHAR
STARTCHAR C031060
ENCODING 12848
SWIDTH 1000 0
DWIDTH 10 0
BBX 9 9 1 -1
BITMAP
0180
FD80
3D80
3F80
6D80
D980
0000
7300
DF80
ENDCHAR
STARTCHAR C031061
ENCODING 12849
SWIDTH 1000 0
DWIDTH 10 0
BBX 10 10 1 -2
BITMAP
0180
FF80
3780
3780
6D80
F980
3F80
6180
6180
3F00
ENDCHAR
STARTCHAR C031062
ENCODING 12850
SWIDTH 1000 0
DWIDTH 10 0
BBX 10 10 1 -2
BITMAP
0180
FF80
6F80
6F80
6F80
6F80
6F80
DF80
0780
0600
ENDCHAR
STARTCHAR C031063
ENCODING 12851
SWIDTH 1000 0
DWIDTH 10 0
BBX 9 9 1 -1
BITMAP
0600
FF80
3F80
3F80
6F80
DF80
7F80
0180
0180
ENDCHAR
STARTCHAR C031064
ENCODING 12852
SWIDTH 1000 0
DWIDTH 10 0
BBX 9 8 1 -1
BITMAP
FF80
6F80
6F80
6F80
DF80
6780
6000
7F80
ENDCHAR
STARTCHAR C031065
ENCODING 12853
SWIDTH 1000 0
DWIDTH 10 0
BBX 9 9 1 -1
BITMAP
0600
FF80
6F80
6F80
CF80
DF80
7F80
6180
7F80
ENDCHAR
STARTCHAR C031066
ENCODING 12854
SWIDTH 1000 0
DWIDTH 10 0
BBX 9 8 1 -1
BITMAP
FF80
6F80
6F80
6F80
DF80
0C00
1E00
7380
ENDCHAR
STARTCHAR C031067
ENCODING 12855
SWIDTH 1000 0
DWIDTH 10 0
BBX 9 9 1 -2
BITMAP
FF80
3F80
3F80
6F80
FF80
3F00
6180
6180
3F00
ENDCHAR
STARTCHAR C031070
ENCODING 12856
SWIDTH 1000 0
DWIDTH 10 0
BBX 10 10 1 -2
BITMAP
0180
FF80
3780
3780
3780
3780
3780
6D80
0180
0180
ENDCHAR
STARTCHAR C031071
ENCODING 12857
SWIDTH 1000 0
DWIDTH 10 0
BBX 9 8 1 -1
BITMAP
FF80
3780
3780
3780
6D80
7980
6000
7F80
ENDCHAR
STARTCHAR C031072
ENCODING 12858
SWIDTH 1000 0
DWIDTH 10 0
BBX 9 8 1 -1
BITMAP
FF80
3780
3780
6D80
D800
7F80
7F80
7F80
ENDCHAR
STARTCHAR C031073
ENCODING 12859
SWIDTH 1000 0
DWIDTH 10 0
BBX 9 9 1 -2
BITMAP
FD80
3F80
3D80
6F80
D980
0D80
1E00
7300
0180
ENDCHAR
STARTCHAR C031074
ENCODING 12860
SWIDTH 1000 0
DWIDTH 10 0
BBX 9 8 1 -1
BITMAP
FD80
3F80
6D80
7B80
C180
0300
7300
DF80
ENDCHAR
STARTCHAR C031075
ENCODING 12861
SWIDTH 1000 0
DWIDTH 10 0
BBX 9 8 1 -1
BITMAP
FD80
3780
3D80
6F80
D980
7F80
7F80
7F80
ENDCHAR
STARTCHAR C031076
ENCODING 12862
SWIDTH 1000 0
DWIDTH 10 0
BBX 9 9 1 -1
BITMAP
0180
7F80
3F80
3F80
3F80
6F80
6F80
DF80
0780
ENDCHAR
STARTCHAR C031077
ENCODING 12863
SWIDTH 1000 0
DWIDTH 10 0
BBX 9 8 1 -1
BITMAP
7F00
1B00
1B00
1B00
1F00
0C00
0C00
FF80
ENDCHAR
STARTCHAR C031100
ENCODING 12864
SWIDTH 1000 0
DWIDTH 10 0
BBX 9 8 1 -1
BITMAP
FF00
3300
3F00
0C00
FF80
7F00
0300
0300
ENDCHAR
STARTCHAR C031101
ENCODING 12865
SWIDTH 1000 0
DWIDTH 10 0
BBX 9 8 1 -1
BITMAP
FF00
3300
3F00
0C00
FF80
6000
6000
7F80
ENDCHAR
STARTCHAR C031102
ENCODING 12866
SWIDTH 1000 0
DWIDTH 10 0
BBX 9 8 1 -1
BITMAP
FF00
3F00
3F00
FF80
C700
CF80
FF00
0F00
ENDCHAR
STARTCHAR C031103
ENCODING 12867
SWIDTH 1000 0
DWIDTH 10 0
BBX 9 8 1 -1
BITMAP
FF00
3F00
3F00
FF80
0000
7F00
7F00
7F00
ENDCHAR
STARTCHAR C031104
ENCODING 12868
SWIDTH 1000 0
DWIDTH 10 0
BBX 9 8 1 -1
BITMAP
FF00
3F00
3F00
FF80
0000
7F00
6300
7F00
ENDCHAR
STARTCHAR C031105
ENCODING 12869
SWIDTH 1000 0
DWIDTH 10 0
BBX 9 8 1 -1
BITMAP
FF00
3F00
3F00
FF80
6300
7F00
6300
7F00
ENDCHAR
STARTCHAR C031106
ENCODING 12870
SWIDTH 1000 0
DWIDTH 10 0
BBX 9 8 1 -1
BITMAP
7F80
1980
1D80
1D80
FF80
0C00
1C00
7700
ENDCHAR
STARTCHAR C031107
ENCODING 12871
SWIDTH 1000 0
DWIDTH 10 0
BBX 9 9 1 -2
BITMAP
7F80
1980
1D80
1D80
FF80
3F00
6180
6180
3F00
ENDCHAR
STARTCHAR C031110
ENCODING 12872
SWIDTH 1000 0
DWIDTH 10 0
BBX 9 8 1 -1
BITMAP
FF00
3300
3F00
3F00
FF80
7F80
1C00
7700
ENDCHAR
STARTCHAR C031111
ENCODING 12873
SWIDTH 1000 0
DWIDTH 10 0
BBX 9 8 1 -1
BITMAP
FF00
FF80
3300
3F00
0000
7F00
1C00
7700
ENDCHAR
STARTCHAR C031112
ENCODING 12874
SWIDTH 1000 0
DWIDTH 10 0
BBX 9 9 1 -2
BITMAP
FF00
6F00
6F00
6F80
3F00
3300
FF00
0300
0300
ENDCHAR
STARTCHAR C031113
ENCODING 12875
SWIDTH 1000 0
DWIDTH 10 0
BBX 9 8 1 -1
BITMAP
FF00
6F00
7F80
7F00
F700
FF00
0300
0300
ENDCHAR
STARTCHAR C031114
ENCODING 12876
SWIDTH 1000 0
DWIDTH 10 0
BBX 9 8 1 -1
BITMAP
FF00
3F00
3F80
FF00
1E00
7F00
7F00
7F00
ENDCHAR
STARTCHAR C031115
ENCODING 12877
SWIDTH 1000 0
DWIDTH 10 0
BBX 9 8 1 -1
BITMAP
FF00
6F00
7F80
7F00
3F00
6000
6700
FD80
ENDCHAR
STARTCHAR C031116
ENCODING 12878
SWIDTH 1000 0
DWIDTH 10 0
BBX 9 9 1 -2
BITMAP
FF00
6F00
7F80
7F00
FF00
7F00
C300
C300
7E00
ENDCHAR
STARTCHAR C031117
ENCODING 12879
SWIDTH 1000 0
DWIDTH 10 0
BBX 10 10 1 -2
BITMAP
E180
7F80
6F80
6F80
6F80
3F80
3780
FF80
0780
0780
ENDCHAR
STARTCHAR C031120
ENCODING 12880
SWIDTH 1000 0
DWIDTH 10 0
BBX 9 8 1 -1
BITMAP
FF80
6F80
6F80
7F80
FF80
7F80
0180
0180
ENDCHAR
STARTCHAR C031121
ENCODING 12881
SWIDTH 1000 0
DWIDTH 10 0
BBX 9 9 1 -2
BITMAP
FF80
6F80
6F80
7F80
FF80
3F00
6180
6180
3F00
ENDCHAR
STARTCHAR C031122
ENCODING 12882
SWIDTH 1000 0
DWIDTH 10 0
BBX 10 10 1 -2
BITMAP
F000
3F80
3780
3780
3780
1F80
1980
FF80
0180
0180
ENDCHAR
STARTCHAR C031123
ENCODING 12883
SWIDTH 1000 0
DWIDTH 10 0
BBX 9 8 1 -1
BITMAP
FF80
3780
3F80
1F80
FF80
6180
6000
7F80
ENDCHAR
STARTCHAR C031124
ENCODING 12884
SWIDTH 1000 0
DWIDTH 10 0
BBX 9 9 1 -1
BITMAP
FE00
3780
3780
1F80
FF80
0180
7F80
7F80
7F80
ENDCHAR
STARTCHAR C031125
ENCODING 12885
SWIDTH 1000 0
DWIDTH 10 0
BBX 9 9 1 -1
BITMAP
FE00
3780
3780
1F80
FF80
0000
7F80
6180
7F80
ENDCHAR
STARTCHAR C031126
ENCODING 12886
SWIDTH 1000 0
DWIDTH 10 0
BBX 9 8 1 -1
BITMAP
FF80
3780
3F80
FF80
0000
6180
7F80
7F80
ENDCHAR
STARTCHAR C031127
ENCODING 12887
SWIDTH 1000 0
DWIDTH 10 0
BBX 9 9 1 -2
BITMAP
FF80
3F80
3F80
1F80
F980
3F00
6180
6180
3F00
ENDCHAR
STARTCHAR C031130
ENCODING 12888
SWIDTH 1000 0
DWIDTH 10 0
BBX 9 8 1 -1
BITMAP
FF80
3180
3180
3180
7F80
7F80
1E00
FF80
ENDCHAR
STARTCHAR C031131
ENCODING 12889
SWIDTH 1000 0
DWIDTH 10 0
BBX 9 8 1 -1
BITMAP
FF00
1B00
1B00
1B00
FF80
0C00
0C00
0C00
ENDCHAR
STARTCHAR C031132
ENCODING 12890
SWIDTH 1000 0
DWIDTH 10 0
BBX 9 8 1 -1
BITMAP
FF00
1B00
1B00
FF80
0C00
7F00
0300
0300
ENDCHAR
STARTCHAR C031133
ENCODING 12891
SWIDTH 1000 0
DWIDTH 10 0
BBX 9 8 1 -1
BITMAP
FF00
1B00
1B00
FF80
0C00
6C00
6000
7F80
ENDCHAR
STARTCHAR C031134
ENCODING 12892
SWIDTH 1000 0
DWIDTH 10 0
BBX 9 8 1 -1
BITMAP
FF00
1B00
3300
FF80
7F00
0300
7F00
7F00
ENDCHAR
STARTCHAR C031135
ENCODING 12893
SWIDTH 1000 0
DWIDTH 10 0
BBX 9 8 1 -1
BITMAP
7F80
1980
1980
FF80
F700
3F80
FF80
FF80
ENDCHAR
STARTCHAR C031136
ENCODING 12894
SWIDTH 1000 0
DWIDTH 10 0
BBX 9 8 1 -1
BITMAP
FF00
1B00
1B00
FF80
0C00
7F80
6180
7F80
ENDCHAR
STARTCHAR C031137
ENCODING 12895
SWIDTH 1000 0
DWIDTH 10 0
BBX 9 8 1 -1
BITMAP
FF00
1B00
1B00
FF80
6F00
7F00
6300
7F00
ENDCHAR
STARTCHAR C031140
ENCODING 12896
SWIDTH 1000 0
DWIDTH 10 0
BBX 9 9 1 -2
BITMAP
7F00
1B00
1B00
FF80
0C00
0000
1C00
3700
6000
ENDCHAR
STARTCHAR C031141
ENCODING 12897
SWIDTH 1000 0
DWIDTH 10 0
BBX 9 9 1 -2
BITMAP
FF00
1B00
1B00
FF80
0C00
3F00
6180
6180
3F00
ENDCHAR
STARTCHAR C031142
ENCODING 12898
SWIDTH 1000 0
DWIDTH 10 0
BBX 9 9 1 -2
BITMAP
FF00
1B00
1B00
FF80
0C00
7F00
1C00
3700
6000
ENDCHAR
STARTCHAR C031143
ENCODING 12899
SWIDTH 1000 0
DWIDTH 10 0
BBX 10 10 1 -2
BITMAP
0180
FF80
3780
3780
3780
F780
1F80
1980
1980
1800
ENDCHAR
STARTCHAR C031144
ENCODING 12900
SWIDTH 1000 0
DWIDTH 10 0
BBX 9 8 1 -1
BITMAP
FF80
3780
FF80
1F80
0000
7F80
7F80
7F80
ENDCHAR
STARTCHAR C031145
ENCODING 12901
SWIDTH 1000 0
DWIDTH 10 0
BBX 9 8 1 -1
BITMAP
FF80
3F80
3D80
FF80
1980
1B00
7700
DD80
ENDCHAR
STARTCHAR C031146
ENCODING 12902
SWIDTH 1000 0
DWIDTH 10 0
BBX 9 9 1 -2
BITMAP
FF80
3780
3780
FF80
1F80
3F80
6180
6180
3F00
ENDCHAR
STARTCHAR C031147
ENCODING 12903
SWIDTH 1000 0
DWIDTH 10 0
BBX 8 9 2 -2
BITMAP
FF
7F
7F
7F
FF
7F
6F
6F
03
ENDCHAR
STARTCHAR C031150
ENCODING 12904
SWIDTH 1000 0
DWIDTH 10 0
BBX 10 10 1 -2
BITMAP
0780
FF80
6F80
6F80
7F80
3600
7F80
0180
0180
0180
ENDCHAR
STARTCHAR C031151
ENCODING 12905
SWIDTH 1000 0
DWIDTH 10 0
BBX 9 9 1 -1
BITMAP
0180
FF80
7F80
7F80
7F80
3F80
7780
6600
7F80
ENDCHAR
STARTCHAR C031152
ENCODING 12906
SWIDTH 1000 0
DWIDTH 10 0
BBX 9 9 1 -1
BITMAP
0180
FF80
7F80
7F80
FF80
3000
7F80
7F80
7F80
ENDCHAR
STARTCHAR C031153
ENCODING 12907
SWIDTH 1000 0
DWIDTH 10 0
BBX 9 9 1 -1
BITMAP
0780
FF80
6F80
6F80
FF80
3600
7F80
6180
7F80
ENDCHAR
STARTCHAR C031154
ENCODING 12908
SWIDTH 1000 0
DWIDTH 10 0
BBX 9 9 1 -1
BITMAP
0780
FF80
6F80
6F80
FF80
3600
6180
7F80
7F80
ENDCHAR
STARTCHAR C031155
ENCODING 12909
SWIDTH 1000 0
DWIDTH 10 0
BBX 9 9 1 -1
BITMAP
0780
FF80
7F80
7F80
FF80
3600
3000
7300
1F80
ENDCHAR
STARTCHAR C031156
ENCODING 12910
SWIDTH 1000 0
DWIDTH 10 0
BBX 9 9 1 -2
BITMAP
FF80
3780
3780
3780
FF80
1980
1980
1980
1800
ENDCHAR
STARTCHAR C031157
ENCODING 12911
SWIDTH 1000 0
DWIDTH 10 0
BBX 9 9 1 -1
BITMAP
0180
FF80
3780
3780
FF80
1B80
7980
6000
7F80
ENDCHAR
STARTCHAR C031160
ENCODING 12912
SWIDTH 1000 0
DWIDTH 10 0
BBX 9 8 1 -1
BITMAP
FF80
3780
3780
FF80
1980
7F80
7F80
7F80
ENDCHAR
STARTCHAR C031161
ENCODING 12913
SWIDTH 1000 0
DWIDTH 10 0
BBX 9 8 1 -1
BITMAP
FF80
3780
3780
FF80
1980
7F80
6180
7F80
ENDCHAR
STARTCHAR C031162
ENCODING 12914
SWIDTH 1000 0
DWIDTH 10 0
BBX 9 8 1 -1
BITMAP
FF80
3780
3780
FF80
1980
7980
7F80
7F80
ENDCHAR
STARTCHAR C031163
ENCODING 12915
SWIDTH 1000 0
DWIDTH 10 0
BBX 9 9 1 -2
BITMAP
7F00
1B00
1B00
1B00
FF80
3600
3600
3600
3600
ENDCHAR
STARTCHAR C031164
ENCODING 12916
SWIDTH 1000 0
DWIDTH 10 0
BBX 9 8 1 -1
BITMAP
7F80
1980
1980
1980
1980
1980
1980
FF80
ENDCHAR
STARTCHAR C031165
ENCODING 12917
SWIDTH 1000 0
DWIDTH 10 0
BBX 9 9 1 -2
BITMAP
7F80
1980
1B00
FF80
0000
FF00
0300
0300
0300
ENDCHAR
STARTCHAR C031166
ENCODING 12918
SWIDTH 1000 0
DWIDTH 10 0
BBX 9 8 1 -1
BITMAP
7F80
1980
1980
1980
FF80
6000
6000
7F80
ENDCHAR
STARTCHAR C031167
ENCODING 12919
SWIDTH 1000 0
DWIDTH 10 0
BBX 9 9 1 -2
BITMAP
7F80
1980
1980
FF80
6700
6F80
6F00
7D80
0F00
ENDCHAR
STARTCHAR C031170
ENCODING 12920
SWIDTH 1000 0
DWIDTH 10 0
BBX 9 8 1 -1
BITMAP
7F80
1980
1980
FF80
7F00
0300
7F00
7F00
ENDCHAR
STARTCHAR C031171
ENCODING 12921
SWIDTH 1000 0
DWIDTH 10 0
BBX 9 9 1 -2
BITMAP
7F80
1980
1980
FF80
7F80
3D80
7D80
7F80
6000
ENDCHAR
STARTCHAR C031172
ENCODING 12922
SWIDTH 1000 0
DWIDTH 10 0
BBX 9 8 1 -1
BITMAP
7F80
1980
1980
FF80
F700
3F80
FF80
FF00
ENDCHAR
STARTCHAR C031173
ENCODING 12923
SWIDTH 1000 0
DWIDTH 10 0
BBX 9 8 1 -1
BITMAP
7F80
1980
1980
FF80
0000
7F80
6180
7F80
ENDCHAR
STARTCHAR C031174
ENCODING 12924
SWIDTH 1000 0
DWIDTH 10 0
BBX 9 8 1 -1
BITMAP
7F80
1980
1B00
FF80
6300
7F00
6300
7F00
ENDCHAR
STARTCHAR C031175
ENCODING 12925
SWIDTH 1000 0
DWIDTH 10 0
BBX 9 9 1 -2
BITMAP
7F80
1980
1980
1980
FF80
0C00
1C00
7700
0180
ENDCHAR
STARTCHAR C031176
ENCODING 12926
SWIDTH 1000 0
DWIDTH 10 0
BBX 9 9 1 -2
BITMAP
7F80
1980
1980
FF80
0000
3F00
6180
6180
3F00
ENDCHAR
STARTCHAR C031177
ENCODING 12927
SWIDTH 1000 0
DWIDTH 10 0
BBX 0 0 0 0
BITMAP
ENDCHAR
STARTCHAR C031440
ENCODING 13088
SWIDTH 1000 0
DWIDTH 10 0
BBX 1 1 10 3
BITMAP
80
ENDCHAR
STARTCHAR C031441
ENCODING 13089
SWIDTH 1000 0
DWIDTH 10 0
BBX 9 8 1 -1
BITMAP
7F80
1980
1980
FF80
7F80
6000
7F80
7F80
ENDCHAR
STARTCHAR C031442
ENCODING 13090
SWIDTH 1000 0
DWIDTH 10 0
BBX 9 8 1 -1
BITMAP
FF80
3780
3780
3780
3780
3780
6D80
0180
ENDCHAR
STARTCHAR C031443
ENCODING 13091
SWIDTH 1000 0
DWIDTH 10 0
BBX 9 8 1 -1
BITMAP
FF80
3780
3780
6780
ED80
7F80
0180
0180
ENDCHAR
STARTCHAR C031444
ENCODING 13092
SWIDTH 1000 0
DWIDTH 10 0
BBX 9 8 1 -1
BITMAP
FF80
3780
3780
3780
6D80
7980
6000
7F80
ENDCHAR
STARTCHAR C031445
ENCODING 13093
SWIDTH 1000 0
DWIDTH 10 0
BBX 9 8 1 -1
BITMAP
FF80
3780
3780
6D80
D980
7F80
7F80
7F80
ENDCHAR
STARTCHAR C031446
ENCODING 13094
SWIDTH 1000 0
DWIDTH 10 0
BBX 9 8 1 -1
BITMAP
FF80
3780
3780
6D80
CC00
7F80
6180
7F80
ENDCHAR
STARTCHAR C031447
ENCODING 13095
SWIDTH 1000 0
DWIDTH 10 0
BBX 9 8 1 -1
BITMAP
FF80
3780
3780
6D80
FD80
7F80
6180
7F80
ENDCHAR
STARTCHAR C031450
ENCODING 13096
SWIDTH 1000 0
DWIDTH 10 0
BBX 9 9 1 -2
BITMAP
FF80
3780
3780
6D80
CD80
0000
0C00
3E00
E380
ENDCHAR
STARTCHAR C031451
ENCODING 13097
SWIDTH 1000 0
DWIDTH 10 0
BBX 9 9 1 -2
BITMAP
FF80
3780
3780
3D80
ED80
3F00
6180
6180
3F00
ENDCHAR
STARTCHAR C031452
ENCODING 13098
SWIDTH 1000 0
DWIDTH 10 0
BBX 9 9 1 -1
BITMAP
C300
C300
C300
C300
C380
C300
FF00
0300
0300
ENDCHAR
STARTCHAR C031453
ENCODING 13099
SWIDTH 1000 0
DWIDTH 10 0
BBX 9 9 1 -1
BITMAP
0300
C300
C380
C300
FF00
0300
FF00
0300
0300
ENDCHAR
STARTCHAR C031454
ENCODING 13100
SWIDTH 1000 0
DWIDTH 10 0
BBX 9 10 1 -2
BITMAP
0300
C300
C380
C300
FF00
0300
FF00
3300
3300
3300
ENDCHAR
STARTCHAR C031455
ENCODING 13101
SWIDTH 1000 0
DWIDTH 10 0
BBX 9 8 1 -1
BITMAP
C300
C300
C380
FF00
0300
C300
C000
FF00
ENDCHAR
STARTCHAR C031456
ENCODING 13102
SWIDTH 1000 0
DWIDTH 10 0
BBX 9 8 1 -1
BITMAP
C300
C380
C300
FF00
0300
FF00
C000
FF00
ENDCHAR
STARTCHAR C031457
ENCODING 13103
SWIDTH 1000 0
DWIDTH 10 0
BBX 9 8 1 -1
BITMAP
C300
C380
C300
FF00
FF00
0300
FF00
FF00
ENDCHAR
STARTCHAR C031460
ENCODING 13104
SWIDTH 1000 0
DWIDTH 10 0
BBX 9 8 1 -1
BITMAP
C300
C380
C300
FF00
FF00
3300
F300
FB00
ENDCHAR
STARTCHAR C031461
ENCODING 13105
SWIDTH 1000 0
DWIDTH 10 0
BBX 9 9 1 -2
BITMAP
C300
C380
C300
FF00
FF00
3F00
FF00
FF00
E000
ENDCHAR
STARTCHAR C031462
ENCODING 13106
SWIDTH 1000 0
DWIDTH 10 0
BBX 9 8 1 -1
BITMAP
C300
C380
C300
FF00
0300
FF00
C300
FF00
ENDCHAR
STARTCHAR C031463
ENCODING 13107
SWIDTH 1000 0
DWIDTH 10 0
BBX 9 8 1 -1
BITMAP
C300
C380
C300
FF00
C300
FF00
C300
FF00
ENDCHAR
STARTCHAR C031464
ENCODING 13108
SWIDTH 1000 0
DWIDTH 10 0
BBX 9 8 1 -1
BITMAP
C300
C300
C380
FF00
0300
1800
3C00
E700
ENDCHAR
STARTCHAR C031465
ENCODING 13109
SWIDTH 1000 0
DWIDTH 10 0
BBX 10 10 1 -2
BITMAP
C000
C300
C380
C300
FF00
0300
6600
6600
FF00
0180
ENDCHAR
STARTCHAR C031466
ENCODING 13110
SWIDTH 1000 0
DWIDTH 10 0
BBX 9 9 1 -2
BITMAP
C300
C380
C300
FF00
0300
7E00
C300
C300
7E00
ENDCHAR
STARTCHAR C031467
ENCODING 13111
SWIDTH 1000 0
DWIDTH 10 0
BBX 9 9 1 -2
BITMAP
C300
C380
C300
FF00
0300
FF00
1800
3C00
E700
ENDCHAR
STARTCHAR C031470
ENCODING 13112
SWIDTH 1000 0
DWIDTH 10 0
BBX 9 8 1 -1
BITMAP
C300
C380
C300
FF00
3F00
FF00
3800
EF00
ENDCHAR
STARTCHAR C031471
ENCODING 13113
SWIDTH 1000 0
DWIDTH 10 0
BBX 9 8 1 -1
BITMAP
C300
C380
C300
FF00
FF00
C000
FF00
FF00
ENDCHAR
STARTCHAR C031472
ENCODING 13114
SWIDTH 1000 0
DWIDTH 10 0
BBX 9 9 1 -2
BITMAP
C300
C380
C300
FF00
3F00
FF00
7E00
C300
7E00
ENDCHAR
STARTCHAR C031473
ENCODING 13115
SWIDTH 1000 0
DWIDTH 10 0
BBX 10 10 1 -2
BITMAP
0D80
CD80
CD80
CD80
CF80
CD80
CD80
7D80
0D80
0D80
ENDCHAR
STARTCHAR C031474
ENCODING 13116
SWIDTH 1000 0
DWIDTH 10 0
BBX 9 9 1 -1
BITMAP
C000
C780
C780
C780
FF80
0780
7F80
0180
0180
ENDCHAR
STARTCHAR C031475
ENCODING 13117
SWIDTH 1000 0
DWIDTH 10 0
BBX 9 9 1 -1
BITMAP
0C00
CD80
CD80
CF80
CD80
FD80
6D80
6D80
7F80
ENDCHAR
STARTCHAR C031476
ENCODING 13118
SWIDTH 1000 0
DWIDTH 10 0
BBX 9 8 1 -1
BITMAP
CD80
C780
C780
FF80
7F00
0180
7F00
7F80
ENDCHAR
STARTCHAR C031477
ENCODING 13119
SWIDTH 1000 0
DWIDTH 10 0
BBX 9 9 1 -1
BITMAP
C600
C780
C780
C780
FF80
0780
7F80
6180
7F80
ENDCHAR
STARTCHAR C031500
ENCODING 13120
SWIDTH 1000 0
DWIDTH 10 0
BBX 9 9 1 -1
BITMAP
C600
C780
C780
C780
FF80
6180
7F80
6180
7F80
ENDCHAR
STARTCHAR C031501
ENCODING 13121
SWIDTH 1000 0
DWIDTH 10 0
BBX 9 9 1 -1
BITMAP
C000
CD80
CD80
CF80
FD80
0D80
0D80
1C00
7700
ENDCHAR
STARTCHAR C031502
ENCODING 13122
SWIDTH 1000 0
DWIDTH 10 0
BBX 9 9 1 -1
BITMAP
C600
C780
C780
C780
FF80
0780
0000
7700
DD80
ENDCHAR
STARTCHAR C031503
ENCODING 13123
SWIDTH 1000 0
DWIDTH 10 0
BBX 10 10 1 -2
BITMAP
C000
C780
C780
C780
FF80
0780
3F80
6180
6180
3F00
ENDCHAR
STARTCHAR C031504
ENCODING 13124
SWIDTH 1000 0
DWIDTH 10 0
BBX 9 9 1 -1
BITMAP
C300
C300
C380
C300
C300
C380
FF00
0300
0300
ENDCHAR
STARTCHAR C031505
ENCODING 13125
SWIDTH 1000 0
DWIDTH 10 0
BBX 9 9 1 -1
BITMAP
0300
C380
C300
C300
FF80
0300
FF00
0300
0300
ENDCHAR
STARTCHAR C031506
ENCODING 13126
SWIDTH 1000 0
DWIDTH 10 0
BBX 9 9 1 -1
BITMAP
0300
C300
C380
C300
FF80
0300
C300
C000
FF00
ENDCHAR
STARTCHAR C031507
ENCODING 13127
SWIDTH 1000 0
DWIDTH 10 0
BBX 9 9 1 -1
BITMAP
0300
C380
C300
DF80
F300
FF00
0300
FF00
FF00
ENDCHAR
STARTCHAR C031510
ENCODING 13128
SWIDTH 1000 0
DWIDTH 10 0
BBX 9 9 1 -1
BITMAP
0300
C380
C300
C380
FF00
0300
FF00
C300
FF00
ENDCHAR
STARTCHAR C031511
ENCODING 13129
SWIDTH 1000 0
DWIDTH 10 0
BBX 9 10 1 -2
BITMAP
0300
C380
C300
C300
FF80
0300
7E00
C300
C300
7E00
ENDCHAR
STARTCHAR C031512
ENCODING 13130
SWIDTH 1000 0
DWIDTH 10 0
BBX 9 9 1 -1
BITMAP
0180
C180
C180
CF80
C180
C180
C780
7D80
0180
ENDCHAR
STARTCHAR C031513
ENCODING 13131
SWIDTH 1000 0
DWIDTH 10 0
BBX 9 9 1 -1
BITMAP
0180
C180
CF80
C180
DF80
7180
7F80
0180
0180
ENDCHAR
STARTCHAR C031514
ENCODING 13132
SWIDTH 1000 0
DWIDTH 10 0
BBX 10 10 1 -2
BITMAP
0180
C180
CF80
C180
FF80
0180
F800
1F00
1D80
1800
ENDCHAR
STARTCHAR C031515
ENCODING 13133
SWIDTH 1000 0
DWIDTH 10 0
BBX 9 9 1 -1
BITMAP
0180
C180
CF80
C180
C780
7D80
6180
6000
7F80
ENDCHAR
STARTCHAR C031516
ENCODING 13134
SWIDTH 1000 0
DWIDTH 10 0
BBX 9 9 1 -1
BITMAP
0180
C180
CF80
C180
7D80
7F80
0180
7F80
7F80
ENDCHAR
STARTCHAR C031517
ENCODING 13135
SWIDTH 1000 0
DWIDTH 10 0
BBX 10 10 1 -2
BITMAP
0180
C180
CF80
C180
CF80
7F80
1D80
7D80
7F80
7000
ENDCHAR
STARTCHAR C031520
ENCODING 13136
SWIDTH 1000 0
DWIDTH 10 0
BBX 9 9 1 -1
BITMAP
0180
C180
CF80
C180
7D80
FD80
1F80
FD80
FF80
ENDCHAR
STARTCHAR C031521
ENCODING 13137
SWIDTH 1000 0
DWIDTH 10 0
BBX 9 8 1 -1
BITMAP
C180
CF80
C180
FF80
0180
7F80
6180
7F80
ENDCHAR
STARTCHAR C031522
ENCODING 13138
SWIDTH 1000 0
DWIDTH 10 0
BBX 9 8 1 -1
BITMAP
C180
CF80
C180
FF80
6180
7F80
6180
7F80
ENDCHAR
STARTCHAR C031523
ENCODING 13139
SWIDTH 1000 0
DWIDTH 10 0
BBX 9 9 1 -1
BITMAP
0180
C180
CF80
C180
C780
7D80
0D80
1C00
7700
ENDCHAR
STARTCHAR C031524
ENCODING 13140
SWIDTH 1000 0
DWIDTH 10 0
BBX 9 9 1 -1
BITMAP
0180
C180
CF80
C180
FF80
3180
0000
7700
DD80
ENDCHAR
STARTCHAR C031525
ENCODING 13141
SWIDTH 1000 0
DWIDTH 10 0
BBX 10 10 1 -2
BITMAP
0180
C180
CF80
C180
CF80
7980
3F00
6180
6180
3F00
ENDCHAR
STARTCHAR C031526
ENCODING 13142
SWIDTH 1000 0
DWIDTH 10 0
BBX 10 10 1 -2
BITMAP
0180
C180
CF80
C180
7D80
3F80
FF80
7F00
6300
7F00
ENDCHAR
STARTCHAR C031527
ENCODING 13143
SWIDTH 1000 0
DWIDTH 10 0
BBX 9 9 1 -1
BITMAP
0C00
CD80
CD80
FD80
CD80
CD80
CD80
7D80
0D80
ENDCHAR
STARTCHAR C031530
ENCODING 13144
SWIDTH 1000 0
DWIDTH 10 0
BBX 9 9 1 -1
BITMAP
0780
C780
DF80
C780
DF80
7600
7F80
0180
0180
ENDCHAR
STARTCHAR C031531
ENCODING 13145
SWIDTH 1000 0
DWIDTH 10 0
BBX 9 9 1 -1
BITMAP
0600
C780
DF80
C780
C780
7780
6780
6000
7F80
ENDCHAR
STARTCHAR C031532
ENCODING 13146
SWIDTH 1000 0
DWIDTH 10 0
BBX 9 8 1 -1
BITMAP
C780
DF80
C780
7F80
7F80
0180
7F80
7F80
ENDCHAR
STARTCHAR C031533
ENCODING 13147
SWIDTH 1000 0
DWIDTH 10 0
BBX 9 9 1 -1
BITMAP
0600
C780
DF80
C780
C780
7780
7F80
6180
7F80
ENDCHAR
STARTCHAR C031534
ENCODING 13148
SWIDTH 1000 0
DWIDTH 10 0
BBX 9 9 1 -1
BITMAP
0780
C780
DF80
C780
FF80
0600
6180
7F80
7F80
ENDCHAR
STARTCHAR C031535
ENCODING 13149
SWIDTH 1000 0
DWIDTH 10 0
BBX 10 10 1 -2
BITMAP
0C00
CD80
FD80
CD80
CD80
7D80
1800
3C00
E600
0300
ENDCHAR
STARTCHAR C031536
ENCODING 13150
SWIDTH 1000 0
DWIDTH 10 0
BBX 9 9 1 -1
BITMAP
0780
C780
DF80
C780
C780
7600
0000
7700
DD80
ENDCHAR
STARTCHAR C031537
ENCODING 13151
SWIDTH 1000 0
DWIDTH 10 0
BBX 10 10 1 -2
BITMAP
0600
C780
DF80
C780
FF80
0780
3F00
6180
6180
3F00
ENDCHAR
STARTCHAR C031540
ENCODING 13152
SWIDTH 1000 0
DWIDTH 10 0
BBX 7 8 3 -1
BITMAP
06
3E
06
3E
06
36
E6
06
ENDCHAR
STARTCHAR C031541
ENCODING 13153
SWIDTH 1000 0
DWIDTH 10 0
BBX 9 9 1 -1
BITMAP
C000
C780
C180
C780
FD80
0180
7F80
0180
0180
ENDCHAR
STARTCHAR C031542
ENCODING 13154
SWIDTH 1000 0
DWIDTH 10 0
BBX 9 8 1 -1
BITMAP
C780
C180
C780
C180
FD80
6180
6000
7F80
ENDCHAR
STARTCHAR C031543
ENCODING 13155
SWIDTH 1000 0
DWIDTH 10 0
BBX 9 8 1 -1
BITMAP
CF80
C180
CF80
FD80
7F00
0180
7F80
7F80
ENDCHAR
STARTCHAR C031544
ENCODING 13156
SWIDTH 1000 0
DWIDTH 10 0
BBX 9 8 1 -1
BITMAP
C780
C180
C780
FD80
0180
7F80
6180
7F80
ENDCHAR
STARTCHAR C031545
ENCODING 13157
SWIDTH 1000 0
DWIDTH 10 0
BBX 9 8 1 -1
BITMAP
C780
C180
C780
FD80
6180
7F80
6180
7F80
ENDCHAR
STARTCHAR C031546
ENCODING 13158
SWIDTH 1000 0
DWIDTH 10 0
BBX 9 9 1 -1
BITMAP
C000
C780
C180
C780
FD80
0180
0000
7700
DD80
ENDCHAR
STARTCHAR C031547
ENCODING 13159
SWIDTH 1000 0
DWIDTH 10 0
BBX 10 10 1 -2
BITMAP
C000
C780
C180
C780
FD80
0180
3F00
6180
6180
3F00
ENDCHAR
STARTCHAR C031550
ENCODING 13160
SWIDTH 1000 0
DWIDTH 10 0
BBX 9 9 1 -1
BITMAP
C000
C780
C180
C780
FD80
0180
7F80
7F80
0180
ENDCHAR
STARTCHAR C031551
ENCODING 13161
SWIDTH 1000 0
DWIDTH 10 0
BBX 9 9 1 -1
BITMAP
0600
C780
DF80
C780
DF80
C780
C780
7780
0780
ENDCHAR
STARTCHAR C031552
ENCODING 13162
SWIDTH 1000 0
DWIDTH 10 0
BBX 9 9 1 -1
BITMAP
0600
DF80
C780
DF80
C780
7780
6780
6180
7F80
ENDCHAR
STARTCHAR C031553
ENCODING 13163
SWIDTH 1000 0
DWIDTH 10 0
BBX 9 9 1 -1
BITMAP
C000
C000
C000
C000
FF00
0000
1800
1800
FF80
ENDCHAR
STARTCHAR C031554
ENCODING 13164
SWIDTH 1000 0
DWIDTH 10 0
BBX 10 10 1 -2
BITMAP
C000
C000
C000
FF00
1800
FF80
FF00
0300
0300
0300
ENDCHAR
STARTCHAR C031555
ENCODING 13165
SWIDTH 1000 0
DWIDTH 10 0
BBX 9 9 1 -1
BITMAP
C000
C000
C000
FF80
0C00
FF80
C000
C000
FF00
ENDCHAR
STARTCHAR C031556
ENCODING 13166
SWIDTH 1000 0
DWIDTH 10 0
BBX 9 7 1 -1
BITMAP
C000
7F80
FF80
7F00
0300
7F00
7F00
ENDCHAR
STARTCHAR C031557
ENCODING 13167
SWIDTH 1000 0
DWIDTH 10 0
BBX 9 9 1 -2
BITMAP
6000
6000
7F80
FF80
7F80
1D80
7D80
7F80
7000
ENDCHAR
STARTCHAR C031560
ENCODING 13168
SWIDTH 1000 0
DWIDTH 10 0
BBX 9 9 1 -1
BITMAP
6000
6000
6000
7F80
FF80
0000
7F00
6300
7F00
ENDCHAR
STARTCHAR C031561
ENCODING 13169
SWIDTH 1000 0
DWIDTH 10 0
BBX 9 8 1 -1
BITMAP
6000
6000
7F00
FF80
0000
6300
7F00
7F00
ENDCHAR
STARTCHAR C031562
ENCODING 13170
SWIDTH 1000 0
DWIDTH 10 0
BBX 9 9 1 -1
BITMAP
6000
6000
6000
7F80
0C00
FF80
0C00
1C00
7700
ENDCHAR
STARTCHAR C031563
ENCODING 13171
SWIDTH 1000 0
DWIDTH 10 0
BBX 10 10 1 -2
BITMAP
6000
6000
6000
7F80
0C00
FF80
3E00
6380
6180
3F00
ENDCHAR
STARTCHAR C031564
ENCODING 13172
SWIDTH 1000 0
DWIDTH 10 0
BBX 9 9 1 -1
BITMAP
6000
6000
6000
7F80
FF80
0000
7F00
3600
3E00
ENDCHAR
STARTCHAR C031565
ENCODING 13173
SWIDTH 1000 0
DWIDTH 10 0
BBX 9 9 1 -2
BITMAP
6000
6000
7F80
FF80
1E00
7F00
7F00
6300
3F00
ENDCHAR
STARTCHAR C031566
ENCODING 13174
SWIDTH 1000 0
DWIDTH 10 0
BBX 9 9 1 -2
BITMAP
C300
C300
C300
FF80
3300
3300
FF00
0300
0300
ENDCHAR
STARTCHAR C031567
ENCODING 13175
SWIDTH 1000 0
DWIDTH 10 0
BBX 9 9 1 -1
BITMAP
C300
C300
C300
FF80
3300
FF00
6300
6300
7F80
ENDCHAR
STARTCHAR C031570
ENCODING 13176
SWIDTH 1000 0
DWIDTH 10 0
BBX 9 8 1 -1
BITMAP
C000
C300
FF80
FF00
0000
7F00
7F00
7F00
ENDCHAR
STARTCHAR C031571
ENCODING 13177
SWIDTH 1000 0
DWIDTH 10 0
BBX 10 10 1 -2
BITMAP
C000
C300
FF00
3380
3F00
7300
6600
6600
FF00
0180
ENDCHAR
STARTCHAR C031572
ENCODING 13178
SWIDTH 1000 0
DWIDTH 10 0
BBX 9 8 1 -1
BITMAP
6180
6180
6180
7F80
1980
1980
FF80
0180
ENDCHAR
STARTCHAR C031573
ENCODING 13179
SWIDTH 1000 0
DWIDTH 10 0
BBX 9 8 1 -1
BITMAP
6180
6180
7F80
1980
FF80
6180
6000
7F80
ENDCHAR
STARTCHAR C031574
ENCODING 13180
SWIDTH 1000 0
DWIDTH 10 0
BBX 9 8 1 -1
BITMAP
6180
6180
7F80
FF80
7F80
0180
7F80
7F80
ENDCHAR
STARTCHAR C031575
ENCODING 13181
SWIDTH 1000 0
DWIDTH 10 0
BBX 9 8 1 -1
BITMAP
6180
6180
7F80
FF80
0180
3F80
3180
3F80
ENDCHAR
STARTCHAR C031576
ENCODING 13182
SWIDTH 1000 0
DWIDTH 10 0
BBX 9 8 1 -1
BITMAP
6180
6180
7F80
FF80
0180
3180
3F80
3F80
ENDCHAR
STARTCHAR C031577
ENCODING 13183
SWIDTH 1000 0
DWIDTH 10 0
BBX 0 0 0 0
BITMAP
ENDCHAR
STARTCHAR C032040
ENCODING 13344
SWIDTH 1000 0
DWIDTH 10 0
BBX 1 6 10 2
BITMAP
80
80
00
00
00
80
ENDCHAR
STARTCHAR C032041
ENCODING 13345
SWIDTH 1000 0
DWIDTH 10 0
BBX 9 9 1 -2
BITMAP
C180
C180
FF80
1980
FF80
0D80
1C00
7700
0180
ENDCHAR
STARTCHAR C032042
ENCODING 13346
SWIDTH 1000 0
DWIDTH 10 0
BBX 9 9 1 -1
BITMAP
6000
6000
6000
6000
7F80
0000
3300
3300
FF80
ENDCHAR
STARTCHAR C032043
ENCODING 13347
SWIDTH 1000 0
DWIDTH 10 0
BBX 9 9 1 -2
BITMAP
6000
6000
7F00
3600
FF80
FF00
0300
0300
0300
ENDCHAR
STARTCHAR C032044
ENCODING 13348
SWIDTH 1000 0
DWIDTH 10 0
BBX 9 9 1 -1
BITMAP
C000
C000
C000
FF80
3600
FF80
C000
C000
FF00
ENDCHAR
STARTCHAR C032045
ENCODING 13349
SWIDTH 1000 0
DWIDTH 10 0
BBX 9 8 1 -1
BITMAP
C000
C000
FF00
FF80
7F00
0300
7F00
7F80
ENDCHAR
STARTCHAR C032046
ENCODING 13350
SWIDTH 1000 0
DWIDTH 10 0
BBX 9 8 1 -1
BITMAP
C000
C000
FF80
3600
FF80
6300
7F00
7F00
ENDCHAR
STARTCHAR C032047
ENCODING 13351
SWIDTH 1000 0
DWIDTH 10 0
BBX 9 8 1 -1
BITMAP
C000
C000
FF80
3600
FF80
0000
1C00
F700
ENDCHAR
STARTCHAR C032050
ENCODING 13352
SWIDTH 1000 0
DWIDTH 10 0
BBX 9 9 1 -2
BITMAP
C000
C000
FF80
3600
FF80
7F00
C380
C180
7F00
ENDCHAR
STARTCHAR C032051
ENCODING 13353
SWIDTH 1000 0
DWIDTH 10 0
BBX 9 9 1 -1
BITMAP
6000
6000
6000
7F80
0000
FF80
0C00
0C00
0C00
ENDCHAR
STARTCHAR C032052
ENCODING 13354
SWIDTH 1000 0
DWIDTH 10 0
BBX 10 10 1 -2
BITMAP
6000
6000
6000
7F80
0000
FF80
7F80
0180
0180
0180
ENDCHAR
STARTCHAR C032053
ENCODING 13355
SWIDTH 1000 0
DWIDTH 10 0
BBX 9 9 1 -1
BITMAP
C000
C000
C000
FF00
0000
FF80
CC00
CC00
FF00
ENDCHAR
STARTCHAR C032054
ENCODING 13356
SWIDTH 1000 0
DWIDTH 10 0
BBX 9 8 1 -1
BITMAP
6000
6000
7F80
FF80
0C00
7F80
6000
7F80
ENDCHAR
STARTCHAR C032055
ENCODING 13357
SWIDTH 1000 0
DWIDTH 10 0
BBX 9 8 1 -1
BITMAP
C000
C000
FF00
FF80
FF80
0180
FF80
FF80
ENDCHAR
STARTCHAR C032056
ENCODING 13358
SWIDTH 1000 0
DWIDTH 10 0
BBX 9 8 1 -1
BITMAP
6000
6000
7F80
FF80
0C00
7F80
6180
7F80
ENDCHAR
STARTCHAR C032057
ENCODING 13359
SWIDTH 1000 0
DWIDTH 10 0
BBX 9 8 1 -1
BITMAP
6000
6000
7F80
FF80
0C00
6180
7F80
7F80
ENDCHAR
STARTCHAR C032060
ENCODING 13360
SWIDTH 1000 0
DWIDTH 10 0
BBX 9 8 1 -1
BITMAP
6000
6000
7F80
FF80
0C00
0000
1C00
7700
ENDCHAR
STARTCHAR C032061
ENCODING 13361
SWIDTH 1000 0
DWIDTH 10 0
BBX 9 8 1 -1
BITMAP
6000
6000
7F80
FF80
0C00
7F00
C180
7F80
ENDCHAR
STARTCHAR C032062
ENCODING 13362
SWIDTH 1000 0
DWIDTH 10 0
BBX 9 9 1 -1
BITMAP
6000
6180
6180
7F80
0180
FF80
1F80
1980
1980
ENDCHAR
STARTCHAR C032063
ENCODING 13363
SWIDTH 1000 0
DWIDTH 10 0
BBX 9 9 1 -1
BITMAP
6180
6780
7F80
0D80
FF80
1980
1800
7700
DD80
ENDCHAR
STARTCHAR C032064
ENCODING 13364
SWIDTH 1000 0
DWIDTH 10 0
BBX 10 10 1 -2
BITMAP
C180
C780
C780
FF80
0780
FF80
3F80
3780
3780
3000
ENDCHAR
STARTCHAR C032065
ENCODING 13365
SWIDTH 1000 0
DWIDTH 10 0
BBX 9 9 1 -1
BITMAP
6180
6180
6180
7F80
0180
FF80
1980
1980
1980
ENDCHAR
STARTCHAR C032066
ENCODING 13366
SWIDTH 1000 0
DWIDTH 10 0
BBX 9 9 1 -1
BITMAP
6000
6180
6180
7F80
0180
FF80
7980
7980
7F80
ENDCHAR
STARTCHAR C032067
ENCODING 13367
SWIDTH 1000 0
DWIDTH 10 0
BBX 9 9 1 -1
BITMAP
6000
6180
7F80
0180
FF80
1980
7F80
7F80
7F80
ENDCHAR
STARTCHAR C032070
ENCODING 13368
SWIDTH 1000 0
DWIDTH 10 0
BBX 9 8 1 -1
BITMAP
6180
6180
7F80
FF80
1980
7F80
6180
7F80
ENDCHAR
STARTCHAR C032071
ENCODING 13369
SWIDTH 1000 0
DWIDTH 10 0
BBX 9 9 1 -1
BITMAP
6000
6180
7F80
0180
FF80
1980
6180
7F80
7F80
ENDCHAR
STARTCHAR C032072
ENCODING 13370
SWIDTH 1000 0
DWIDTH 10 0
BBX 9 9 1 -1
BITMAP
C000
C000
C000
FF00
0000
FF80
3600
3600
3600
ENDCHAR
STARTCHAR C032073
ENCODING 13371
SWIDTH 1000 0
DWIDTH 10 0
BBX 9 9 1 -2
BITMAP
6000
6000
7F80
FF80
3600
FF80
0180
0180
0180
ENDCHAR
STARTCHAR C032074
ENCODING 13372
SWIDTH 1000 0
DWIDTH 10 0
BBX 9 7 1 -1
BITMAP
C000
7F00
FF80
3600
7F00
7F00
7F80
ENDCHAR
STARTCHAR C032075
ENCODING 13373
SWIDTH 1000 0
DWIDTH 10 0
BBX 9 8 1 -1
BITMAP
6000
6000
7F80
FF80
3600
FF80
C180
FF80
ENDCHAR
STARTCHAR C032076
ENCODING 13374
SWIDTH 1000 0
DWIDTH 10 0
BBX 9 8 1 -1
BITMAP
6000
6000
7F00
FF80
3600
C300
FF00
FF00
ENDCHAR
STARTCHAR C032077
ENCODING 13375
SWIDTH 1000 0
DWIDTH 10 0
BBX 9 8 1 -1
BITMAP
6000
6000
7F80
FF80
3600
7F00
C180
7F00
ENDCHAR
STARTCHAR C032100
ENCODING 13376
SWIDTH 1000 0
DWIDTH 10 0
BBX 9 9 1 -1
BITMAP
6000
6000
6000
6000
7F80
0000
0000
0000
FF80
ENDCHAR
STARTCHAR C032101
ENCODING 13377
SWIDTH 1000 0
DWIDTH 10 0
BBX 9 9 1 -2
BITMAP
6000
6000
7F80
FF80
0000
FF00
0300
0300
0300
ENDCHAR
STARTCHAR C032102
ENCODING 13378
SWIDTH 1000 0
DWIDTH 10 0
BBX 9 9 1 -1
BITMAP
6000
6000
6000
7F80
0000
FF80
6000
6000
7F80
ENDCHAR
STARTCHAR C032103
ENCODING 13379
SWIDTH 1000 0
DWIDTH 10 0
BBX 9 8 1 -1
BITMAP
6000
6000
7F80
FF80
7F00
0300
7F00
7F80
ENDCHAR
STARTCHAR C032104
ENCODING 13380
SWIDTH 1000 0
DWIDTH 10 0
BBX 9 9 1 -2
BITMAP
6000
6000
7F80
FF80
7800
1F00
7B00
7B00
0300
ENDCHAR
STARTCHAR C032105
ENCODING 13381
SWIDTH 1000 0
DWIDTH 10 0
BBX 9 9 1 -2
BITMAP
6000
6000
7F80
FF80
FF80
3D80
FD80
FF80
E000
ENDCHAR
STARTCHAR C032106
ENCODING 13382
SWIDTH 1000 0
DWIDTH 10 0
BBX 9 8 1 -1
BITMAP
6000
6000
7F80
FF80
0000
7F00
6300
7F00
ENDCHAR
STARTCHAR C032107
ENCODING 13383
SWIDTH 1000 0
DWIDTH 10 0
BBX 9 8 1 -1
BITMAP
6000
6000
7F80
FF80
0000
6300
7F00
7F00
ENDCHAR
STARTCHAR C032110
ENCODING 13384
SWIDTH 1000 0
DWIDTH 10 0
BBX 9 8 1 -1
BITMAP
6000
6000
7F80
0000
FF80
0000
1C00
7700
ENDCHAR
STARTCHAR C032111
ENCODING 13385
SWIDTH 1000 0
DWIDTH 10 0
BBX 9 9 1 -2
BITMAP
6000
6000
7F80
0000
FF80
7E00
C300
C300
7E00
ENDCHAR
STARTCHAR C032112
ENCODING 13386
SWIDTH 1000 0
DWIDTH 10 0
BBX 10 10 1 -2
BITMAP
6000
6000
7F80
0000
FF80
0000
7F00
1C00
1C00
7700
ENDCHAR
STARTCHAR C032113
ENCODING 13387
SWIDTH 1000 0
DWIDTH 10 0
BBX 9 9 1 -2
BITMAP
6000
6000
7F80
FF80
0000
7F00
3600
3E00
6000
ENDCHAR
STARTCHAR C032114
ENCODING 13388
SWIDTH 1000 0
DWIDTH 10 0
BBX 9 9 1 -1
BITMAP
6000
6180
6180
6180
7F80
0180
0180
FF80
0180
ENDCHAR
STARTCHAR C032115
ENCODING 13389
SWIDTH 1000 0
DWIDTH 10 0
BBX 9 8 1 -1
BITMAP
6180
6180
7F80
0180
FF80
6180
6180
7F80
ENDCHAR
STARTCHAR C032116
ENCODING 13390
SWIDTH 1000 0
DWIDTH 10 0
BBX 9 8 1 -1
BITMAP
6180
6180
7F80
FF80
0180
7F80
7F80
7F80
ENDCHAR
STARTCHAR C032117
ENCODING 13391
SWIDTH 1000 0
DWIDTH 10 0
BBX 8 8 2 -1
BITMAP
03
03
03
03
03
FF
03
03
ENDCHAR
STARTCHAR C032120
ENCODING 13392
SWIDTH 1000 0
DWIDTH 10 0
BBX 9 8 1 -1
BITMAP
C180
C180
C180
FF80
0180
7F80
0180
0180
ENDCHAR
STARTCHAR C032121
ENCODING 13393
SWIDTH 1000 0
DWIDTH 10 0
BBX 9 9 1 -1
BITMAP
C000
C180
C180
C180
FF80
0180
6180
6000
7F80
ENDCHAR
STARTCHAR C032122
ENCODING 13394
SWIDTH 1000 0
DWIDTH 10 0
BBX 9 9 1 -1
BITMAP
C000
C180
C180
FF80
0180
7F80
0180
7F80
7F80
ENDCHAR
STARTCHAR C032123
ENCODING 13395
SWIDTH 1000 0
DWIDTH 10 0
BBX 9 9 1 -2
BITMAP
C180
C180
CF80
F980
7F80
1F80
7F80
7F80
7000
ENDCHAR
STARTCHAR C032124
ENCODING 13396
SWIDTH 1000 0
DWIDTH 10 0
BBX 9 8 1 -1
BITMAP
C180
C180
C180
FF80
0180
7F80
6180
7F80
ENDCHAR
STARTCHAR C032125
ENCODING 13397
SWIDTH 1000 0
DWIDTH 10 0
BBX 9 8 1 -1
BITMAP
C180
C180
C180
FF80
6180
7F80
6180
7F80
ENDCHAR
STARTCHAR C032126
ENCODING 13398
SWIDTH 1000 0
DWIDTH 10 0
BBX 9 9 1 -1
BITMAP
C000
C180
C180
C180
FF80
0180
0D80
1C00
7700
ENDCHAR
STARTCHAR C032127
ENCODING 13399
SWIDTH 1000 0
DWIDTH 10 0
BBX 10 10 1 -2
BITMAP
C000
C180
C180
C180
FF80
0180
3F00
6180
6180
3F00
ENDCHAR
STARTCHAR C032130
ENCODING 13400
SWIDTH 1000 0
DWIDTH 10 0
BBX 9 9 1 -2
BITMAP
C180
C180
C180
FF80
0180
7F80
3300
3F00
6000
ENDCHAR
STARTCHAR C032131
ENCODING 13401
SWIDTH 1000 0
DWIDTH 10 0
BBX 9 8 1 -1
BITMAP
FF00
C300
C380
C300
C300
FF00
0300
0300
ENDCHAR
STARTCHAR C032132
ENCODING 13402
SWIDTH 1000 0
DWIDTH 10 0
BBX 9 8 1 -1
BITMAP
FB00
0380
0300
FF00
0300
FF00
0300
0300
ENDCHAR
STARTCHAR C032133
ENCODING 13403
SWIDTH 1000 0
DWIDTH 10 0
BBX 9 9 1 -2
BITMAP
FB00
0380
0300
FF00
0300
FF00
3300
3300
3300
ENDCHAR
STARTCHAR C032134
ENCODING 13404
SWIDTH 1000 0
DWIDTH 10 0
BBX 9 8 1 -1
BITMAP
FB00
0380
0300
FF00
0300
C300
C000
FF00
ENDCHAR
STARTCHAR C032135
ENCODING 13405
SWIDTH 1000 0
DWIDTH 10 0
BBX 9 8 1 -1
BITMAP
FB00
0380
0300
FF00
0300
FF00
C000
FF00
ENDCHAR
STARTCHAR C032136
ENCODING 13406
SWIDTH 1000 0
DWIDTH 10 0
BBX 9 8 1 -1
BITMAP
FB00
0380
0300
FF00
FF00
0300
FF00
FF00
ENDCHAR
STARTCHAR C032137
ENCODING 13407
SWIDTH 1000 0
DWIDTH 10 0
BBX 9 8 1 -1
BITMAP
FB00
0380
0300
FF00
FF00
3300
F300
FB00
ENDCHAR
STARTCHAR C032140
ENCODING 13408
SWIDTH 1000 0
DWIDTH 10 0
BBX 9 9 1 -2
BITMAP
FB00
0380
0300
FF00
FF00
3F00
FF00
FF00
E000
ENDCHAR
STARTCHAR C032141
ENCODING 13409
SWIDTH 1000 0
DWIDTH 10 0
BBX 9 9 1 -2
BITMAP
FB00
0380
0300
FF00
FF00
3F00
FF00
0F00
E000
ENDCHAR
STARTCHAR C032142
ENCODING 13410
SWIDTH 1000 0
DWIDTH 10 0
BBX 9 9 1 -2
BITMAP
FB00
0380
0300
FF00
FF00
3F00
FF00
FB00
0F00
ENDCHAR
STARTCHAR C032143
ENCODING 13411
SWIDTH 1000 0
DWIDTH 10 0
BBX 9 8 1 -1
BITMAP
FB00
0380
0300
FF00
0300
FF00
C300
FF00
ENDCHAR
STARTCHAR C032144
ENCODING 13412
SWIDTH 1000 0
DWIDTH 10 0
BBX 9 8 1 -1
BITMAP
FB00
0380
0300
FF00
C300
FF00
C300
FF00
ENDCHAR
STARTCHAR C032145
ENCODING 13413
SWIDTH 1000 0
DWIDTH 10 0
BBX 9 8 1 -1
BITMAP
FB00
0380
0300
FF00
0300
0300
1C00
7700
ENDCHAR
STARTCHAR C032146
ENCODING 13414
SWIDTH 1000 0
DWIDTH 10 0
BBX 9 9 1 -2
BITMAP
FB00
0380
0300
FF00
0300
6600
6600
FF00
1980
ENDCHAR
STARTCHAR C032147
ENCODING 13415
SWIDTH 1000 0
DWIDTH 10 0
BBX 9 9 1 -2
BITMAP
FB00
0380
0300
FF00
0300
7E00
C300
C300
7E00
ENDCHAR
STARTCHAR C032150
ENCODING 13416
SWIDTH 1000 0
DWIDTH 10 0
BBX 9 9 1 -2
BITMAP
FB00
0380
0300
FF00
0300
FF00
1800
3C00
E700
ENDCHAR
STARTCHAR C032151
ENCODING 13417
SWIDTH 1000 0
DWIDTH 10 0
BBX 9 8 1 -1
BITMAP
FB00
E380
3300
3F00
0300
FF00
3C00
E700
ENDCHAR
STARTCHAR C032152
ENCODING 13418
SWIDTH 1000 0
DWIDTH 10 0
BBX 9 9 1 -2
BITMAP
FB00
0380
0300
FF00
3F00
FF00
7E00
C300
7E00
ENDCHAR
STARTCHAR C032153
ENCODING 13419
SWIDTH 1000 0
DWIDTH 10 0
BBX 10 10 1 -2
BITMAP
0180
FD80
CD80
CF80
CD80
CD80
CD80
FD80
0D80
0C00
ENDCHAR
STARTCHAR C032154
ENCODING 13420
SWIDTH 1000 0
DWIDTH 10 0
BBX 9 9 1 -1
BITMAP
0600
FF80
C780
C780
FF80
0780
7F80
0180
0180
ENDCHAR
STARTCHAR C032155
ENCODING 13421
SWIDTH 1000 0
DWIDTH 10 0
BBX 9 9 1 -1
BITMAP
0C00
FD80
CF80
CD80
CD80
FD80
6D80
6000
7F80
ENDCHAR
STARTCHAR C032156
ENCODING 13422
SWIDTH 1000 0
DWIDTH 10 0
BBX 9 9 1 -1
BITMAP
0C00
FD80
CF80
CD80
FD80
7F80
0180
7F80
7F80
ENDCHAR
STARTCHAR C032157
ENCODING 13423
SWIDTH 1000 0
DWIDTH 10 0
BBX 9 9 1 -1
BITMAP
0600
FF80
C780
C780
FF80
0780
7F80
6180
7F80
ENDCHAR
STARTCHAR C032160
ENCODING 13424
SWIDTH 1000 0
DWIDTH 10 0
BBX 9 9 1 -1
BITMAP
0600
FF80
C780
C780
FF80
0600
6180
7F80
7F80
ENDCHAR
STARTCHAR C032161
ENCODING 13425
SWIDTH 1000 0
DWIDTH 10 0
BBX 9 9 1 -1
BITMAP
0600
FF80
C780
C780
FF80
0780
0C00
1C00
7700
ENDCHAR
STARTCHAR C032162
ENCODING 13426
SWIDTH 1000 0
DWIDTH 10 0
BBX 9 9 1 -1
BITMAP
0C00
FD80
CF80
CD80
FD80
0D80
0000
7700
DD80
ENDCHAR
STARTCHAR C032163
ENCODING 13427
SWIDTH 1000 0
DWIDTH 10 0
BBX 10 10 1 -2
BITMAP
0600
FF80
C780
C780
FF80
0780
3F00
6180
6180
3F00
ENDCHAR
STARTCHAR C032164
ENCODING 13428
SWIDTH 1000 0
DWIDTH 10 0
BBX 9 9 1 -2
BITMAP
FF00
C300
C380
C300
C380
C300
FF00
0300
0300
ENDCHAR
STARTCHAR C032165
ENCODING 13429
SWIDTH 1000 0
DWIDTH 10 0
BBX 9 9 1 -1
BITMAP
0180
FD80
C180
CF80
C180
C180
C180
7D80
0180
ENDCHAR
STARTCHAR C032166
ENCODING 13430
SWIDTH 1000 0
DWIDTH 10 0
BBX 9 9 1 -1
BITMAP
0180
FD80
CF80
C180
C180
FD80
7F80
0180
0180
ENDCHAR
STARTCHAR C032167
ENCODING 13431
SWIDTH 1000 0
DWIDTH 10 0
BBX 10 10 1 -2
BITMAP
0180
FD80
CF80
C180
C180
FC00
FF80
1980
1980
0180
ENDCHAR
STARTCHAR C032170
ENCODING 13432
SWIDTH 1000 0
DWIDTH 10 0
BBX 9 9 1 -1
BITMAP
0180
FD80
CF80
C180
C180
FF80
6180
6000
7F80
ENDCHAR
STARTCHAR C032171
ENCODING 13433
SWIDTH 1000 0
DWIDTH 10 0
BBX 9 9 1 -1
BITMAP
0180
FD80
CF80
C180
C180
7C00
7F80
6000
7F80
ENDCHAR
STARTCHAR C032172
ENCODING 13434
SWIDTH 1000 0
DWIDTH 10 0
BBX 9 9 1 -1
BITMAP
0180
FD80
CF80
C180
7D80
7F80
0180
7F80
7F80
ENDCHAR
STARTCHAR C032173
ENCODING 13435
SWIDTH 1000 0
DWIDTH 10 0
BBX 9 9 1 -1
BITMAP
0180
FD80
CF80
C180
C180
FF80
3D80
FD80
FF80
ENDCHAR
STARTCHAR C032174
ENCODING 13436
SWIDTH 1000 0
DWIDTH 10 0
BBX 9 9 1 -1
BITMAP
0180
FD80
CF80
C180
C180
FD80
3F80
FD80
FF00
ENDCHAR
STARTCHAR C032175
ENCODING 13437
SWIDTH 1000 0
DWIDTH 10 0
BBX 9 9 1 -1
BITMAP
0180
FD80
CF80
C180
C180
7C00
7F80
6180
7F80
ENDCHAR
STARTCHAR C032176
ENCODING 13438
SWIDTH 1000 0
DWIDTH 10 0
BBX 9 9 1 -1
BITMAP
0180
FD80
CF80
C180
C180
7D80
7F80
6180
7F80
ENDCHAR
STARTCHAR C032177
ENCODING 13439
SWIDTH 1000 0
DWIDTH 10 0
BBX 0 0 0 0
BITMAP
ENDCHAR
STARTCHAR C032440
ENCODING 13600
SWIDTH 1000 0
DWIDTH 10 0
BBX 1 5 10 2
BITMAP
80
80
80
80
80
ENDCHAR
STARTCHAR C032441
ENCODING 13601
SWIDTH 1000 0
DWIDTH 10 0
BBX 9 9 1 -1
BITMAP
0180
FD80
CF80
C180
C180
FF80
0C00
1C00
7700
ENDCHAR
STARTCHAR C032442
ENCODING 13602
SWIDTH 1000 0
DWIDTH 10 0
BBX 10 10 1 -2
BITMAP
0180
FD80
CF80
C180
C180
FD80
3F00
6180
6180
3F00
ENDCHAR
STARTCHAR C032443
ENCODING 13603
SWIDTH 1000 0
DWIDTH 10 0
BBX 10 10 1 -2
BITMAP
0180
FD80
CF80
C180
FD80
3E00
0000
7F80
1C00
7780
ENDCHAR
STARTCHAR C032444
ENCODING 13604
SWIDTH 1000 0
DWIDTH 10 0
BBX 10 10 1 -2
BITMAP
0180
FD80
CF80
C180
C180
7C00
FF00
3600
3E00
6300
ENDCHAR
STARTCHAR C032445
ENCODING 13605
SWIDTH 1000 0
DWIDTH 10 0
BBX 9 9 1 -1
BITMAP
0780
F780
C780
DF80
C780
C780
C780
FF80
0780
ENDCHAR
STARTCHAR C032446
ENCODING 13606
SWIDTH 1000 0
DWIDTH 10 0
BBX 9 9 1 -1
BITMAP
0600
FF80
DF80
C780
C780
D980
7F80
0180
0180
ENDCHAR
STARTCHAR C032447
ENCODING 13607
SWIDTH 1000 0
DWIDTH 10 0
BBX 9 9 1 -1
BITMAP
0600
FF80
DF80
C780
C780
C780
7780
6000
7F80
ENDCHAR
STARTCHAR C032450
ENCODING 13608
SWIDTH 1000 0
DWIDTH 10 0
BBX 9 9 1 -1
BITMAP
0600
FF80
DF80
C780
C780
7F00
0180
7F80
7F80
ENDCHAR
STARTCHAR C032451
ENCODING 13609
SWIDTH 1000 0
DWIDTH 10 0
BBX 9 9 1 -1
BITMAP
0600
FF80
DF80
C780
C780
F980
7F80
6180
7F80
ENDCHAR
STARTCHAR C032452
ENCODING 13610
SWIDTH 1000 0
DWIDTH 10 0
BBX 9 9 1 -1
BITMAP
0600
FF80
DF80
C780
C780
7800
6180
7F80
7F80
ENDCHAR
STARTCHAR C032453
ENCODING 13611
SWIDTH 1000 0
DWIDTH 10 0
BBX 9 9 1 -1
BITMAP
0600
FF80
DF80
C780
C780
C780
7C00
1C00
7700
ENDCHAR
STARTCHAR C032454
ENCODING 13612
SWIDTH 1000 0
DWIDTH 10 0
BBX 9 9 1 -1
BITMAP
0600
F780
DF80
C780
C780
7180
0000
7700
DD80
ENDCHAR
STARTCHAR C032455
ENCODING 13613
SWIDTH 1000 0
DWIDTH 10 0
BBX 10 10 1 -2
BITMAP
0600
FF80
DF80
C780
C780
F980
3F00
6180
6180
3F00
ENDCHAR
STARTCHAR C032456
ENCODING 13614
SWIDTH 1000 0
DWIDTH 10 0
BBX 8 8 2 -1
BITMAP
FB
DF
C3
C3
DF
C3
FB
03
ENDCHAR
STARTCHAR C032457
ENCODING 13615
SWIDTH 1000 0
DWIDTH 10 0
BBX 9 8 1 -1
BITMAP
FD80
C780
C180
C780
FD80
6180
6180
7F80
ENDCHAR
STARTCHAR C032460
ENCODING 13616
SWIDTH 1000 0
DWIDTH 10 0
BBX 9 8 1 -1
BITMAP
FF80
C180
C780
FD80
7F00
0180
7F80
7F80
ENDCHAR
STARTCHAR C032461
ENCODING 13617
SWIDTH 1000 0
DWIDTH 10 0
BBX 9 8 1 -1
BITMAP
FF80
C180
C780
FD80
0180
0000
7700
DD80
ENDCHAR
STARTCHAR C032462
ENCODING 13618
SWIDTH 1000 0
DWIDTH 10 0
BBX 9 9 1 -2
BITMAP
FF80
C180
C780
FD80
0180
3F00
6180
6180
3F00
ENDCHAR
STARTCHAR C032463
ENCODING 13619
SWIDTH 1000 0
DWIDTH 10 0
BBX 9 9 1 -1
BITMAP
0780
FF80
DF80
C780
DF80
C780
C780
FF80
0780
ENDCHAR
STARTCHAR C032464
ENCODING 13620
SWIDTH 1000 0
DWIDTH 10 0
BBX 9 8 1 -1
BITMAP
FF80
DF80
DF80
C780
C780
7F80
6000
7F80
ENDCHAR
STARTCHAR C032465
ENCODING 13621
SWIDTH 1000 0
DWIDTH 10 0
BBX 9 8 1 -1
BITMAP
FF00
C000
C000
FF00
0000
0C00
0C00
FF80
ENDCHAR
STARTCHAR C032466
ENCODING 13622
SWIDTH 1000 0
DWIDTH 10 0
BBX 9 8 1 -1
BITMAP
7F80
6000
7F80
0C00
FF80
FF00
0300
0300
ENDCHAR
STARTCHAR C032467
ENCODING 13623
SWIDTH 1000 0
DWIDTH 10 0
BBX 9 8 1 -1
BITMAP
7F80
6000
7F80
0C00
FF80
6000
6000
7F80
ENDCHAR
STARTCHAR C032470
ENCODING 13624
SWIDTH 1000 0
DWIDTH 10 0
BBX 9 8 1 -1
BITMAP
7F80
6000
7F80
0C00
FF80
7F80
6000
7F80
ENDCHAR
STARTCHAR C032471
ENCODING 13625
SWIDTH 1000 0
DWIDTH 10 0
BBX 9 8 1 -1
BITMAP
7F80
6000
7F80
FF80
7F80
0180
7F80
7F80
ENDCHAR
STARTCHAR C032472
ENCODING 13626
SWIDTH 1000 0
DWIDTH 10 0
BBX 9 9 1 -2
BITMAP
7F80
6000
7F80
FF80
FF80
1D80
FD80
FF80
E000
ENDCHAR
STARTCHAR C032473
ENCODING 13627
SWIDTH 1000 0
DWIDTH 10 0
BBX 9 8 1 -1
BITMAP
7F80
6000
7F80
FF80
0000
F000
7700
7D80
ENDCHAR
STARTCHAR C032474
ENCODING 13628
SWIDTH 1000 0
DWIDTH 10 0
BBX 9 8 1 -1
BITMAP
7F80
6000
7F80
0C00
FF80
7F00
6300
7F00
ENDCHAR
STARTCHAR C032475
ENCODING 13629
SWIDTH 1000 0
DWIDTH 10 0
BBX 9 8 1 -1
BITMAP
7F80
6000
7F80
0C00
FF80
6300
7F00
7F00
ENDCHAR
STARTCHAR C032476
ENCODING 13630
SWIDTH 1000 0
DWIDTH 10 0
BBX 9 8 1 -1
BITMAP
7F80
6000
7F80
0C00
FF80
0000
1C00
7700
ENDCHAR
STARTCHAR C032477
ENCODING 13631
SWIDTH 1000 0
DWIDTH 10 0
BBX 9 9 1 -2
BITMAP
7F80
6000
7F80
0C00
FF80
3E00
6300
6300
3E00
ENDCHAR
STARTCHAR C032500
ENCODING 13632
SWIDTH 1000 0
DWIDTH 10 0
BBX 9 9 1 -1
BITMAP
7F80
0C00
FF80
0000
3E00
0000
FF00
1C00
F700
ENDCHAR
STARTCHAR C032501
ENCODING 13633
SWIDTH 1000 0
DWIDTH 10 0
BBX 9 8 1 -1
BITMAP
7F80
6000
7F80
FF80
0000
7F80
7F80
7F80
ENDCHAR
STARTCHAR C032502
ENCODING 13634
SWIDTH 1000 0
DWIDTH 10 0
BBX 10 10 1 -2
BITMAP
0300
FF00
C300
C300
FF80
3300
3300
FF00
0300
0300
ENDCHAR
STARTCHAR C032503
ENCODING 13635
SWIDTH 1000 0
DWIDTH 10 0
BBX 9 8 1 -1
BITMAP
FF00
C300
FF80
3300
FF00
6300
6000
7F80
ENDCHAR
STARTCHAR C032504
ENCODING 13636
SWIDTH 1000 0
DWIDTH 10 0
BBX 9 8 1 -1
BITMAP
FF00
C300
FF80
FF00
0000
7F00
7F00
7F00
ENDCHAR
STARTCHAR C032505
ENCODING 13637
SWIDTH 1000 0
DWIDTH 10 0
BBX 10 10 1 -2
BITMAP
0600
7F80
6780
6780
7F80
3780
3780
FF80
0780
0600
ENDCHAR
STARTCHAR C032506
ENCODING 13638
SWIDTH 1000 0
DWIDTH 10 0
BBX 9 9 1 -1
BITMAP
F800
C780
C780
FF80
3780
FF80
0780
7700
DD80
ENDCHAR
STARTCHAR C032507
ENCODING 13639
SWIDTH 1000 0
DWIDTH 10 0
BBX 9 9 1 -1
BITMAP
0180
7F80
6180
6180
7F80
1980
1980
FF80
0180
ENDCHAR
STARTCHAR C032510
ENCODING 13640
SWIDTH 1000 0
DWIDTH 10 0
BBX 9 9 1 -1
BITMAP
0180
7F80
6180
7F80
1980
FF80
6180
6000
7F80
ENDCHAR
STARTCHAR C032511
ENCODING 13641
SWIDTH 1000 0
DWIDTH 10 0
BBX 9 8 1 -1
BITMAP
7F80
6180
7F80
FF80
0000
7F80
7F80
7F80
ENDCHAR
STARTCHAR C032512
ENCODING 13642
SWIDTH 1000 0
DWIDTH 10 0
BBX 9 9 1 -1
BITMAP
0180
7F80
6180
7F80
1F80
F980
7F80
6180
7F80
ENDCHAR
STARTCHAR C032513
ENCODING 13643
SWIDTH 1000 0
DWIDTH 10 0
BBX 9 9 1 -1
BITMAP
0180
7F80
6180
7F80
FF80
0000
6180
7F80
7F80
ENDCHAR
STARTCHAR C032514
ENCODING 13644
SWIDTH 1000 0
DWIDTH 10 0
BBX 10 10 1 -2
BITMAP
0180
7F80
6180
7F80
1980
FF80
0D80
1E00
7300
0180
ENDCHAR
STARTCHAR C032515
ENCODING 13645
SWIDTH 1000 0
DWIDTH 10 0
BBX 9 8 1 -1
BITMAP
7F80
6000
6000
7F80
0000
3300
3300
FF80
ENDCHAR
STARTCHAR C032516
ENCODING 13646
SWIDTH 1000 0
DWIDTH 10 0
BBX 9 8 1 -1
BITMAP
7F80
6000
6000
7F80
FF80
0C00
0C00
0C00
ENDCHAR
STARTCHAR C032517
ENCODING 13647
SWIDTH 1000 0
DWIDTH 10 0
BBX 9 9 1 -2
BITMAP
7F80
6000
7F80
0000
FF80
7F80
0180
0180
0180
ENDCHAR
STARTCHAR C032520
ENCODING 13648
SWIDTH 1000 0
DWIDTH 10 0
BBX 9 8 1 -1
BITMAP
FF00
C000
FF00
0000
FF80
CC00
CC00
FF00
ENDCHAR
STARTCHAR C032521
ENCODING 13649
SWIDTH 1000 0
DWIDTH 10 0
BBX 9 8 1 -1
BITMAP
FF00
C000
FF00
FF80
0C00
FF80
FF80
FF80
ENDCHAR
STARTCHAR C032522
ENCODING 13650
SWIDTH 1000 0
DWIDTH 10 0
BBX 9 8 1 -1
BITMAP
7F80
6000
7F80
FF80
0C00
7F80
6180
7F80
ENDCHAR
STARTCHAR C032523
ENCODING 13651
SWIDTH 1000 0
DWIDTH 10 0
BBX 9 8 1 -1
BITMAP
FF00
C000
FF00
FF80
0C00
C300
FF00
FF00
ENDCHAR
STARTCHAR C032524
ENCODING 13652
SWIDTH 1000 0
DWIDTH 10 0
BBX 9 8 1 -1
BITMAP
FF00
C000
FF00
0000
FF80
1800
1C00
F700
ENDCHAR
STARTCHAR C032525
ENCODING 13653
SWIDTH 1000 0
DWIDTH 10 0
BBX 9 8 1 -1
BITMAP
FF00
C000
FF00
0000
FF80
3F00
E180
7F00
ENDCHAR
STARTCHAR C032526
ENCODING 13654
SWIDTH 1000 0
DWIDTH 10 0
BBX 9 8 1 -1
BITMAP
7F80
6180
7F80
0180
FF80
1F80
1980
1980
ENDCHAR
STARTCHAR C032527
ENCODING 13655
SWIDTH 1000 0
DWIDTH 10 0
BBX 10 10 1 -2
BITMAP
FD80
C180
FD80
0780
FD80
1F80
1980
0000
7700
DD80
ENDCHAR
STARTCHAR C032530
ENCODING 13656
SWIDTH 1000 0
DWIDTH 10 0
BBX 9 9 1 -1
BITMAP
0780
7F80
6780
7F80
0780
FF80
3F80
3780
3780
ENDCHAR
STARTCHAR C032531
ENCODING 13657
SWIDTH 1000 0
DWIDTH 10 0
BBX 10 10 1 -2
BITMAP
0600
FF80
C780
FF80
FF80
3F80
3F00
6180
6180
3F00
ENDCHAR
STARTCHAR C032532
ENCODING 13658
SWIDTH 1000 0
DWIDTH 10 0
BBX 9 9 1 -1
BITMAP
0180
7F80
6180
7F80
0180
FF80
1980
1980
1980
ENDCHAR
STARTCHAR C032533
ENCODING 13659
SWIDTH 1000 0
DWIDTH 10 0
BBX 9 8 1 -1
BITMAP
7F80
6180
7F80
0180
FF80
7980
7980
7F80
ENDCHAR
STARTCHAR C032534
ENCODING 13660
SWIDTH 1000 0
DWIDTH 10 0
BBX 9 8 1 -1
BITMAP
7F80
6180
7F80
FF80
1980
7F80
7F80
7F80
ENDCHAR
STARTCHAR C032535
ENCODING 13661
SWIDTH 1000 0
DWIDTH 10 0
BBX 9 8 1 -1
BITMAP
7F80
6180
7F80
FF80
1980
6180
7F80
7F80
ENDCHAR
STARTCHAR C032536
ENCODING 13662
SWIDTH 1000 0
DWIDTH 10 0
BBX 9 9 1 -2
BITMAP
FD80
C180
FD80
FF80
1980
1D80
1E00
7300
0180
ENDCHAR
STARTCHAR C032537
ENCODING 13663
SWIDTH 1000 0
DWIDTH 10 0
BBX 9 9 1 -2
BITMAP
7F80
6180
7F80
FF80
1980
3F80
6180
6180
3F00
ENDCHAR
STARTCHAR C032540
ENCODING 13664
SWIDTH 1000 0
DWIDTH 10 0
BBX 9 8 1 -1
BITMAP
FF00
C000
FF00
0000
FF80
3600
3600
3600
ENDCHAR
STARTCHAR C032541
ENCODING 13665
SWIDTH 1000 0
DWIDTH 10 0
BBX 9 8 1 -1
BITMAP
7F80
6000
7F80
0000
FF80
7E00
7E00
7F80
ENDCHAR
STARTCHAR C032542
ENCODING 13666
SWIDTH 1000 0
DWIDTH 10 0
BBX 9 8 1 -1
BITMAP
7F80
6000
7F80
FF80
3600
7F00
7F00
7F80
ENDCHAR
STARTCHAR C032543
ENCODING 13667
SWIDTH 1000 0
DWIDTH 10 0
BBX 9 8 1 -1
BITMAP
7F80
6000
7F80
FF80
3600
FF80
C180
FF80
ENDCHAR
STARTCHAR C032544
ENCODING 13668
SWIDTH 1000 0
DWIDTH 10 0
BBX 9 8 1 -1
BITMAP
7F80
6000
7F80
FF80
3600
7F00
C180
7F00
ENDCHAR
STARTCHAR C032545
ENCODING 13669
SWIDTH 1000 0
DWIDTH 10 0
BBX 9 8 1 -1
BITMAP
FF00
C000
C000
C000
FF00
0000
0000
FF80
ENDCHAR
STARTCHAR C032546
ENCODING 13670
SWIDTH 1000 0
DWIDTH 10 0
BBX 9 8 1 -1
BITMAP
FF80
C000
FF00
0000
FF80
7F80
0180
0180
ENDCHAR
STARTCHAR C032547
ENCODING 13671
SWIDTH 1000 0
DWIDTH 10 0
BBX 9 8 1 -1
BITMAP
FF00
C000
FF80
0000
FF80
6000
6000
7F80
ENDCHAR
STARTCHAR C032550
ENCODING 13672
SWIDTH 1000 0
DWIDTH 10 0
BBX 9 8 1 -1
BITMAP
FF00
C000
FF00
0000
FF80
7F80
6000
7F80
ENDCHAR
STARTCHAR C032551
ENCODING 13673
SWIDTH 1000 0
DWIDTH 10 0
BBX 9 8 1 -1
BITMAP
FF00
C000
FF00
FF80
7F00
0300
7F00
7F80
ENDCHAR
STARTCHAR C032552
ENCODING 13674
SWIDTH 1000 0
DWIDTH 10 0
BBX 9 9 1 -2
BITMAP
7F80
6000
7F80
FF80
0000
FF80
FD80
FF80
E000
ENDCHAR
STARTCHAR C032553
ENCODING 13675
SWIDTH 1000 0
DWIDTH 10 0
BBX 9 8 1 -1
BITMAP
FF00
C000
FF00
0000
FF80
7F00
6300
7F00
ENDCHAR
STARTCHAR C032554
ENCODING 13676
SWIDTH 1000 0
DWIDTH 10 0
BBX 9 8 1 -1
BITMAP
FF00
C000
FF00
0000
FF80
C300
FF00
FF00
ENDCHAR
STARTCHAR C032555
ENCODING 13677
SWIDTH 1000 0
DWIDTH 10 0
BBX 9 8 1 -1
BITMAP
FF00
C000
FF00
0000
FF80
0000
1C00
7700
ENDCHAR
STARTCHAR C032556
ENCODING 13678
SWIDTH 1000 0
DWIDTH 10 0
BBX 9 9 1 -2
BITMAP
7F80
6000
7F80
0000
FF80
3F00
6180
6180
3F00
ENDCHAR
STARTCHAR C032557
ENCODING 13679
SWIDTH 1000 0
DWIDTH 10 0
BBX 9 8 1 -1
BITMAP
7F80
6180
6180
7F80
0180
0180
FF80
0180
ENDCHAR
STARTCHAR C032560
ENCODING 13680
SWIDTH 1000 0
DWIDTH 10 0
BBX 7 8 2 -1
BITMAP
FE
C6
C6
C6
C6
FE
06
06
ENDCHAR
STARTCHAR C032561
ENCODING 13681
SWIDTH 1000 0
DWIDTH 10 0
BBX 9 8 1 -1
BITMAP
FD80
C180
C180
FF80
0000
7F80
0180
0180
ENDCHAR
STARTCHAR C032562
ENCODING 13682
SWIDTH 1000 0
DWIDTH 10 0
BBX 9 8 1 -1
BITMAP
FD80
C180
C180
FF80
0180
6180
6000
7F80
ENDCHAR
STARTCHAR C032563
ENCODING 13683
SWIDTH 1000 0
DWIDTH 10 0
BBX 9 8 1 -1
BITMAP
FD80
C180
C180
FF80
0000
7F80
6000
7F80
ENDCHAR
STARTCHAR C032564
ENCODING 13684
SWIDTH 1000 0
DWIDTH 10 0
BBX 9 8 1 -1
BITMAP
FD80
C180
C180
FF80
7F80
0180
7F80
7F80
ENDCHAR
STARTCHAR C032565
ENCODING 13685
SWIDTH 1000 0
DWIDTH 10 0
BBX 9 8 1 -1
BITMAP
FD80
C180
C180
FF80
0000
7F80
6180
7F80
ENDCHAR
STARTCHAR C032566
ENCODING 13686
SWIDTH 1000 0
DWIDTH 10 0
BBX 9 8 1 -1
BITMAP
FD80
C180
C180
FF80
6180
7F80
6180
7F80
ENDCHAR
STARTCHAR C032567
ENCODING 13687
SWIDTH 1000 0
DWIDTH 10 0
BBX 9 8 1 -1
BITMAP
FD80
C180
C180
FF80
0180
0C00
1C00
7700
ENDCHAR
STARTCHAR C032570
ENCODING 13688
SWIDTH 1000 0
DWIDTH 10 0
BBX 9 8 1 -1
BITMAP
FD80
C180
C180
FF80
0180
0000
7700
DD80
ENDCHAR
STARTCHAR C032571
ENCODING 13689
SWIDTH 1000 0
DWIDTH 10 0
BBX 9 9 1 -2
BITMAP
FD80
C180
C180
FF80
0180
3F00
6180
6180
3F00
ENDCHAR
STARTCHAR C032572
ENCODING 13690
SWIDTH 1000 0
DWIDTH 10 0
BBX 9 9 1 -2
BITMAP
FD80
C180
C180
FF80
0000
7F80
0C00
3E00
0380
ENDCHAR
STARTCHAR C032573
ENCODING 13691
SWIDTH 1000 0
DWIDTH 10 0
BBX 9 9 1 -2
BITMAP
FF00
DB00
DB00
DB80
DB00
DB00
FF00
0300
0300
ENDCHAR
STARTCHAR C032574
ENCODING 13692
SWIDTH 1000 0
DWIDTH 10 0
BBX 9 8 1 -1
BITMAP
FF00
DB80
DB00
DB00
FF00
FF00
0300
0300
ENDCHAR
STARTCHAR C032575
ENCODING 13693
SWIDTH 1000 0
DWIDTH 10 0
BBX 9 8 1 -1
BITMAP
FF00
DB00
DB80
DB00
FF00
EF00
C300
FF00
ENDCHAR
STARTCHAR C032576
ENCODING 13694
SWIDTH 1000 0
DWIDTH 10 0
BBX 9 8 1 -1
BITMAP
FF00
DB80
DB00
DB00
FF00
0300
FF00
FF00
ENDCHAR
ENDFONT
